<?xml version="1.0" standalone="no"?>
<!DOCTYPE svg PUBLIC "-//W3C//DTD SVG 1.1//EN" "http://www.w3.org/Graphics/SVG/1.1/DTD/svg11.dtd" >
<svg xmlns="http://www.w3.org/2000/svg">
<metadata>
Copyright   : Copyright 2006 Volkswagen AG
Foundry     : Volkswagen AG
</metadata>
<defs>
<font id="webfontfbDJZY22" horiz-adv-x="580" >
<font-face units-per-em="1000" ascent="800" descent="-200" />
<missing-glyph horiz-adv-x="271" />
<glyph unicode="&#xfb00;" horiz-adv-x="612" d="M16 349v89h62v131q0 42 6.5 76t24 57.5t47 36.5t75.5 13q20 0 41.5 -2t38.5 -7l-12 -96q-23 5 -46 5q-28 0 -41 -12q-11 -11 -15.5 -29t-4.5 -56v-117h183v135q0 42 6.5 76t24 58t47 37t75.5 13q20 0 39 -2t33 -5v-97q-11 2 -23.5 3t-23.5 1q-31 0 -44 -12 q-11 -11 -15.5 -29t-4.5 -57v-121h106v-89h-106v-349h-114v349h-183v-349h-114v349h-62z" />
<glyph unicode="&#xfb01;" horiz-adv-x="549" d="M16 349v89h62v135q0 42 6.5 76t24 58t47 37t75.5 13q19 0 41 -2.5t41 -7.5l-15 -96q-10 2 -22 4t-24 2q-24 0 -39 -12q-11 -10 -16 -28t-5 -58v-121h290v-438h-114v349h-176v-349h-114v349h-62zM351 613q0 31 22 52.5t52 21.5t52 -21.5t22 -52.5q0 -30 -22 -51.5 t-52 -21.5t-52 21.5t-22 51.5z" />
<glyph unicode="&#xfb02;" horiz-adv-x="548" d="M16 349v89h62v108q0 106 55.5 157.5t161.5 51.5q14 0 35.5 -1.5t38.5 -4.5h114v-749h-114v650q-35 8 -73 8q-27 0 -46.5 -6t-32 -20.5t-19 -39t-6.5 -62.5v-92h106v-89h-106v-349h-114v349h-62z" />
<glyph unicode="&#xfb03;" horiz-adv-x="855" d="M16 349v89h62v131q0 42 6.5 76t24 57.5t47 36.5t75.5 13q19 0 41 -2t39 -7l-13 -96q-23 5 -46 5q-25 0 -40 -12q-11 -10 -15.5 -28t-4.5 -57v-117h184v135q0 42 6.5 76t24 58t47 37t75.5 13q19 0 41 -2.5t41 -7.5l-15 -96l-22 4q-12 2 -24 2q-25 0 -40 -13 q-11 -10 -15.5 -28t-4.5 -57v-121h297v-438h-114v349h-183v-349h-114v349h-184v-349h-114v349h-62zM657 611q0 30 21.5 51.5t51.5 21.5q31 0 52.5 -21.5t21.5 -51.5q0 -31 -21.5 -52.5t-52.5 -21.5q-30 0 -51.5 21.5t-21.5 52.5z" />
<glyph unicode="&#xfb04;" horiz-adv-x="844" d="M16 349v89h62v131q0 42 6.5 76t24 57.5t47 36.5t75.5 13q19 0 41 -2t39 -7l-13 -96q-23 5 -46 5q-27 0 -40 -12q-11 -10 -15.5 -28t-4.5 -57v-117h183v108q0 106 54.5 157.5t161.5 51.5q14 0 35.5 -1.5t38.5 -4.5h113v-749h-114v650q-34 8 -72 8q-27 0 -46.5 -6 t-32 -20.5t-18.5 -39t-6 -62.5v-92h106v-89h-106v-349h-114v349h-183v-349h-114v349h-62z" />
<glyph unicode=" "  horiz-adv-x="271" />
<glyph unicode="&#x09;" horiz-adv-x="271" />
<glyph unicode="&#xa0;" horiz-adv-x="271" />
<glyph unicode="!" horiz-adv-x="324" d="M84 68q0 16 6.5 30.5t17 25t24.5 16.5t30 6q32 0 55 -23t23 -55t-23 -55t-55 -23q-16 0 -30 6t-24.5 16.5t-17 25t-6.5 30.5zM103 208v501h118v-501h-118z" />
<glyph unicode="&#x22;" horiz-adv-x="438" d="M59 727h123l-23 -295h-76zM257 727h123l-23 -295h-76z" />
<glyph unicode="#" horiz-adv-x="680" d="M42 197v96h125l20 132h-113v96h126l26 188h106l-26 -188h132l26 188h106l-25 -188h97v-96h-111l-19 -132h98v-96h-112l-28 -197h-106l28 197h-132l-29 -197h-107l30 197h-112zM273 293h133l19 132h-132z" />
<glyph unicode="$" d="M69 109l78 71q20 -34 51.5 -57.5t69.5 -31.5v214q-35 16 -67 34t-56.5 43t-39 59t-14.5 81q0 34 12.5 66.5t36 59t56 44.5t72.5 24v89h59v-89q58 -5 100 -29t73 -66l-74 -70q-41 55 -99 66v-211q36 -16 69 -33.5t58.5 -41.5t40.5 -57t15 -79q0 -39 -13 -73.5t-37 -61.5 t-58 -45t-75 -24v-111h-59v109q-65 5 -116 36.5t-83 83.5zM205 528q0 -33 17.5 -55t47.5 -39v181q-32 -9 -48.5 -33.5t-16.5 -53.5zM325 92q33 8 51 33t18 57q0 35 -18.5 57t-50.5 39v-186z" />
<glyph unicode="%" horiz-adv-x="849" d="M35 499q0 106 44 163t118 57q70 0 111 -52.5t41 -165.5q0 -111 -45.5 -166.5t-116.5 -55.5q-68 0 -110 52t-42 168zM126 501q0 -75 16 -107.5t50 -32.5q32 0 48.5 32.5t16.5 105.5q0 69 -14.5 103.5t-49.5 34.5q-67 0 -67 -136zM203 -1l370 740l70 -32l-370 -740z M497 207q0 106 43.5 162.5t118.5 56.5q70 0 111 -52t41 -165q0 -111 -45.5 -166.5t-116.5 -55.5q-68 0 -110 52t-42 168zM588 209q0 -75 16 -107.5t50 -32.5q32 0 48.5 32.5t16.5 105.5q0 69 -14.5 103.5t-49.5 34.5q-67 0 -67 -136z" />
<glyph unicode="&#x26;" horiz-adv-x="658" d="M42 188q0 33 10.5 61t30 52t46.5 46.5t59 45.5q-38 45 -56.5 84t-18.5 77q0 34 12.5 63.5t35.5 52t55.5 35.5t72.5 13q43 0 75.5 -12.5t54.5 -34t33 -51t11 -62.5q0 -56 -34.5 -99t-91.5 -81l120 -146q23 21 45 45l44 48l71 -80l-46 -49l-46 -45l95 -116v-35h-110l-66 81 q-51 -45 -100 -68t-104 -23q-41 0 -77 13.5t-63 39t-42.5 62t-15.5 83.5zM159 194q0 -42 25.5 -70.5t69.5 -28.5q33 0 61.5 17t63.5 48l-129 158q-43 -29 -67 -56.5t-24 -67.5zM222 556q0 -26 15 -51t38 -53q30 21 53 46.5t23 57.5q0 29 -18.5 46.5t-44.5 17.5 q-30 0 -48 -19t-18 -45z" />
<glyph unicode="'" horiz-adv-x="239" d="M59 727h123l-23 -295h-76z" />
<glyph unicode="(" horiz-adv-x="288" d="M61 262q0 129 30 247t89 233l87 -31q-51 -106 -79 -218t-28 -227q0 -116 27.5 -227t78.5 -211l-88 -34q-64 120 -90.5 236t-26.5 232z" />
<glyph unicode=")" horiz-adv-x="288" d="M22 -175q51 105 79.5 216t28.5 229q0 115 -28 229t-79 209l88 34q57 -106 87.5 -220.5t30.5 -247.5q0 -136 -31.5 -252t-88.5 -228z" />
<glyph unicode="*" horiz-adv-x="372" d="M18 494l102 54l-102 54l36 62l97 -65l-7 115h70l-6 -113l95 63l37 -60l-101 -55l102 -55l-37 -61l-95 63l6 -114h-72l7 115l-95 -64z" />
<glyph unicode="+" horiz-adv-x="675" d="M48 236v105h236v233h107v-233h236v-105h-236v-236h-107v236h-236z" />
<glyph unicode="," horiz-adv-x="246" d="M15 -128q29 26 46.5 50.5t17.5 50.5q0 16 -4 28t-8.5 22.5t-8.5 21t-4 24.5q0 29 20 49.5t51 20.5t53.5 -22.5t22.5 -67.5q0 -61 -39.5 -118t-105.5 -106z" />
<glyph unicode="-" horiz-adv-x="361" d="M43 216v96h275v-96h-275z" />
<glyph unicode="." horiz-adv-x="236" d="M45 63q0 32 22.5 54.5t54.5 22.5t54.5 -22.5t22.5 -54.5t-22.5 -54.5t-54.5 -22.5t-54.5 22.5t-22.5 54.5z" />
<glyph unicode="/" horiz-adv-x="471" d="M27 0l358 709h90l-360 -709h-88z" />
<glyph unicode="0" d="M37 351q0 84 17 152.5t50 117t81 75t110 26.5q64 0 110.5 -27t77 -75.5t45.5 -115.5t15 -148q0 -72 -15 -139t-46.5 -118t-81 -82t-118.5 -31q-61 0 -107 25.5t-76.5 73t-46 115t-15.5 151.5zM162 355q0 -59 7 -107t22.5 -82.5t40 -53.5t59.5 -19q61 0 94 64t33 192 q0 59 -6.5 108t-21.5 84.5t-40 55.5t-62 20q-33 0 -57 -19t-39.5 -53.5t-22.5 -83t-7 -106.5z" />
<glyph unicode="1" d="M86 0v112h145v485h-136v112h258v-597h140v-112h-407z" />
<glyph unicode="2" d="M47 460q-3 127 60.5 195t176.5 68q60 0 104 -18.5t73.5 -48.5t43.5 -68.5t14 -79.5q0 -78 -40.5 -146t-115.5 -143q-5 -9 -21 -25l-34 -34l-34 -32l-22 -21q6 1 17 1h23q12 0 24 1h17h200v-109h-474v50l192 211q38 42 64.5 74.5t43.5 60.5t25 53.5t8 52.5q0 48 -29 80 t-84 32q-34 0 -56 -13t-35 -35t-17.5 -49.5t-2.5 -56.5h-121z" />
<glyph unicode="3" d="M51 211h118q0 -55 30 -88t85 -33q30 0 52 9.5t36.5 25t21.5 35.5t7 42q0 51 -34.5 82t-100.5 31h-37v103h32q57 0 88.5 27t31.5 75q0 44 -27.5 72t-71.5 28q-48 0 -74.5 -31t-24.5 -79h-117q-1 44 13.5 83t43 68t70 46t94.5 17q49 0 89.5 -15.5t69.5 -42t44.5 -62.5 t15.5 -77q0 -57 -26.5 -96t-71.5 -59q24 -6 46 -21.5t38.5 -37.5t26.5 -49t10 -56q0 -42 -16 -81.5t-46.5 -70.5t-76.5 -50t-106 -19q-49 0 -91.5 14.5t-74 43t-49.5 70.5t-18 96z" />
<glyph unicode="4" d="M26 157v100l295 452h134v-447h98v-105h-98v-157h-121v157h-308zM145 261h190v165v32q0 20 0.5 42t1 41.5t1.5 28.5l-10 -18l-12 -23q-6 -13 -14 -23l-10 -16z" />
<glyph unicode="5" d="M55 53l42 102q33 -30 76.5 -46t87.5 -16q61 0 100 37.5t39 99.5q0 27 -10 52t-31 44.5t-52.5 31t-74.5 11.5q-32 0 -69 -7t-66 -17l32 364h347v-109h-251l-11 -140q11 2 26.5 3.5t27.5 1.5q58 0 105.5 -16.5t81 -46.5t52 -71.5t18.5 -91.5t-18 -96t-52.5 -80.5t-85 -55 t-115.5 -20.5q-56 0 -108.5 17t-90.5 49z" />
<glyph unicode="6" d="M44 221q0 64 26.5 132t83.5 154q36 54 76 107l74 95h148l-32 -37l-36 -44l-36 -44l-32 -41l-50 -69l-43 -64q26 15 50 21t52 6q43 0 81.5 -15.5t67 -43.5t45 -67t16.5 -85q0 -50 -19 -94t-52.5 -76t-79 -50.5t-98.5 -18.5q-55 0 -99.5 18t-76 49.5t-49 74t-17.5 92.5z M167 218q0 -26 9.5 -49t26.5 -40t39.5 -27t49.5 -10q25 0 47 10t38.5 27t26 41t9.5 51q0 25 -9.5 47.5t-26 39t-39 26.5t-48.5 10t-48.5 -9.5t-39 -26.5t-26 -40t-9.5 -50z" />
<glyph unicode="7" d="M47 601v108h485v-62l-309 -647h-138l297 601h-335z" />
<glyph unicode="8" d="M49 202q0 60 33 106.5t91 66.5q-48 20 -74.5 61t-26.5 91q0 39 14.5 75t42.5 63t69 43.5t95 16.5q45 0 84.5 -13.5t69 -38.5t46.5 -60.5t17 -78.5q0 -54 -27.5 -92.5t-75.5 -61.5q54 -18 88.5 -64t34.5 -107q0 -45 -17.5 -85t-50 -70t-77 -48t-98.5 -18q-48 0 -91 15 t-75.5 43t-52 67.5t-19.5 88.5zM172 207q0 -24 9 -45t25 -36.5t37.5 -24.5t46.5 -9t47 8.5t37.5 24t24.5 36.5t9 46q0 24 -9.5 44.5t-25.5 36t-37.5 24.5t-45.5 9t-45.5 -9t-37.5 -24t-25.5 -36t-9.5 -45zM185 526q0 -20 7.5 -38.5t21 -32.5t33 -22.5t43.5 -8.5 q48 0 77.5 29t29.5 71q0 41 -29 71t-79 30q-48 0 -76 -28.5t-28 -70.5z" />
<glyph unicode="9" d="M45 484q0 52 19.5 95.5t53 75t78 49.5t95.5 18q57 0 102 -18.5t76.5 -50t48 -74t16.5 -91.5q0 -39 -8.5 -75.5t-25 -74t-41 -78.5t-56.5 -87q-9 -11 -27 -37l-38 -54l-39 -51q-18 -24 -24 -31h-151q32 35 66 77l62 80l56 74q27 37 48 69q-20 -13 -45 -20.5t-54 -7.5 q-44 0 -82.5 15.5t-67.5 43.5t-45.5 67t-16.5 86zM165 489q0 -26 9.5 -48.5t26 -39t39 -26.5t49.5 -10q26 0 48 10t38.5 27t26 40t9.5 50q0 26 -9.5 49t-26.5 40t-39.5 26.5t-48.5 9.5q-25 0 -47 -9.5t-38.5 -27t-26.5 -41t-10 -50.5z" />
<glyph unicode=":" horiz-adv-x="330" d="M88 63q0 32 22.5 54.5t54.5 22.5t54.5 -22.5t22.5 -54.5t-22.5 -54t-54.5 -22t-54.5 22t-22.5 54zM88 335q0 32 22.5 54t54.5 22t54.5 -22t22.5 -54t-22.5 -54.5t-54.5 -22.5t-54.5 22.5t-22.5 54.5z" />
<glyph unicode=";" horiz-adv-x="330" d="M55 -128q29 26 46 50.5t17 50.5q0 16 -4 28t-8.5 22.5t-8 21t-3.5 24.5q0 29 20 49.5t51 20.5t53.5 -22.5t22.5 -67.5q0 -61 -39.5 -118t-105.5 -106zM88 335q0 32 22.5 54t54.5 22t54.5 -22t22.5 -54t-22.5 -54.5t-54.5 -22.5t-54.5 22.5t-22.5 54.5z" />
<glyph unicode="&#x3c;" horiz-adv-x="675" d="M47 255v111l565 242v-115l-425 -179l425 -177v-123z" />
<glyph unicode="=" horiz-adv-x="675" d="M31 135v105h613v-105h-613zM31 339v104h613v-104h-613z" />
<glyph unicode="&#x3e;" horiz-adv-x="675" d="M47 14v123l425 177l-425 179v115l565 -242v-111z" />
<glyph unicode="?" horiz-adv-x="538" d="M59 500q-2 46 13.5 86t44 70t69 47t89.5 17q51 0 91.5 -16.5t69.5 -44.5t44.5 -66t15.5 -81q0 -40 -13 -73.5t-35.5 -59t-53 -42.5t-66.5 -23v-109h-115v193h50q27 0 48.5 8.5t36 23.5t22.5 34.5t8 41.5q0 23 -8.5 43t-23 34.5t-34.5 23t-42 8.5t-42 -8.5t-34.5 -24 t-22.5 -36.5t-7 -46h-105zM196 65q0 32 22.5 54.5t54.5 22.5t54.5 -22.5t22.5 -54.5t-22.5 -54.5t-54.5 -22.5t-54.5 22.5t-22.5 54.5z" />
<glyph unicode="@" horiz-adv-x="1050" d="M50 274q0 100 38.5 188.5t104.5 154.5t154.5 104.5t189.5 38.5q108 0 193 -34t143.5 -90.5t89 -128.5t30.5 -147q0 -64 -18 -119t-55 -95t-93.5 -63t-133.5 -23h-78v54q-23 -30 -58 -47.5t-82 -17.5q-44 0 -81 16.5t-64.5 46t-43 71t-15.5 91.5t16.5 93t45 74.5 t66.5 49.5t82 18t78.5 -18t55.5 -49v56h108v-344q86 0 125.5 54t39.5 152q0 51 -21 105.5t-64.5 99t-109.5 73t-156 28.5q-80 0 -150 -31t-121.5 -84.5t-81.5 -124.5t-30 -152q0 -82 30 -154t81.5 -125t121.5 -84t151 -31q69 0 138 21.5t125 57.5l43 -82q-64 -44 -143.5 -67 t-163.5 -23q-101 0 -190 37.5t-155 103.5t-104 155t-38 191zM383 278q0 -28 8.5 -53t24.5 -43.5t37.5 -29.5t48.5 -11t49 10.5t37 28.5t23 42.5t8 52.5q0 29 -8.5 54t-24.5 43t-38 28t-49 10q-25 0 -46.5 -10t-37 -27.5t-24 -42t-8.5 -52.5z" />
<glyph unicode="A" horiz-adv-x="701" d="M9 0l278 709h122l284 -709h-136l-62 165h-294l-61 -165h-131zM240 272h215l-62 166l-13 35l-15 44l-18 53l-17 -53l-16 -43l-12 -36z" />
<glyph unicode="B" horiz-adv-x="603" d="M82 0v709h202q62 0 103.5 -13t73.5 -46q22 -22 34 -52t12 -67q0 -52 -24 -88.5t-65 -59.5q28 -6 52 -21t42 -37t28.5 -51t10.5 -63q0 -89 -57 -146q-30 -30 -80.5 -47.5t-132.5 -17.5h-199zM204 103h88q71 0 103.5 27t32.5 78q0 22 -6.5 42t-20.5 34q-18 18 -45.5 26 t-66.5 8h-85v-215zM204 419h66q56 0 85 28q13 13 21 30.5t8 40.5q0 17 -5 33t-18 29q-14 14 -33 20.5t-51 6.5h-73v-188z" />
<glyph unicode="C" horiz-adv-x="645" d="M43 350q0 81 27 148.5t75 116.5t114.5 76.5t145.5 27.5q105 0 187 -38v-134q-35 26 -84.5 42.5t-102.5 16.5q-49 0 -91.5 -18t-73.5 -51t-49 -79.5t-18 -104.5q0 -52 16.5 -97.5t47.5 -79.5t75.5 -53.5t99.5 -19.5q56 0 102.5 14.5t81.5 40.5v-127q-39 -20 -90 -31 t-107 -11q-80 0 -145.5 28t-112.5 77t-72.5 115t-25.5 141z" />
<glyph unicode="D" horiz-adv-x="683" d="M82 0v709h187q85 0 154 -23.5t118 -71.5q48 -48 73 -110.5t25 -143.5q0 -161 -100 -261q-99 -99 -288 -99h-169zM205 104h51q65 0 110.5 15.5t75.5 45.5q32 31 49.5 78t17.5 112q0 59 -17 107t-49 80q-35 35 -81.5 49.5t-104.5 14.5h-52v-502z" />
<glyph unicode="E" horiz-adv-x="544" d="M82 0v709h387v-113h-263v-176h255v-111h-255v-196h264v-113h-388z" />
<glyph unicode="F" horiz-adv-x="514" d="M82 0v709h378v-113h-254v-179h249v-111h-249v-306h-124z" />
<glyph unicode="G" horiz-adv-x="785" d="M43 356q0 76 27.5 143.5t76.5 117.5t116.5 79t147.5 29q94 0 171.5 -38t131.5 -113l-98 -68q-78 106 -208 106q-56 0 -100 -20.5t-75 -55t-47.5 -80.5t-16.5 -97q0 -54 16.5 -101.5t47.5 -83t75.5 -56.5t99.5 -21q44 0 80.5 12.5t64 35t45.5 53t24 66.5h-192v109h325v-29 q0 -74 -23.5 -139.5t-69 -114.5t-111 -77t-149.5 -28q-80 0 -146.5 28.5t-113.5 79t-73 118t-26 145.5z" />
<glyph unicode="H" horiz-adv-x="715" d="M82 0v709h124v-282h303v282h124v-709h-124v315h-303v-315h-124z" />
<glyph unicode="I" horiz-adv-x="288" d="M82 0v709h124v-709h-124z" />
<glyph unicode="J" horiz-adv-x="434" d="M0 96l91 72q14 -29 35 -47.5t48 -18.5q11 0 20 4t15 10q12 12 17 32t5 56v505h123v-500q0 -64 -12.5 -104.5t-42.5 -70.5q-47 -47 -133 -47q-26 0 -51 8t-46.5 22.5t-39 34.5t-29.5 44z" />
<glyph unicode="K" horiz-adv-x="649" d="M82 0v709h124v-316l248 316h149l-271 -332l285 -377h-157l-254 345v-345h-124z" />
<glyph unicode="L" horiz-adv-x="472" d="M82 0v709h124v-596h240v-113h-364z" />
<glyph unicode="M" horiz-adv-x="906" d="M39 0l100 709h129l138 -386q13 -36 25 -75.5t23 -80.5l22 78l23 70l142 394h124l98 -709h-121l-46 381q-5 35 -8 76.5t-5 83.5q-11 -41 -22.5 -78.5t-22.5 -68.5l-143 -394h-91l-141 391q-11 31 -23 69l-22 78q-2 -42 -5.5 -83.5t-8.5 -79.5l-45 -375h-120z" />
<glyph unicode="N" horiz-adv-x="779" d="M82 0v709h114l293 -392l52 -73l46 -69q-2 61 -3.5 117.5t-1.5 116.5v300h114v-709h-112l-309 412l-43 60l-41 60q2 -50 3 -98t4 -98v-336h-116z" />
<glyph unicode="O" horiz-adv-x="826" d="M40 353q0 76 29.5 143.5t80.5 118t119 80t145 29.5q78 0 146 -28.5t118.5 -78.5t79.5 -117.5t29 -145.5q0 -77 -30 -144t-81 -117.5t-119 -79.5t-145 -29q-78 0 -145.5 28.5t-118 78.5t-79.5 117.5t-29 144.5zM167 355q0 -52 19 -98t52 -80.5t78 -54.5t97 -20 q53 0 98 19.5t78 53.5t51.5 80t18.5 99t-18 99.5t-51 81t-78 54t-99 19.5q-53 0 -98 -20t-78 -54.5t-51.5 -80.5t-18.5 -98z" />
<glyph unicode="P" horiz-adv-x="541" d="M82 0v709h181q66 0 115.5 -14t83.5 -48q55 -55 55 -148q0 -45 -15 -83t-43 -66q-34 -34 -85 -51t-114 -17h-55v-282h-123zM205 387h56q67 0 100 33q29 29 29 74q0 24 -7 44.5t-20 33.5q-15 15 -38 23t-60 8h-60v-216z" />
<glyph unicode="Q" horiz-adv-x="826" d="M40 353q0 76 29.5 143.5t80.5 118t119 80t145 29.5q78 0 146 -28.5t118.5 -78.5t79.5 -117.5t29 -145.5q0 -85 -34 -154t-88 -117l98 -123l-113 -28l-73 91q-35 -17 -76 -28t-89 -11q-78 0 -145.5 28.5t-118 78.5t-79.5 117.5t-29 144.5zM167 355q0 -52 18.5 -98 t51.5 -80.5t78 -54.5t97 -20q47 0 89 16l-98 123l113 29l74 -93q30 32 49.5 76t19.5 101q0 53 -18 99.5t-51 81t-78 54t-99 19.5q-53 0 -98 -20t-78 -54.5t-51.5 -80.5t-18.5 -98z" />
<glyph unicode="R" horiz-adv-x="579" d="M82 0v709h199q62 0 110.5 -14.5t79.5 -45.5q29 -30 41.5 -64t12.5 -76q0 -39 -12.5 -72t-35.5 -59t-56 -42.5t-73 -22.5l216 -313h-148l-199 308h-12v-308h-123zM205 398h55q42 0 69 7.5t42 23.5q15 15 21.5 33t6.5 41q0 20 -5.5 38.5t-21.5 34.5q-17 17 -43 24t-61 7 h-63v-209z" />
<glyph unicode="S" horiz-adv-x="531" d="M32 105l88 77q10 -18 23.5 -34t30.5 -29t37 -20.5t44 -7.5q46 0 73.5 28t27.5 70q0 36 -22 59t-54.5 41.5t-71 36.5t-71 43t-54.5 62t-22 93q0 43 17 79.5t46 63.5t68 42t83 15q64 0 115 -27.5t83 -76.5l-84 -73q-19 34 -48 53.5t-64 19.5q-41 0 -66 -25.5t-25 -64.5 q0 -35 22 -57t55 -40t71.5 -35.5t71.5 -42.5t55 -61.5t22 -91.5q0 -48 -18 -88t-49 -68.5t-74 -44.5t-92 -16q-75 0 -130 33t-88 87z" />
<glyph unicode="T" horiz-adv-x="470" d="M11 597v112h449v-111h-163v-598h-123v597h-163z" />
<glyph unicode="U" horiz-adv-x="713" d="M80 264v445h124v-435q0 -50 9 -82t33 -56q19 -19 46.5 -30t65.5 -11q36 0 63.5 10.5t46.5 28.5q21 21 32.5 52t11.5 80v443h121v-431q0 -75 -19.5 -128.5t-56.5 -91.5q-38 -38 -90.5 -54.5t-111.5 -16.5q-63 0 -115.5 18t-90.5 56q-32 31 -50.5 79.5t-18.5 123.5z" />
<glyph unicode="V" horiz-adv-x="683" d="M9 709h136l150 -418l23 -71l23 -71l23 71l23 68l153 421h133l-272 -709h-124z" />
<glyph unicode="W" horiz-adv-x="1025" d="M20 709h130l125 -417q9 -31 17 -67.5t14 -72.5l14 73q8 36 17 70l113 414h127l114 -418q8 -30 16.5 -65.5t15.5 -73.5l16 73q8 36 16 65l124 419h126l-226 -709h-122l-115 417q-8 29 -16 65l-15 75l-15 -77q-7 -35 -15 -64l-113 -416h-122z" />
<glyph unicode="X" horiz-adv-x="640" d="M16 0l239 369l-219 340h145l142 -241l144 241h144l-223 -338l235 -371h-143l-162 271l-160 -271h-142z" />
<glyph unicode="Y" horiz-adv-x="604" d="M9 709h142l154 -288l154 288h137l-233 -388v-321h-124v317z" />
<glyph unicode="Z" horiz-adv-x="572" d="M3 0l346 600h-302v109h502l-345 -597h345v-112h-546z" />
<glyph unicode="[" horiz-adv-x="345" d="M92 -196v929h217v-87h-112v-753h113v-89h-218z" />
<glyph unicode="\" horiz-adv-x="361" d="M16 709h105l227 -718h-106z" />
<glyph unicode="]" horiz-adv-x="345" d="M34 -107h114v753h-113v87h217v-929h-218v89z" />
<glyph unicode="^" horiz-adv-x="737" d="M130 324l197 385h92l188 -385h-119l-117 246l-123 -246h-118z" />
<glyph unicode="_" horiz-adv-x="506" d="M-8 -124h521v-106h-521v106z" />
<glyph unicode="`" horiz-adv-x="470" d="M123 636l89 69l135 -150l-65 -46z" />
<glyph unicode="a" d="M41 214q0 51 16 94t44.5 74.5t68.5 49.5t88 18q46 0 83.5 -18.5t59.5 -49.5v56h113v-438h-113v54q-25 -30 -62.5 -48t-86.5 -18q-47 0 -86 17t-66.5 47t-43 71.5t-15.5 90.5zM158 218q0 -28 9.5 -53t26 -43.5t39.5 -29.5t50 -11q28 0 51 10.5t39 28.5t24.5 42.5t8.5 52.5 q0 59 -35 97t-91 38q-26 0 -48 -10t-38.5 -27.5t-26 -42t-9.5 -52.5z" />
<glyph unicode="b" horiz-adv-x="579" d="M66 0v749h113v-371q25 33 62 52t86 19q45 0 83.5 -16.5t67 -46.5t44.5 -71.5t16 -90.5q0 -53 -17 -96.5t-46.5 -74t-69 -47.5t-84.5 -17q-89 0 -142 65v-54h-113zM174 217q0 -27 8.5 -51t24 -42t38.5 -29t53 -11q27 0 49 10.5t38.5 29t25.5 43t9 51.5q0 26 -8.5 50 t-24.5 42t-39 29t-51 11q-56 0 -89.5 -37t-33.5 -96z" />
<glyph unicode="c" horiz-adv-x="441" d="M41 216q0 45 16.5 87.5t47 74.5t75 51.5t100.5 19.5q31 0 62.5 -6t55.5 -17v-107q-20 12 -49 20.5t-58 8.5q-28 0 -52 -9.5t-41 -26.5t-27 -40.5t-10 -51.5q0 -27 9 -50.5t26 -41.5t41 -28.5t54 -10.5q29 0 57 8t50 24v-108q-23 -10 -56.5 -17.5t-69.5 -7.5 q-57 0 -100 19t-72 51t-44 73t-15 85z" />
<glyph unicode="d" d="M41 217q0 48 16 89.5t45 73t69 49.5t88 18q44 0 80.5 -15.5t61.5 -44.5v361h113v-748h-113v59q-25 -30 -62 -49.5t-89 -19.5q-47 0 -85.5 17.5t-66 48.5t-42.5 72t-15 89zM160 218q0 -30 10 -54t26.5 -41.5t38.5 -27t46 -9.5q28 0 50.5 10.5t39 29t25.5 43t9 52.5 q0 30 -9.5 54t-26 41t-39 26t-47.5 9q-27 0 -49.5 -10.5t-39 -28.5t-25.5 -42.5t-9 -51.5z" />
<glyph unicode="e" horiz-adv-x="520" d="M41 217q0 52 17 95t47 74t70.5 48t87.5 17q48 0 87.5 -15.5t68.5 -44.5t45 -71t16 -94q0 -9 -0.5 -18t-0.5 -19h-325q1 -24 10.5 -44.5t25.5 -36t37.5 -24t47.5 -8.5q38 0 68 16.5t53 45.5l75 -53q-38 -49 -88 -73.5t-119 -24.5q-46 0 -86.5 15.5t-71 44.5t-48 72 t-17.5 98zM155 265h209q0 20 -7 38t-20.5 32t-32.5 22.5t-43 8.5q-46 0 -74 -30t-32 -71z" />
<glyph unicode="f" horiz-adv-x="315" d="M16 349v89h62v135q0 42 6.5 76t24 58t47 37t75.5 13q20 0 39 -2t33 -5v-97q-11 2 -23.5 3t-23.5 1q-30 0 -43 -12q-12 -10 -16.5 -28.5t-4.5 -57.5v-121h106v-89h-106v-349h-114v349h-62z" />
<glyph unicode="g" horiz-adv-x="573" d="M41 220q0 49 16.5 90.5t45 72.5t67 48.5t82.5 17.5q45 0 82 -16.5t60 -49.5v55h113v-407q0 -67 -12.5 -110.5t-44.5 -74.5q-32 -32 -75.5 -46t-102.5 -14q-99 0 -152.5 47.5t-56.5 122.5h111q2 -35 30 -59t74 -24q60 0 88 30t28 99v64q-26 -32 -63 -48t-81 -16 q-49 0 -87.5 17t-65.5 47t-41.5 69.5t-14.5 84.5zM157 223q0 -56 34 -93t88 -37q27 0 49 10t37.5 28t24 42t8.5 51q0 25 -8 48.5t-24 40.5t-38.5 27.5t-50.5 10.5q-26 0 -48 -10t-38 -27.5t-25 -40.5t-9 -50z" />
<glyph unicode="h" horiz-adv-x="537" d="M66 0v749h113v-367q20 26 55.5 46.5t86.5 20.5q32 0 61 -10t49 -30q42 -42 42 -128v-281h-113v257q0 45 -19.5 69t-61.5 24q-41 0 -69 -28q-31 -31 -31 -88v-234h-113z" />
<glyph unicode="i" horiz-adv-x="248" d="M50 611q0 30 22 51.5t52 21.5t51.5 -21.5t21.5 -51.5q0 -31 -21.5 -52.5t-51.5 -21.5t-52 21.5t-22 52.5zM67 0v438h114v-438h-114z" />
<glyph unicode="j" horiz-adv-x="248" d="M50 611q0 30 22 51.5t52 21.5t51.5 -21.5t21.5 -51.5q0 -31 -21.5 -52.5t-51.5 -21.5t-52 21.5t-22 52.5zM67 -201v639h114v-639h-114z" />
<glyph unicode="k" horiz-adv-x="486" d="M66 0v749h113v-493l150 182h143l-179 -201l191 -237h-150l-155 209v-209h-113z" />
<glyph unicode="l" horiz-adv-x="245" d="M66 0v749h113v-749h-113z" />
<glyph unicode="m" horiz-adv-x="803" d="M66 0v438h111v-62q20 31 52.5 51.5t80.5 20.5q90 0 132 -76q23 30 59 52.5t88 22.5q33 0 60.5 -9.5t47.5 -30t31.5 -53t11.5 -78.5v-276h-114v252q0 43 -15.5 70.5t-58.5 27.5q-17 0 -33 -6t-29.5 -19.5t-21.5 -34t-8 -49.5v-241h-114v252q0 43 -16 70.5t-58 27.5 q-17 0 -33.5 -6.5t-29.5 -20t-21.5 -34t-8.5 -49.5v-240h-113z" />
<glyph unicode="n" horiz-adv-x="538" d="M66 0v438h112v-58q18 24 51.5 45.5t88.5 21.5q41 0 69 -12t47 -30q22 -22 31.5 -53t9.5 -76v-276h-114v252q0 43 -18 70.5t-62 27.5q-17 0 -35 -6.5t-33 -20t-24.5 -34t-9.5 -49.5v-240h-113z" />
<glyph unicode="o" horiz-adv-x="561" d="M41 218q0 48 18 90t50 73.5t76 50t96 18.5q51 0 95 -17.5t76 -48t50 -73t18 -92.5q0 -46 -17.5 -88t-49.5 -74t-77 -51t-100 -19q-50 0 -93 17t-74.5 48t-49.5 73.5t-18 92.5zM156 219q0 -28 10 -52t27 -41.5t39.5 -27.5t48.5 -10q27 0 49.5 10.5t39 28.5t25.5 41.5 t9 49.5q0 28 -9.5 52t-26.5 41.5t-40 27.5t-49 10q-27 0 -49.5 -10.5t-39 -28t-25.5 -41t-9 -50.5z" />
<glyph unicode="p" d="M66 -201v639h113v-59q24 33 61.5 51.5t88.5 18.5q46 0 84.5 -17.5t66.5 -48t43.5 -72.5t15.5 -90q0 -46 -15.5 -88t-43.5 -74t-68.5 -51t-89.5 -19q-47 0 -83.5 17t-59.5 46v-253h-113zM175 215q0 -59 34 -96t89 -37q28 0 50.5 11t38 29.5t24 42.5t8.5 51t-8.5 51 t-24 42.5t-38.5 29.5t-51 11t-50.5 -10.5t-38.5 -29t-24.5 -43t-8.5 -52.5z" />
<glyph unicode="q" d="M41 216q0 49 16.5 91t45.5 73t68.5 49t86.5 18t83.5 -18t59.5 -49v58h114v-639h-114v255q-23 -30 -59 -47.5t-84 -17.5q-50 0 -90.5 18t-68.5 49t-43 72.5t-15 87.5zM161 217q0 -27 9 -51.5t24.5 -42.5t38 -29t49.5 -11q52 0 88 35.5t36 97.5q0 28 -9 52.5t-25 42.5 t-38.5 28.5t-50.5 10.5q-27 0 -49.5 -10t-38.5 -28t-25 -42.5t-9 -52.5z" />
<glyph unicode="r" horiz-adv-x="347" d="M66 0v438h112v-69q19 35 49 57t77 22q8 0 17 -0.5t15 -2.5l-4 -117q-26 15 -64 15q-39 0 -63.5 -33t-24.5 -99v-211h-114z" />
<glyph unicode="s" horiz-adv-x="408" d="M36 77l92 48q11 -21 29.5 -34.5t43.5 -13.5q23 0 38.5 10t15.5 31q0 19 -15 30t-38 20l-49 18q-26 10 -49 25.5t-38 39.5t-15 62q0 28 11 52.5t31.5 43.5t49.5 30t66 11q55 0 92.5 -21t59.5 -66l-91 -41q-11 22 -28 32t-37 10q-19 0 -33 -11t-14 -30q0 -20 15.5 -32 t38.5 -21l50 -18q26 -10 49 -25t38.5 -38.5t15.5 -61.5q0 -30 -12 -55.5t-34 -44t-53 -28.5t-68 -10q-63 0 -101 21.5t-61 66.5z" />
<glyph unicode="t" horiz-adv-x="282" d="M15 349v89h64v159h114v-159h85v-89h-85v-349h-114v349h-64z" />
<glyph unicode="u" horiz-adv-x="540" d="M63 202v236h114v-229q0 -26 3.5 -48.5t14 -39t29 -26.5t48.5 -10t47.5 10.5t27.5 28t13 39t3 43.5v232h114v-229q0 -54 -10.5 -96t-40.5 -72q-29 -29 -69 -41.5t-88 -12.5q-100 0 -157 57q-26 26 -37.5 64.5t-11.5 93.5z" />
<glyph unicode="v" horiz-adv-x="508" d="M3 438h129l87 -215q9 -23 19.5 -53t18.5 -58q8 28 18.5 57t20.5 54l85 215h124l-192 -438h-117z" />
<glyph unicode="w" horiz-adv-x="778" d="M8 438h122l83 -223q8 -20 14.5 -43t11.5 -44l11 44q6 23 11 40l74 226h112l71 -217q8 -24 14.5 -46.5t11.5 -45.5q6 23 14 47t15 43l79 219h118l-179 -438h-106l-75 227l-11 37q-6 20 -11 43q-5 -22 -10.5 -44t-10.5 -37l-73 -226h-110z" />
<glyph unicode="x" horiz-adv-x="497" d="M2 0l178 224l-165 214h138l51 -72l46 -70l48 71l50 71h136l-164 -212l175 -226h-138l-55 80l-52 78q-24 -39 -54 -80l-57 -78h-137z" />
<glyph unicode="y" horiz-adv-x="510" d="M2 438h132l79 -177l20 -44l17 -39l14 -35l22 55l23 54l79 186h120l-290 -639h-120l104 222z" />
<glyph unicode="z" horiz-adv-x="463" d="M17 0l232 347h-205v91h399l-234 -347h221v-91h-413z" />
<glyph unicode="{" horiz-adv-x="379" d="M40 238v84q27 0 44 7t26.5 22.5t13.5 40.5t4 60v96q0 97 43 141t137 44h36v-79q-57 0 -82.5 -24.5t-25.5 -80.5v-81q0 -47 -4 -79t-14.5 -53.5t-28.5 -34.5t-47 -22q29 -9 47.5 -23t29 -36t14.5 -52.5t4 -73.5v-90q0 -32 4.5 -54t16.5 -35t33 -18.5t53 -5.5v-87h-47 q-47 0 -79 10t-52 33t-29 60.5t-9 93.5v97q0 73 -17 106.5t-71 33.5z" />
<glyph unicode="|" horiz-adv-x="235" d="M65 -227v1002h105v-1002h-105z" />
<glyph unicode="}" horiz-adv-x="379" d="M32 -118q59 0 83.5 26t24.5 84v71q0 50 3.5 84t14 56.5t29 36t47.5 22.5q-29 9 -47 23t-29 34.5t-15 49t-4 68.5v100q0 31 -5 52t-17.5 33.5t-33 17.5t-51.5 5v87h41q95 0 135.5 -43t40.5 -137v-113q0 -69 16.5 -101.5t70.5 -32.5v-85q-26 0 -43 -7t-27 -23t-13.5 -42 t-3.5 -63v-80q0 -57 -10 -95.5t-31.5 -62t-54.5 -34t-78 -10.5h-43v79z" />
<glyph unicode="~" horiz-adv-x="737" d="M111 305q10 14 25 28.5t34.5 26.5t42.5 19.5t49 7.5q30 0 57.5 -11t54.5 -24t52.5 -24t50.5 -11q29 0 56 15.5t47 41.5l46 -90q-31 -34 -70 -55t-82 -21q-29 0 -56.5 11t-53.5 24t-51 24t-49 11q-29 0 -54.5 -16.5t-49.5 -45.5z" />
<glyph unicode="&#xa1;" horiz-adv-x="291" d="M84 641q0 16 6.5 30.5t17 25t24.5 16.5t30 6q32 0 55 -23t23 -55t-23 -55t-55 -23q-16 0 -30 6t-24.5 16.5t-17 25t-6.5 30.5zM103 0v501h118v-501h-118z" />
<glyph unicode="&#xa2;" d="M99 349q0 45 15 87.5t44 76t71.5 55t96.5 26.5v115h62v-116q25 -3 47.5 -9t42.5 -14v-107q-18 9 -41 17t-49 11v-280q27 4 50 13t42 20v-106q-42 -20 -92 -26v-112h-62v110q-52 3 -94 23t-71.5 52t-45.5 74t-16 90zM221 353q0 -51 28.5 -89t76.5 -49v272 q-48 -11 -76.5 -47t-28.5 -87z" />
<glyph unicode="&#xa3;" d="M40 84q55 31 84 67t29 83q0 22 -6 43.5t-15 42.5h-88v78h55q-14 33 -22 64t-8 61q0 38 14.5 74t43 64t71 45t99.5 17q89 0 144 -39.5t81 -111.5l-108 -45q-30 100 -122 100q-44 0 -71 -27t-27 -74q0 -33 10 -61.5t27 -66.5h157v-78h-128q13 -37 13 -72q0 -31 -12 -61.5 t-37 -53.5q25 -1 43 -7t35.5 -13t36.5 -12.5t45 -5.5q33 0 57.5 10.5t45.5 27.5l53 -94q-25 -17 -65 -34.5t-95 -17.5q-32 0 -57 7t-47.5 15t-44.5 15t-47 7q-28 0 -54.5 -10t-46.5 -27z" />
<glyph unicode="&#xa4;" horiz-adv-x="680" d="M24 107l91 91q-20 29 -31 66t-11 75t10 74.5t33 68.5l-91 91l77 78l91 -92q27 19 62.5 30.5t79.5 11.5q42 0 77 -11t64 -31l92 92l78 -78l-92 -90q19 -29 30 -64.5t11 -77.5q0 -40 -11.5 -77t-31.5 -65l94 -94l-78 -76l-93 93q-29 -20 -64.5 -31t-77.5 -11t-77 11t-64 30 l-91 -91zM180 342q0 -33 12 -62t33 -50.5t49 -34t61 -12.5q32 0 60 12.5t49 33.5t33 50t12 62t-12 62t-33 50.5t-49.5 34t-61.5 12.5q-32 0 -60 -12.5t-48.5 -33.5t-32.5 -50t-12 -62z" />
<glyph unicode="&#xa5;" d="M-1 709h142l152 -285l152 285h137l-232 -386h159v-83h-160v-78h160v-84h-160v-78h-120v78h-167v84h167v78h-167v83h164z" />
<glyph unicode="&#xa6;" horiz-adv-x="240" d="M67 191h106v-383h-106v383zM67 309v383h106v-383h-106z" />
<glyph unicode="&#xa7;" horiz-adv-x="537" d="M56 301q0 27 7.5 53.5t21.5 48.5t35 39t47 25q-41 22 -63.5 54t-22.5 78q0 33 12.5 63.5t36.5 53.5t59.5 36.5t82.5 13.5q94 0 146 -45t51 -142h-113q2 45 -19.5 69.5t-65.5 24.5q-30 0 -54.5 -18.5t-24.5 -55.5q0 -29 23 -49t78 -44l54 -24q27 -12 51 -29t41.5 -39 t27.5 -50t10 -63q0 -57 -28 -99t-80 -66q47 -19 70.5 -55.5t23.5 -79.5q0 -37 -14 -68.5t-40 -54.5t-63.5 -36t-85.5 -13q-54 0 -92 15t-62.5 40t-36 57.5t-11.5 68.5h119q0 -39 23 -61.5t66 -22.5q41 0 61 22.5t20 51.5t-23.5 48.5t-65.5 36.5l-50 20q-30 12 -57.5 28.5 t-48.5 39.5t-33.5 54.5t-12.5 73.5zM167 301q0 -21 8 -39t21.5 -31.5t31.5 -21t38 -7.5t38 7.5t31.5 21t21.5 31.5t8 39q0 20 -8 38t-21.5 31.5t-31.5 21t-38 7.5t-38 -7.5t-31.5 -21t-21.5 -31.5t-8 -38z" />
<glyph unicode="&#xa8;" horiz-adv-x="470" d="M65 611q0 29 20 49t49 20t49.5 -20t20.5 -49t-20.5 -49.5t-49.5 -20.5t-49 20.5t-20 49.5zM265 611q0 29 20.5 49t49.5 20t49 -20t20 -49t-20 -49.5t-49 -20.5t-49.5 20.5t-20.5 49.5z" />
<glyph unicode="&#xa9;" horiz-adv-x="842" d="M48 354q0 78 29.5 146t80 118.5t118.5 80t145 29.5t145 -29.5t118.5 -80t80 -118.5t29.5 -146q0 -77 -29.5 -145t-80 -118.5t-118.5 -80t-145 -29.5t-145 29.5t-118.5 80t-80 118.5t-29.5 145zM102 354q0 -66 25 -124t68 -101.5t101.5 -68.5t124.5 -25t124 25t101.5 68.5 t68.5 101.5t25 124t-25 124.5t-68.5 102t-101.5 68.5t-124 25t-124.5 -25t-101.5 -68.5t-68 -102t-25 -124.5zM183 356q0 50 17.5 94.5t49.5 77.5t77 52.5t101 19.5q60 0 106 -20t87 -65l-72 -71q-20 24 -50 41t-72 17q-27 0 -52.5 -9.5t-45 -27.5t-31 -45.5t-11.5 -63.5 q0 -32 10.5 -58.5t29.5 -46t45.5 -30.5t57.5 -11q38 0 67 15t52 41l72 -67q-34 -38 -82 -62.5t-110 -24.5q-52 0 -97 17t-78 48.5t-52 77t-19 101.5z" />
<glyph unicode="&#xaa;" horiz-adv-x="569" d="M69 532q0 42 13 77t36 59.5t54.5 38t69.5 13.5q78 0 116 -52v45h103v-358h-103v37q-20 -26 -49.5 -36.5t-67.5 -10.5q-40 0 -72 15t-54 40.5t-34 59.5t-12 72zM90 200v96h381v-96h-381zM175 532q0 -45 26.5 -73.5t66.5 -28.5q45 0 68 29.5t23 70.5q0 48 -27 74.5 t-66 26.5q-40 0 -65.5 -29t-25.5 -70z" />
<glyph unicode="&#xab;" horiz-adv-x="440" d="M24 226l146 213l67 -48l-113 -163l114 -155l-72 -46zM203 228l142 206l70 -45l-113 -159l114 -152l-72 -46z" />
<glyph unicode="&#xac;" horiz-adv-x="675" d="M26 238v105h612v-307h-106v202h-506z" />
<glyph unicode="&#xad;" horiz-adv-x="361" d="M43 216v96h275v-96h-275z" />
<glyph unicode="&#xae;" horiz-adv-x="842" d="M88 455q0 67 25.5 126t69.5 103t103 69.5t126 25.5t126 -25.5t103 -69.5t69.5 -103t25.5 -126t-25.5 -126t-69.5 -103t-103 -69.5t-126 -25.5t-126 25.5t-103 69.5t-69.5 103t-25.5 126zM150 455q0 -54 20.5 -102t56.5 -83.5t83.5 -56t101.5 -20.5t102 20.5t84 56 t56.5 83.5t20.5 102t-20.5 102t-56.5 83.5t-84 56t-102 20.5t-101.5 -20.5t-83.5 -56t-56.5 -83.5t-20.5 -102zM291 268v383h119q71 0 106 -31t35 -76q0 -84 -92 -107l106 -169h-95l-94 161h-5v-161h-80zM371 485h22q31 0 51.5 10.5t20.5 44.5q0 51 -65 51h-29v-106z" />
<glyph unicode="&#xaf;" horiz-adv-x="470" d="M92 556v94h285v-94h-285z" />
<glyph unicode="&#xb0;" horiz-adv-x="369" d="M13 585q0 35 13.5 66t37 54t55 36t66.5 13t66 -13t54 -35.5t36.5 -53.5t13.5 -66t-13.5 -65.5t-37 -53.5t-54.5 -36t-66 -13t-66.5 13t-54.5 35.5t-36.5 53t-13.5 65.5zM113 586q0 -29 21 -50.5t51 -21.5q29 0 49.5 21t20.5 50q0 30 -21 51t-50 21q-30 0 -50.5 -20.5 t-20.5 -50.5z" />
<glyph unicode="&#xb1;" horiz-adv-x="675" d="M51 0v105h573v-105h-573zM51 369v104h233v208h107v-208h233v-104h-233v-210h-107v210h-233z" />
<glyph unicode="&#xb2;" horiz-adv-x="368" d="M32 557q-2 73 37.5 115.5t110.5 42.5q37 0 64.5 -11t45.5 -29.5t26.5 -42.5t8.5 -49q0 -27 -10 -51.5t-28 -47t-43.5 -44.5t-56.5 -45h145v-81h-293v45l107 99q24 22 41 39t27.5 30.5t15.5 25.5t5 26q0 26 -14.5 42.5t-43.5 16.5q-35 0 -47.5 -24t-10.5 -57h-87z" />
<glyph unicode="&#xb3;" horiz-adv-x="354" d="M32 439h86q2 -62 57 -62q27 0 41.5 15.5t14.5 37.5q0 23 -15.5 39t-54.5 16h-21v64h18q34 0 48.5 14.5t14.5 34.5q0 21 -13 33.5t-34 12.5q-24 0 -37 -14t-11 -41h-84q1 57 35.5 92t99.5 35q63 0 97.5 -33.5t34.5 -81.5q0 -54 -47 -79q26 -9 43 -35t17 -54 q0 -24 -9.5 -47t-28 -41t-46 -28.5t-64.5 -10.5q-63 0 -101.5 36t-40.5 97z" />
<glyph unicode="&#xb4;" horiz-adv-x="470" d="M123 556l134 149l90 -68l-159 -128z" />
<glyph unicode="&#xb5;" horiz-adv-x="548" d="M66 -201v639h113v-224q0 -54 23 -89.5t73 -35.5q25 0 42.5 11t29 29t17 41t5.5 47v221h113v-438h-109v53q-11 -24 -35.5 -45t-64.5 -21q-39 0 -61.5 19t-32.5 38v-245h-113z" />
<glyph unicode="&#xb6;" horiz-adv-x="664" d="M83 504q0 42 16 79.5t44 65.5t66 44t81 16h294v-80h-61v-797h-92v797h-86v-797h-92v471q-38 7 -69 25t-53.5 45t-35 60.5t-12.5 70.5z" />
<glyph unicode="&#xb7;" horiz-adv-x="236" d="M37 291q0 34 23.5 57t56.5 23t56.5 -23t23.5 -57q0 -33 -23.5 -56.5t-56.5 -23.5t-56.5 23.5t-23.5 56.5z" />
<glyph unicode="&#xb8;" horiz-adv-x="470" d="M141 -169l101 134l88 -52l-122 -135z" />
<glyph unicode="&#xb9;" horiz-adv-x="235" d="M18 628v81h167v-395h-91v314h-76z" />
<glyph unicode="&#xba;" horiz-adv-x="574" d="M82 532q0 39 15 74t41.5 60.5t62.5 40.5t78 15t78 -14.5t63 -39.5t42 -60t15 -75q0 -38 -14.5 -72.5t-41 -60.5t-63.5 -41.5t-82 -15.5q-41 0 -76.5 14t-61.5 39.5t-41 60t-15 75.5zM90 200v96h381v-96h-381zM185 532q0 -21 7.5 -39t20.5 -31.5t30 -21t37 -7.5 q41 0 67 29.5t26 69.5q0 21 -7.5 39t-20 31.5t-30 21.5t-37.5 8q-42 0 -67.5 -29.5t-25.5 -70.5z" />
<glyph unicode="&#xbb;" horiz-adv-x="440" d="M22 79l115 160l-114 151l71 45l141 -196l-141 -207zM200 395l71 45l143 -201l-144 -211l-69 48l113 163z" />
<glyph unicode="&#xbc;" horiz-adv-x="793" d="M55 628v81h167v-395h-89v314h-78zM129 5l398 729l63 -32l-399 -731zM413 70v71l152 254h110v-249h58v-76h-58v-70h-86v70h-176zM501 145h88v152z" />
<glyph unicode="&#xbd;" horiz-adv-x="826" d="M55 628v81h167v-395h-89v314h-78zM129 5l398 729l63 -32l-399 -731zM455 242q-2 74 37.5 116t109.5 42q37 0 64.5 -11t45.5 -29.5t27 -42t9 -48.5q0 -27 -10 -51.5t-28 -47t-43.5 -44.5t-56.5 -45h145v-81h-293v44l107 100l41 38q17 16 27.5 30t15.5 26.5t5 26.5 q0 25 -15 41.5t-44 16.5q-34 0 -46.5 -24t-10.5 -57h-87z" />
<glyph unicode="&#xbe;" horiz-adv-x="890" d="M56 438h86q0 -61 57 -61q27 0 41 15t14 37q0 23 -15 39.5t-54 16.5h-22v63h19q34 0 48 14.5t14 35.5q0 20 -13 32.5t-34 12.5q-50 0 -48 -55h-83q1 57 35.5 92.5t98.5 35.5q63 0 98 -33.5t35 -81.5q0 -53 -48 -80q27 -9 43.5 -34.5t16.5 -54.5q0 -24 -9.5 -47t-28 -40.5 t-46 -28.5t-63.5 -11q-63 0 -101.5 36.5t-40.5 96.5zM227 5l398 729l62 -32l-398 -731zM513 70v71l152 254h109v-249h58v-76h-58v-70h-86v70h-175zM601 145h88v152z" />
<glyph unicode="&#xbf;" horiz-adv-x="538" d="M55 198q0 39 12.5 72.5t35 59t53 42.5t66.5 23v109h115v-193h-50q-27 0 -48 -8.5t-36 -23.5t-22.5 -34.5t-7.5 -41.5q0 -23 8.5 -42.5t22.5 -34.5t33.5 -23.5t42.5 -8.5q22 0 42 8.5t34.5 24t22.5 36.5t7 46h105q1 -46 -14 -86t-43.5 -70t-69 -47t-89.5 -17 q-51 0 -91.5 16.5t-69 44.5t-44 66t-15.5 82zM201 644q0 32 22.5 54.5t54.5 22.5t54.5 -22.5t22.5 -54.5t-22.5 -54.5t-54.5 -22.5t-54.5 22.5t-22.5 54.5z" />
<glyph unicode="&#xc0;" horiz-adv-x="701" d="M9 0l278 709h122l284 -709h-136l-62 165h-294l-61 -165h-131zM240 272h215l-62 166l-13 35l-15 44l-18 53l-17 -53l-16 -43l-12 -36zM213 847l88 74l144 -120l-56 -56z" />
<glyph unicode="&#xc1;" horiz-adv-x="701" d="M9 0l278 709h122l284 -709h-136l-62 165h-294l-61 -165h-131zM240 272h215l-62 166l-13 35l-15 44l-18 53l-17 -53l-16 -43l-12 -36zM263 800l142 120l88 -74l-175 -103z" />
<glyph unicode="&#xc2;" horiz-adv-x="701" d="M9 0l278 709h122l284 -709h-136l-62 165h-294l-61 -165h-131zM240 272h215l-62 166l-13 35l-15 44l-18 53l-17 -53l-16 -43l-12 -36zM179 814l172 91l172 -89l-43 -70l-129 61l-130 -61z" />
<glyph unicode="&#xc3;" horiz-adv-x="701" d="M9 0l278 709h122l284 -709h-136l-62 165h-294l-61 -165h-131zM240 272h215l-62 166l-13 35l-15 44l-18 53l-17 -53l-16 -43l-12 -36zM152 765q0 57 31 94.5t85 37.5q25 0 44.5 -8t37.5 -18t34.5 -18t35.5 -8q18 0 29 12.5t11 34.5h84q0 -60 -33 -96.5t-87 -36.5 q-24 0 -44 9q-22 8 -40 18l-34 18q-16 8 -33 8t-28 -13.5t-11 -33.5h-82z" />
<glyph unicode="&#xc4;" horiz-adv-x="701" d="M9 0l278 709h122l284 -709h-136l-62 165h-294l-61 -165h-131zM240 272h215l-62 166l-13 35l-15 44l-18 53l-17 -53l-16 -43l-12 -36zM179 827q0 29 20 49t49 20t49.5 -20t20.5 -49t-20.5 -49.5t-49.5 -20.5t-49 20.5t-20 49.5zM379 827q0 29 20.5 49t49.5 20t49 -20 t20 -49t-20 -49.5t-49 -20.5t-49.5 20.5t-20.5 49.5z" />
<glyph unicode="&#xc5;" horiz-adv-x="701" d="M9 0l270 688q-19 14 -30 35.5t-11 47.5q0 22 8.5 42t23.5 34t35 22.5t43 8.5t43 -8.5t35 -22.5t23.5 -34t8.5 -42q0 -26 -11 -47.5t-30 -36.5l276 -687h-136l-62 165h-294l-61 -165h-131zM240 272h215l-62 166l-13 35l-15 44l-18 53l-17 -53l-16 -43l-12 -36zM301 771 q0 -20 13.5 -34t33.5 -14t33.5 14t13.5 34t-13.5 33.5t-33.5 13.5t-33.5 -13.5t-13.5 -33.5z" />
<glyph unicode="&#xc6;" horiz-adv-x="926" d="M5 0l307 709h385l37 -113h-253l55 -176h244l35 -111h-243l62 -196h255l37 -113h-389l-49 162h-285l-66 -162h-132zM247 269h209l-52 169l-15 49l-13 42l-10 37l-25 -66l-25 -62z" />
<glyph unicode="&#xc7;" horiz-adv-x="645" d="M43 350q0 81 27 148.5t75 116.5t114.5 76.5t145.5 27.5q105 0 187 -38v-134q-35 26 -84.5 42.5t-102.5 16.5q-49 0 -91.5 -18t-73.5 -51t-49 -79.5t-18 -104.5q0 -52 16.5 -97.5t47.5 -79.5t75.5 -53.5t99.5 -19.5q56 0 102.5 14.5t81.5 40.5v-127q-39 -20 -90 -31 t-107 -11q-80 0 -145.5 28t-112.5 77t-72.5 115t-25.5 141zM237 -169l101 134l88 -52l-122 -135z" />
<glyph unicode="&#xc8;" horiz-adv-x="544" d="M82 0v709h387v-113h-263v-176h255v-111h-255v-196h264v-113h-388zM130 847l88 74l144 -120l-56 -56z" />
<glyph unicode="&#xc9;" horiz-adv-x="544" d="M82 0v709h387v-113h-263v-176h255v-111h-255v-196h264v-113h-388zM214 800l142 120l88 -74l-175 -103z" />
<glyph unicode="&#xca;" horiz-adv-x="544" d="M82 0v709h387v-113h-263v-176h255v-111h-255v-196h264v-113h-388zM113 814l172 91l172 -89l-43 -70l-129 61l-130 -61z" />
<glyph unicode="&#xcb;" horiz-adv-x="544" d="M82 0v709h387v-113h-263v-176h255v-111h-255v-196h264v-113h-388zM115 827q0 29 20 49t49 20t49.5 -20t20.5 -49t-20.5 -49.5t-49.5 -20.5t-49 20.5t-20 49.5zM315 827q0 29 20.5 49t49.5 20t49 -20t20 -49t-20 -49.5t-49 -20.5t-49.5 20.5t-20.5 49.5z" />
<glyph unicode="&#xcc;" horiz-adv-x="288" d="M82 0v709h124v-709h-124zM-7 847l88 74l144 -120l-56 -56z" />
<glyph unicode="&#xcd;" horiz-adv-x="288" d="M82 0v709h124v-709h-124zM65 800l142 120l88 -74l-175 -103z" />
<glyph unicode="&#xce;" horiz-adv-x="288" d="M82 0v709h124v-709h-124zM-24 814l172 91l172 -89l-43 -70l-129 61l-130 -61z" />
<glyph unicode="&#xcf;" horiz-adv-x="288" d="M82 0v709h124v-709h-124zM-24 827q0 29 20 49t49 20t49.5 -20t20.5 -49t-20.5 -49.5t-49.5 -20.5t-49 20.5t-20 49.5zM176 827q0 29 20.5 49t49.5 20t49 -20t20 -49t-20 -49.5t-49 -20.5t-49.5 20.5t-20.5 49.5z" />
<glyph unicode="&#xd0;" horiz-adv-x="693" d="M29 312v100h64v297h186q177 0 272 -95q48 -48 73 -110.5t25 -143.5t-26 -146.5t-75 -114.5q-99 -99 -287 -99h-168v312h-64zM215 104h52q125 0 186 61q31 31 48.5 78t17.5 112q0 59 -17 107t-49 80q-35 35 -81 49.5t-105 14.5h-52v-194h73v-100h-73v-208z" />
<glyph unicode="&#xd1;" horiz-adv-x="779" d="M82 0v709h114l293 -392l52 -73l46 -69q-2 61 -3.5 117.5t-1.5 116.5v300h114v-709h-112l-309 412l-43 60l-41 60q2 -50 3 -98t4 -98v-336h-116zM199 765q0 57 31 94.5t85 37.5q25 0 44.5 -8t37.5 -18t34.5 -18t35.5 -8q18 0 29 12.5t11 34.5h84q0 -60 -33 -96.5 t-87 -36.5q-24 0 -44 9q-22 8 -40 18l-34 18q-16 8 -33 8t-28 -13.5t-11 -33.5h-82z" />
<glyph unicode="&#xd2;" horiz-adv-x="826" d="M40 353q0 76 29.5 143.5t80.5 118t119 80t145 29.5q78 0 146 -28.5t118.5 -78.5t79.5 -117.5t29 -145.5q0 -77 -30 -144t-81 -117.5t-119 -79.5t-145 -29q-78 0 -145.5 28.5t-118 78.5t-79.5 117.5t-29 144.5zM167 355q0 -52 19 -98t52 -80.5t78 -54.5t97 -20 q53 0 98 19.5t78 53.5t51.5 80t18.5 99t-18 99.5t-51 81t-78 54t-99 19.5q-53 0 -98 -20t-78 -54.5t-51.5 -80.5t-18.5 -98zM281 847l88 74l144 -120l-56 -56z" />
<glyph unicode="&#xd3;" horiz-adv-x="826" d="M40 353q0 76 29.5 143.5t80.5 118t119 80t145 29.5q78 0 146 -28.5t118.5 -78.5t79.5 -117.5t29 -145.5q0 -77 -30 -144t-81 -117.5t-119 -79.5t-145 -29q-78 0 -145.5 28.5t-118 78.5t-79.5 117.5t-29 144.5zM167 355q0 -52 19 -98t52 -80.5t78 -54.5t97 -20 q53 0 98 19.5t78 53.5t51.5 80t18.5 99t-18 99.5t-51 81t-78 54t-99 19.5q-53 0 -98 -20t-78 -54.5t-51.5 -80.5t-18.5 -98zM312 800l142 120l88 -74l-175 -103z" />
<glyph unicode="&#xd4;" horiz-adv-x="826" d="M40 353q0 76 29.5 143.5t80.5 118t119 80t145 29.5q78 0 146 -28.5t118.5 -78.5t79.5 -117.5t29 -145.5q0 -77 -30 -144t-81 -117.5t-119 -79.5t-145 -29q-78 0 -145.5 28.5t-118 78.5t-79.5 117.5t-29 144.5zM167 355q0 -52 19 -98t52 -80.5t78 -54.5t97 -20 q53 0 98 19.5t78 53.5t51.5 80t18.5 99t-18 99.5t-51 81t-78 54t-99 19.5q-53 0 -98 -20t-78 -54.5t-51.5 -80.5t-18.5 -98zM245 814l172 91l172 -89l-43 -70l-129 61l-130 -61z" />
<glyph unicode="&#xd5;" horiz-adv-x="826" d="M40 353q0 76 29.5 143.5t80.5 118t119 80t145 29.5q78 0 146 -28.5t118.5 -78.5t79.5 -117.5t29 -145.5q0 -77 -30 -144t-81 -117.5t-119 -79.5t-145 -29q-78 0 -145.5 28.5t-118 78.5t-79.5 117.5t-29 144.5zM167 355q0 -52 19 -98t52 -80.5t78 -54.5t97 -20 q53 0 98 19.5t78 53.5t51.5 80t18.5 99t-18 99.5t-51 81t-78 54t-99 19.5q-53 0 -98 -20t-78 -54.5t-51.5 -80.5t-18.5 -98zM214 765q0 57 31 94.5t85 37.5q25 0 44.5 -8t37.5 -18t34.5 -18t35.5 -8q18 0 29 12.5t11 34.5h84q0 -60 -33 -96.5t-87 -36.5q-24 0 -44 9 q-22 8 -40 18l-34 18q-16 8 -33 8t-28 -13.5t-11 -33.5h-82z" />
<glyph unicode="&#xd6;" horiz-adv-x="826" d="M40 353q0 76 29.5 143.5t80.5 118t119 80t145 29.5q78 0 146 -28.5t118.5 -78.5t79.5 -117.5t29 -145.5q0 -77 -30 -144t-81 -117.5t-119 -79.5t-145 -29q-78 0 -145.5 28.5t-118 78.5t-79.5 117.5t-29 144.5zM167 355q0 -52 19 -98t52 -80.5t78 -54.5t97 -20 q53 0 98 19.5t78 53.5t51.5 80t18.5 99t-18 99.5t-51 81t-78 54t-99 19.5q-53 0 -98 -20t-78 -54.5t-51.5 -80.5t-18.5 -98zM244 827q0 29 20 49t49 20t49.5 -20t20.5 -49t-20.5 -49.5t-49.5 -20.5t-49 20.5t-20 49.5zM444 827q0 29 20.5 49t49.5 20t49 -20t20 -49 t-20 -49.5t-49 -20.5t-49.5 20.5t-20.5 49.5z" />
<glyph unicode="&#xd7;" horiz-adv-x="675" d="M68 100l192 191l-192 192l73 72l192 -191l192 191l74 -72l-191 -192l191 -191l-74 -75l-192 191l-192 -191z" />
<glyph unicode="&#xd8;" horiz-adv-x="831" d="M31 28l92 92q-39 48 -60.5 106.5t-21.5 126.5q0 76 29.5 143.5t80.5 118t119 80t145 29.5q66 0 125.5 -21t107.5 -59l85 85l50 -49l-84 -84q42 -48 65.5 -109.5t23.5 -132.5q0 -77 -30 -144t-81 -117.5t-119 -79.5t-145 -29q-69 0 -130 22.5t-112 63.5l-91 -91zM166 355 q0 -40 11.5 -77.5t33.5 -68.5l353 352q-30 23 -67.5 36.5t-82.5 13.5q-54 0 -99.5 -20.5t-78.5 -55.5t-51.5 -81.5t-18.5 -98.5zM257 156q32 -26 71.5 -41.5t85.5 -15.5q54 0 99.5 19.5t78.5 54t51.5 81t18.5 100.5q0 91 -49 157z" />
<glyph unicode="&#xd9;" horiz-adv-x="713" d="M80 264v445h124v-435q0 -50 9 -82t33 -56q19 -19 46.5 -30t65.5 -11q36 0 63.5 10.5t46.5 28.5q21 21 32.5 52t11.5 80v443h121v-431q0 -75 -19.5 -128.5t-56.5 -91.5q-38 -38 -90.5 -54.5t-111.5 -16.5q-63 0 -115.5 18t-90.5 56q-32 31 -50.5 79.5t-18.5 123.5z M181 847l88 74l144 -120l-56 -56z" />
<glyph unicode="&#xda;" horiz-adv-x="713" d="M80 264v445h124v-435q0 -50 9 -82t33 -56q19 -19 46.5 -30t65.5 -11q36 0 63.5 10.5t46.5 28.5q21 21 32.5 52t11.5 80v443h121v-431q0 -75 -19.5 -128.5t-56.5 -91.5q-38 -38 -90.5 -54.5t-111.5 -16.5q-63 0 -115.5 18t-90.5 56q-32 31 -50.5 79.5t-18.5 123.5z M258 800l142 120l88 -74l-175 -103z" />
<glyph unicode="&#xdb;" horiz-adv-x="713" d="M80 264v445h124v-435q0 -50 9 -82t33 -56q19 -19 46.5 -30t65.5 -11q36 0 63.5 10.5t46.5 28.5q21 21 32.5 52t11.5 80v443h121v-431q0 -75 -19.5 -128.5t-56.5 -91.5q-38 -38 -90.5 -54.5t-111.5 -16.5q-63 0 -115.5 18t-90.5 56q-32 31 -50.5 79.5t-18.5 123.5z M189 814l172 91l172 -89l-43 -70l-129 61l-130 -61z" />
<glyph unicode="&#xdc;" horiz-adv-x="713" d="M80 264v445h124v-435q0 -50 9 -82t33 -56q19 -19 46.5 -30t65.5 -11q36 0 63.5 10.5t46.5 28.5q21 21 32.5 52t11.5 80v443h121v-431q0 -75 -19.5 -128.5t-56.5 -91.5q-38 -38 -90.5 -54.5t-111.5 -16.5q-63 0 -115.5 18t-90.5 56q-32 31 -50.5 79.5t-18.5 123.5z M188 827q0 29 20 49t49 20t49.5 -20t20.5 -49t-20.5 -49.5t-49.5 -20.5t-49 20.5t-20 49.5zM388 827q0 29 20.5 49t49.5 20t49 -20t20 -49t-20 -49.5t-49 -20.5t-49.5 20.5t-20.5 49.5z" />
<glyph unicode="&#xdd;" horiz-adv-x="604" d="M9 709h142l154 -288l154 288h137l-233 -388v-321h-124v317zM230 800l142 120l88 -74l-175 -103z" />
<glyph unicode="&#xde;" horiz-adv-x="544" d="M85 0v709h123v-138h57q66 0 116 -13.5t85 -48.5q26 -26 40 -64t14 -84q0 -45 -15 -83t-43 -66q-35 -35 -85.5 -52t-113.5 -17h-55v-143h-123zM208 249h56q67 0 100 33q14 14 21 33.5t7 40.5q0 23 -6 43.5t-19 33.5q-16 16 -38.5 24t-60.5 8h-60v-216z" />
<glyph unicode="&#xdf;" horiz-adv-x="550" d="M63 0v555q0 41 11 77t34.5 63t60.5 42.5t89 15.5q43 0 77.5 -12.5t57.5 -34.5t35.5 -52t12.5 -65q0 -38 -11.5 -62.5t-25 -44.5t-24.5 -39t-11 -44q0 -17 11 -30.5t27 -27t35.5 -28t35.5 -34t27 -45.5t11 -61q0 -42 -14 -75t-38 -56.5t-56.5 -35.5t-69.5 -12 q-32 0 -59 7.5t-49 21.5l39 91q26 -23 64 -23q25 0 45.5 18.5t20.5 53.5q0 24 -11 40.5t-27 30t-35 27t-35 30.5t-27 40t-11 57q0 36 11 60t24.5 44t25 40.5t11.5 49.5q0 30 -19 52.5t-54 22.5q-38 0 -56.5 -26t-18.5 -65v-566h-114z" />
<glyph unicode="&#xe0;" d="M41 214q0 51 16 94t44.5 74.5t68.5 49.5t88 18q46 0 83.5 -18.5t59.5 -49.5v56h113v-438h-113v54q-25 -30 -62.5 -48t-86.5 -18q-47 0 -86 17t-66.5 47t-43 71.5t-15.5 90.5zM158 218q0 -28 9.5 -53t26 -43.5t39.5 -29.5t50 -11q28 0 51 10.5t39 28.5t24.5 42.5t8.5 52.5 q0 59 -35 97t-91 38q-26 0 -48 -10t-38.5 -27.5t-26 -42t-9.5 -52.5zM136 636l89 69l135 -150l-65 -46z" />
<glyph unicode="&#xe1;" d="M41 214q0 51 16 94t44.5 74.5t68.5 49.5t88 18q46 0 83.5 -18.5t59.5 -49.5v56h113v-438h-113v54q-25 -30 -62.5 -48t-86.5 -18q-47 0 -86 17t-66.5 47t-43 71.5t-15.5 90.5zM158 218q0 -28 9.5 -53t26 -43.5t39.5 -29.5t50 -11q28 0 51 10.5t39 28.5t24.5 42.5t8.5 52.5 q0 59 -35 97t-91 38q-26 0 -48 -10t-38.5 -27.5t-26 -42t-9.5 -52.5zM228 556l134 149l90 -68l-159 -128z" />
<glyph unicode="&#xe2;" d="M41 214q0 51 16 94t44.5 74.5t68.5 49.5t88 18q46 0 83.5 -18.5t59.5 -49.5v56h113v-438h-113v54q-25 -30 -62.5 -48t-86.5 -18q-47 0 -86 17t-66.5 47t-43 71.5t-15.5 90.5zM158 218q0 -28 9.5 -53t26 -43.5t39.5 -29.5t50 -11q28 0 51 10.5t39 28.5t24.5 42.5t8.5 52.5 q0 59 -35 97t-91 38q-26 0 -48 -10t-38.5 -27.5t-26 -42t-9.5 -52.5zM128 576l169 135l159 -132l-54 -65l-109 85l-109 -86z" />
<glyph unicode="&#xe3;" d="M41 214q0 51 16 94t44.5 74.5t68.5 49.5t88 18q46 0 83.5 -18.5t59.5 -49.5v56h113v-438h-113v54q-25 -30 -62.5 -48t-86.5 -18q-47 0 -86 17t-66.5 47t-43 71.5t-15.5 90.5zM158 218q0 -28 9.5 -53t26 -43.5t39.5 -29.5t50 -11q28 0 51 10.5t39 28.5t24.5 42.5t8.5 52.5 q0 59 -35 97t-91 38q-26 0 -48 -10t-38.5 -27.5t-26 -42t-9.5 -52.5zM97 538q0 57 31 94.5t85 37.5q25 0 44.5 -8t37 -18t34.5 -18t35 -8q19 0 30 12.5t11 34.5h84q0 -60 -33 -96.5t-87 -36.5q-24 0 -45 8q-20 8 -38 18l-36 18q-16 8 -32 9q-17 0 -28 -13.5t-11 -33.5h-82z " />
<glyph unicode="&#xe4;" d="M41 214q0 51 16 94t44.5 74.5t68.5 49.5t88 18q46 0 83.5 -18.5t59.5 -49.5v56h113v-438h-113v54q-25 -30 -62.5 -48t-86.5 -18q-47 0 -86 17t-66.5 47t-43 71.5t-15.5 90.5zM158 218q0 -28 9.5 -53t26 -43.5t39.5 -29.5t50 -11q28 0 51 10.5t39 28.5t24.5 42.5t8.5 52.5 q0 59 -35 97t-91 38q-26 0 -48 -10t-38.5 -27.5t-26 -42t-9.5 -52.5zM129 611q0 29 20 49t49 20t49.5 -20t20.5 -49t-20.5 -49.5t-49.5 -20.5t-49 20.5t-20 49.5zM329 611q0 29 20.5 49t49.5 20t49 -20t20 -49t-20 -49.5t-49 -20.5t-49.5 20.5t-20.5 49.5z" />
<glyph unicode="&#xe5;" d="M41 214q0 51 16 94t44.5 74.5t68.5 49.5t88 18q46 0 83.5 -18.5t59.5 -49.5v56h113v-438h-113v54q-25 -30 -62.5 -48t-86.5 -18q-47 0 -86 17t-66.5 47t-43 71.5t-15.5 90.5zM158 218q0 -28 9.5 -53t26 -43.5t39.5 -29.5t50 -11q28 0 51 10.5t39 28.5t24.5 42.5t8.5 52.5 q0 59 -35 97t-91 38q-26 0 -48 -10t-38.5 -27.5t-26 -42t-9.5 -52.5zM188 614q0 23 8.5 42.5t23.5 34t35 23t43 8.5t43 -8.5t35 -23t23.5 -34t8.5 -42.5t-9 -42.5t-24 -33.5t-35 -22.5t-42 -8.5q-23 0 -43 8t-35 22.5t-23.5 34t-8.5 42.5zM251 614q0 -20 13.5 -33.5 t33.5 -13.5t33.5 13.5t13.5 33.5t-13.5 34t-33.5 14t-33.5 -14t-13.5 -34z" />
<glyph unicode="&#xe6;" horiz-adv-x="811" d="M37 130q0 28 10 52.5t33 43t59 29t89 10.5h117q-2 19 -10 36.5t-22 31.5t-35 22.5t-48 8.5q-34 0 -61.5 -14t-46.5 -37l-73 58q32 33 79 56.5t111 23.5q53 0 93 -19t66 -48q29 32 68.5 49.5t87.5 17.5t88 -15.5t68.5 -44.5t44.5 -71t16 -94q0 -8 -0.5 -17.5t-0.5 -20.5 h-325q3 -48 36.5 -80t85.5 -32q37 0 67 16t53 45l75 -53q-38 -48 -87.5 -72.5t-119.5 -24.5q-50 0 -93.5 20t-73.5 55q-26 -32 -68 -53.5t-94 -21.5q-48 0 -84 11t-59 30.5t-34.5 45.5t-11.5 56zM146 132q0 -24 22 -41t61 -17q49 0 82.5 31t33.5 82h-118q-42 0 -61.5 -15 t-19.5 -40zM446 266h210q0 19 -7.5 37.5t-21 32t-32.5 22t-43 8.5q-23 0 -41.5 -8t-32 -22t-22 -32t-10.5 -38z" />
<glyph unicode="&#xe7;" horiz-adv-x="441" d="M41 216q0 45 16.5 87.5t47 74.5t75 51.5t100.5 19.5q31 0 62.5 -6t55.5 -17v-107q-20 12 -49 20.5t-58 8.5q-28 0 -52 -9.5t-41 -26.5t-27 -40.5t-10 -51.5q0 -27 9 -50.5t26 -41.5t41 -28.5t54 -10.5q29 0 57 8t50 24v-108q-23 -10 -56.5 -17.5t-69.5 -7.5 q-57 0 -100 19t-72 51t-44 73t-15 85zM129 -169l101 134l88 -52l-122 -135z" />
<glyph unicode="&#xe8;" horiz-adv-x="520" d="M41 217q0 52 17 95t47 74t70.5 48t87.5 17q48 0 87.5 -15.5t68.5 -44.5t45 -71t16 -94q0 -9 -0.5 -18t-0.5 -19h-325q1 -24 10.5 -44.5t25.5 -36t37.5 -24t47.5 -8.5q38 0 68 16.5t53 45.5l75 -53q-38 -49 -88 -73.5t-119 -24.5q-46 0 -86.5 15.5t-71 44.5t-48 72 t-17.5 98zM155 265h209q0 20 -7 38t-20.5 32t-32.5 22.5t-43 8.5q-46 0 -74 -30t-32 -71zM115 636l89 69l135 -150l-65 -46z" />
<glyph unicode="&#xe9;" horiz-adv-x="520" d="M41 217q0 52 17 95t47 74t70.5 48t87.5 17q48 0 87.5 -15.5t68.5 -44.5t45 -71t16 -94q0 -9 -0.5 -18t-0.5 -19h-325q1 -24 10.5 -44.5t25.5 -36t37.5 -24t47.5 -8.5q38 0 68 16.5t53 45.5l75 -53q-38 -49 -88 -73.5t-119 -24.5q-46 0 -86.5 15.5t-71 44.5t-48 72 t-17.5 98zM155 265h209q0 20 -7 38t-20.5 32t-32.5 22.5t-43 8.5q-46 0 -74 -30t-32 -71zM186 556l134 149l90 -68l-159 -128z" />
<glyph unicode="&#xea;" horiz-adv-x="520" d="M41 217q0 52 17 95t47 74t70.5 48t87.5 17q48 0 87.5 -15.5t68.5 -44.5t45 -71t16 -94q0 -9 -0.5 -18t-0.5 -19h-325q1 -24 10.5 -44.5t25.5 -36t37.5 -24t47.5 -8.5q38 0 68 16.5t53 45.5l75 -53q-38 -49 -88 -73.5t-119 -24.5q-46 0 -86.5 15.5t-71 44.5t-48 72 t-17.5 98zM155 265h209q0 20 -7 38t-20.5 32t-32.5 22.5t-43 8.5q-46 0 -74 -30t-32 -71zM97 576l169 135l159 -132l-54 -65l-109 85l-109 -86z" />
<glyph unicode="&#xeb;" horiz-adv-x="520" d="M41 217q0 52 17 95t47 74t70.5 48t87.5 17q48 0 87.5 -15.5t68.5 -44.5t45 -71t16 -94q0 -9 -0.5 -18t-0.5 -19h-325q1 -24 10.5 -44.5t25.5 -36t37.5 -24t47.5 -8.5q38 0 68 16.5t53 45.5l75 -53q-38 -49 -88 -73.5t-119 -24.5q-46 0 -86.5 15.5t-71 44.5t-48 72 t-17.5 98zM155 265h209q0 20 -7 38t-20.5 32t-32.5 22.5t-43 8.5q-46 0 -74 -30t-32 -71zM93 611q0 29 20 49t49 20t49.5 -20t20.5 -49t-20.5 -49.5t-49.5 -20.5t-49 20.5t-20 49.5zM293 611q0 29 20.5 49t49.5 20t49 -20t20 -49t-20 -49.5t-49 -20.5t-49.5 20.5t-20.5 49.5 z" />
<glyph unicode="&#xec;" horiz-adv-x="248" d="M67 0v438h114v-438h-114zM-12 636l89 69l135 -150l-65 -46z" />
<glyph unicode="&#xed;" horiz-adv-x="248" d="M67 0v438h114v-438h-114zM45 556l134 149l90 -68l-159 -128z" />
<glyph unicode="&#xee;" horiz-adv-x="248" d="M67 0v438h114v-438h-114zM-41 576l169 135l159 -132l-54 -65l-109 85l-109 -86z" />
<glyph unicode="&#xef;" horiz-adv-x="248" d="M67 0v438h114v-438h-114zM-43 611q0 29 20 49t49 20t49.5 -20t20.5 -49t-20.5 -49.5t-49.5 -20.5t-49 20.5t-20 49.5zM157 611q0 29 20.5 49t49.5 20t49 -20t20 -49t-20 -49.5t-49 -20.5t-49.5 20.5t-20.5 49.5z" />
<glyph unicode="&#xf0;" horiz-adv-x="574" d="M35 218q0 47 16.5 89t45.5 73.5t70 50t89 18.5t84 -15t60 -43q-10 50 -34.5 95.5t-61.5 77.5l-105 -64l-46 78l68 42q-26 14 -56 24t-65 16l15 98q116 -20 209 -77l94 58l47 -79l-64 -38q64 -63 97.5 -148t33.5 -188q0 -67 -19 -122t-53.5 -94t-82.5 -60t-107 -21 q-51 0 -94 16.5t-74.5 47t-49 72.5t-17.5 93zM154 221q0 -28 9.5 -52t26.5 -42t39.5 -28t48.5 -10q54 0 88 37t34 95q0 59 -34.5 94.5t-88.5 35.5q-26 0 -48.5 -10.5t-39 -28t-26 -41t-9.5 -50.5z" />
<glyph unicode="&#xf1;" horiz-adv-x="538" d="M66 0v438h112v-58q18 24 51.5 45.5t88.5 21.5q41 0 69 -12t47 -30q22 -22 31.5 -53t9.5 -76v-276h-114v252q0 43 -18 70.5t-62 27.5q-17 0 -35 -6.5t-33 -20t-24.5 -34t-9.5 -49.5v-240h-113zM72 538q0 57 31 94.5t85 37.5q25 0 44.5 -8t37 -18t34.5 -18t35 -8 q19 0 30 12.5t11 34.5h84q0 -60 -33 -96.5t-87 -36.5q-24 0 -45 8q-20 8 -38 18l-36 18q-16 8 -32 9q-17 0 -28 -13.5t-11 -33.5h-82z" />
<glyph unicode="&#xf2;" horiz-adv-x="561" d="M41 218q0 48 18 90t50 73.5t76 50t96 18.5q51 0 95 -17.5t76 -48t50 -73t18 -92.5q0 -46 -17.5 -88t-49.5 -74t-77 -51t-100 -19q-50 0 -93 17t-74.5 48t-49.5 73.5t-18 92.5zM156 219q0 -28 10 -52t27 -41.5t39.5 -27.5t48.5 -10q27 0 49.5 10.5t39 28.5t25.5 41.5 t9 49.5q0 28 -9.5 52t-26.5 41.5t-40 27.5t-49 10q-27 0 -49.5 -10.5t-39 -28t-25.5 -41t-9 -50.5zM135 636l89 69l135 -150l-65 -46z" />
<glyph unicode="&#xf3;" horiz-adv-x="561" d="M41 218q0 48 18 90t50 73.5t76 50t96 18.5q51 0 95 -17.5t76 -48t50 -73t18 -92.5q0 -46 -17.5 -88t-49.5 -74t-77 -51t-100 -19q-50 0 -93 17t-74.5 48t-49.5 73.5t-18 92.5zM156 219q0 -28 10 -52t27 -41.5t39.5 -27.5t48.5 -10q27 0 49.5 10.5t39 28.5t25.5 41.5 t9 49.5q0 28 -9.5 52t-26.5 41.5t-40 27.5t-49 10q-27 0 -49.5 -10.5t-39 -28t-25.5 -41t-9 -50.5zM209 556l134 149l90 -68l-159 -128z" />
<glyph unicode="&#xf4;" horiz-adv-x="561" d="M41 218q0 48 18 90t50 73.5t76 50t96 18.5q51 0 95 -17.5t76 -48t50 -73t18 -92.5q0 -46 -17.5 -88t-49.5 -74t-77 -51t-100 -19q-50 0 -93 17t-74.5 48t-49.5 73.5t-18 92.5zM156 219q0 -28 10 -52t27 -41.5t39.5 -27.5t48.5 -10q27 0 49.5 10.5t39 28.5t25.5 41.5 t9 49.5q0 28 -9.5 52t-26.5 41.5t-40 27.5t-49 10q-27 0 -49.5 -10.5t-39 -28t-25.5 -41t-9 -50.5zM114 576l169 135l159 -132l-54 -65l-109 85l-109 -86z" />
<glyph unicode="&#xf5;" horiz-adv-x="561" d="M41 218q0 48 18 90t50 73.5t76 50t96 18.5q51 0 95 -17.5t76 -48t50 -73t18 -92.5q0 -46 -17.5 -88t-49.5 -74t-77 -51t-100 -19q-50 0 -93 17t-74.5 48t-49.5 73.5t-18 92.5zM156 219q0 -28 10 -52t27 -41.5t39.5 -27.5t48.5 -10q27 0 49.5 10.5t39 28.5t25.5 41.5 t9 49.5q0 28 -9.5 52t-26.5 41.5t-40 27.5t-49 10q-27 0 -49.5 -10.5t-39 -28t-25.5 -41t-9 -50.5zM82 538q0 57 31 94.5t85 37.5q25 0 44.5 -8t37 -18t34.5 -18t35 -8q19 0 30 12.5t11 34.5h84q0 -60 -33 -96.5t-87 -36.5q-24 0 -45 8q-20 8 -38 18l-36 18q-16 8 -32 9 q-17 0 -28 -13.5t-11 -33.5h-82z" />
<glyph unicode="&#xf6;" horiz-adv-x="561" d="M41 218q0 48 18 90t50 73.5t76 50t96 18.5q51 0 95 -17.5t76 -48t50 -73t18 -92.5q0 -46 -17.5 -88t-49.5 -74t-77 -51t-100 -19q-50 0 -93 17t-74.5 48t-49.5 73.5t-18 92.5zM156 219q0 -28 10 -52t27 -41.5t39.5 -27.5t48.5 -10q27 0 49.5 10.5t39 28.5t25.5 41.5 t9 49.5q0 28 -9.5 52t-26.5 41.5t-40 27.5t-49 10q-27 0 -49.5 -10.5t-39 -28t-25.5 -41t-9 -50.5zM109 611q0 29 20 49t49 20t49.5 -20t20.5 -49t-20.5 -49.5t-49.5 -20.5t-49 20.5t-20 49.5zM309 611q0 29 20.5 49t49.5 20t49 -20t20 -49t-20 -49.5t-49 -20.5t-49.5 20.5 t-20.5 49.5z" />
<glyph unicode="&#xf7;" horiz-adv-x="675" d="M47 235v105h581v-105h-581zM264 77q0 30 21.5 52t51.5 22q31 0 52.5 -22t21.5 -52q0 -31 -21.5 -52.5t-52.5 -21.5q-30 0 -51.5 21.5t-21.5 52.5zM264 498q0 30 21.5 52t51.5 22q31 0 52.5 -22t21.5 -52q0 -31 -21.5 -52.5t-52.5 -21.5q-30 0 -51.5 21.5t-21.5 52.5z" />
<glyph unicode="&#xf8;" horiz-adv-x="563" d="M41 19l52 53q-24 29 -37.5 66t-13.5 80q0 48 18 90t50.5 73.5t76.5 50t96 18.5q41 0 77 -11t65 -31l54 55l44 -47l-51 -52q23 -29 36 -65.5t13 -79.5q0 -46 -17.5 -88t-49.5 -74t-77 -51t-100 -19q-79 0 -137 41l-55 -56zM153 219q0 -20 5 -37t13 -32l179 184 q-30 21 -70 21q-28 0 -51.5 -11t-40 -29.5t-26 -43t-9.5 -52.5zM215 103q30 -21 68 -21q28 0 51 11t40 29.5t26.5 43t9.5 52.5q0 37 -17 68z" />
<glyph unicode="&#xf9;" horiz-adv-x="540" d="M63 202v236h114v-229q0 -26 3.5 -48.5t14 -39t29 -26.5t48.5 -10t47.5 10.5t27.5 28t13 39t3 43.5v232h114v-229q0 -54 -10.5 -96t-40.5 -72q-29 -29 -69 -41.5t-88 -12.5q-100 0 -157 57q-26 26 -37.5 64.5t-11.5 93.5zM122 636l89 69l135 -150l-65 -46z" />
<glyph unicode="&#xfa;" horiz-adv-x="540" d="M63 202v236h114v-229q0 -26 3.5 -48.5t14 -39t29 -26.5t48.5 -10t47.5 10.5t27.5 28t13 39t3 43.5v232h114v-229q0 -54 -10.5 -96t-40.5 -72q-29 -29 -69 -41.5t-88 -12.5q-100 0 -157 57q-26 26 -37.5 64.5t-11.5 93.5zM205 556l134 149l90 -68l-159 -128z" />
<glyph unicode="&#xfb;" horiz-adv-x="540" d="M63 202v236h114v-229q0 -26 3.5 -48.5t14 -39t29 -26.5t48.5 -10t47.5 10.5t27.5 28t13 39t3 43.5v232h114v-229q0 -54 -10.5 -96t-40.5 -72q-29 -29 -69 -41.5t-88 -12.5q-100 0 -157 57q-26 26 -37.5 64.5t-11.5 93.5zM104 576l169 135l159 -132l-54 -65l-109 85 l-109 -86z" />
<glyph unicode="&#xfc;" horiz-adv-x="540" d="M63 202v236h114v-229q0 -26 3.5 -48.5t14 -39t29 -26.5t48.5 -10t47.5 10.5t27.5 28t13 39t3 43.5v232h114v-229q0 -54 -10.5 -96t-40.5 -72q-29 -29 -69 -41.5t-88 -12.5q-100 0 -157 57q-26 26 -37.5 64.5t-11.5 93.5zM99 611q0 29 20 49t49 20t49.5 -20t20.5 -49 t-20.5 -49.5t-49.5 -20.5t-49 20.5t-20 49.5zM299 611q0 29 20.5 49t49.5 20t49 -20t20 -49t-20 -49.5t-49 -20.5t-49.5 20.5t-20.5 49.5z" />
<glyph unicode="&#xfd;" horiz-adv-x="510" d="M2 438h132l79 -177l20 -44l17 -39l14 -35l22 55l23 54l79 186h120l-290 -639h-120l104 222zM184 556l134 149l90 -68l-159 -128z" />
<glyph unicode="&#xfe;" horiz-adv-x="583" d="M67 -201v950h114v-370q23 33 60.5 51.5t88.5 18.5q46 0 84.5 -17.5t66.5 -48.5t44 -72.5t16 -89.5q0 -46 -15.5 -88t-44 -74t-69 -51t-89.5 -19q-46 0 -82.5 17t-59.5 46v-253h-114zM176 215q0 -59 34 -96t89 -37q28 0 50.5 11t38.5 29.5t25 43t9 50.5q0 27 -8.5 51 t-24.5 42.5t-39 29.5t-52 11q-28 0 -50.5 -10.5t-38.5 -29t-24.5 -43t-8.5 -52.5z" />
<glyph unicode="&#xff;" horiz-adv-x="510" d="M2 438h132l79 -177l20 -44l17 -39l14 -35l22 55l23 54l79 186h120l-290 -639h-120l104 222zM90 611q0 29 20 49t49 20t49.5 -20t20.5 -49t-20.5 -49.5t-49.5 -20.5t-49 20.5t-20 49.5zM290 611q0 29 20.5 49t49.5 20t49 -20t20 -49t-20 -49.5t-49 -20.5t-49.5 20.5 t-20.5 49.5z" />
<glyph unicode="&#x100;" horiz-adv-x="701" d="M9 0l278 709h122l284 -709h-136l-62 165h-294l-61 -165h-131zM240 272h215l-62 166l-13 35l-15 44l-18 53l-17 -53l-16 -43l-12 -36zM208 780v94h285v-94h-285z" />
<glyph unicode="&#x101;" d="M41 214q0 51 16 94t44.5 74.5t68.5 49.5t88 18q46 0 83.5 -18.5t59.5 -49.5v56h113v-438h-113v54q-25 -30 -62.5 -48t-86.5 -18q-47 0 -86 17t-66.5 47t-43 71.5t-15.5 90.5zM158 218q0 -28 9.5 -53t26 -43.5t39.5 -29.5t50 -11q28 0 51 10.5t39 28.5t24.5 42.5t8.5 52.5 q0 59 -35 97t-91 38q-26 0 -48 -10t-38.5 -27.5t-26 -42t-9.5 -52.5zM156 556v94h285v-94h-285z" />
<glyph unicode="&#x102;" horiz-adv-x="701" d="M9 0l278 709h122l284 -709h-136l-62 165h-294l-61 -165h-131zM240 272h215l-62 166l-13 35l-15 44l-18 53l-17 -53l-16 -43l-12 -36zM191 930h92q0 -38 15 -56.5t50 -18.5q71 0 71 75h92q0 -47 -12.5 -80t-34 -53.5t-51.5 -30t-65 -9.5q-157 0 -157 173z" />
<glyph unicode="&#x103;" d="M41 214q0 51 16 94t44.5 74.5t68.5 49.5t88 18q46 0 83.5 -18.5t59.5 -49.5v56h113v-438h-113v54q-25 -30 -62.5 -48t-86.5 -18q-47 0 -86 17t-66.5 47t-43 71.5t-15.5 90.5zM158 218q0 -28 9.5 -53t26 -43.5t39.5 -29.5t50 -11q28 0 51 10.5t39 28.5t24.5 42.5t8.5 52.5 q0 59 -35 97t-91 38q-26 0 -48 -10t-38.5 -27.5t-26 -42t-9.5 -52.5zM135 696h92q0 -38 15 -56.5t50 -18.5q71 0 71 75h92q0 -47 -12.5 -80t-34 -53.5t-51.5 -30t-65 -9.5q-157 0 -157 173z" />
<glyph unicode="&#x104;" horiz-adv-x="701" d="M9 0l278 709h122l284 -709h-57q-21 -14 -37.5 -36t-16.5 -45q0 -53 62 -53q8 0 17.5 1t19.5 3l8 -74q-41 -12 -79 -12q-28 0 -52.5 6.5t-42.5 19.5t-28 32t-10 45q0 18 8 35t20 32t26 27t26 19l-62 165h-294l-61 -165h-131zM240 272h215l-62 166l-13 35l-15 44l-18 53 l-17 -53l-16 -43l-12 -36z" />
<glyph unicode="&#x105;" d="M41 214q0 51 16 94t44.5 74.5t68.5 49.5t88 18q46 0 83.5 -18.5t59.5 -49.5v56h113v-438h-34q-21 -14 -37.5 -36t-16.5 -45q0 -53 62 -53q8 0 17.5 1t19.5 3l8 -74q-41 -12 -79 -12q-28 0 -52.5 6.5t-42.5 19.5t-28 32t-10 45q0 18 8 35t20 32t26 27t26 19v54 q-25 -30 -62.5 -48t-86.5 -18q-47 0 -86 17t-66.5 47t-43 71.5t-15.5 90.5zM158 218q0 -28 9.5 -53t26 -43.5t39.5 -29.5t50 -11q28 0 51 10.5t39 28.5t24.5 42.5t8.5 52.5q0 59 -35 97t-91 38q-26 0 -48 -10t-38.5 -27.5t-26 -42t-9.5 -52.5z" />
<glyph unicode="&#x106;" horiz-adv-x="645" d="M43 350q0 81 27 148.5t75 116.5t114.5 76.5t145.5 27.5q105 0 187 -38v-134q-35 26 -84.5 42.5t-102.5 16.5q-49 0 -91.5 -18t-73.5 -51t-49 -79.5t-18 -104.5q0 -52 16.5 -97.5t47.5 -79.5t75.5 -53.5t99.5 -19.5q56 0 102.5 14.5t81.5 40.5v-127q-39 -20 -90 -31 t-107 -11q-80 0 -145.5 28t-112.5 77t-72.5 115t-25.5 141zM265 800l142 120l88 -74l-175 -103z" />
<glyph unicode="&#x107;" horiz-adv-x="441" d="M41 216q0 45 16.5 87.5t47 74.5t75 51.5t100.5 19.5q31 0 62.5 -6t55.5 -17v-107q-20 12 -49 20.5t-58 8.5q-28 0 -52 -9.5t-41 -26.5t-27 -40.5t-10 -51.5q0 -27 9 -50.5t26 -41.5t41 -28.5t54 -10.5q29 0 57 8t50 24v-108q-23 -10 -56.5 -17.5t-69.5 -7.5 q-57 0 -100 19t-72 51t-44 73t-15 85zM161 556l134 149l90 -68l-159 -128z" />
<glyph unicode="&#x10a;" horiz-adv-x="645" d="M43 350q0 81 27 148.5t75 116.5t114.5 76.5t145.5 27.5q105 0 187 -38v-134q-35 26 -84.5 42.5t-102.5 16.5q-49 0 -91.5 -18t-73.5 -51t-49 -79.5t-18 -104.5q0 -52 16.5 -97.5t47.5 -79.5t75.5 -53.5t99.5 -19.5q56 0 102.5 14.5t81.5 40.5v-127q-39 -20 -90 -31 t-107 -11q-80 0 -145.5 28t-112.5 77t-72.5 115t-25.5 141zM290 842q0 33 22.5 55.5t55.5 22.5q32 0 55 -22.5t23 -55.5q0 -32 -23 -55t-55 -23q-33 0 -55.5 23t-22.5 55z" />
<glyph unicode="&#x10b;" horiz-adv-x="441" d="M41 216q0 45 16.5 87.5t47 74.5t75 51.5t100.5 19.5q31 0 62.5 -6t55.5 -17v-107q-20 12 -49 20.5t-58 8.5q-28 0 -52 -9.5t-41 -26.5t-27 -40.5t-10 -51.5q0 -27 9 -50.5t26 -41.5t41 -28.5t54 -10.5q29 0 57 8t50 24v-108q-23 -10 -56.5 -17.5t-69.5 -7.5 q-57 0 -100 19t-72 51t-44 73t-15 85zM169 613q0 33 22.5 55.5t55.5 22.5q32 0 55 -22.5t23 -55.5q0 -32 -23 -55t-55 -23q-33 0 -55.5 23t-22.5 55z" />
<glyph unicode="&#x10c;" horiz-adv-x="645" d="M43 350q0 81 27 148.5t75 116.5t114.5 76.5t145.5 27.5q105 0 187 -38v-134q-35 26 -84.5 42.5t-102.5 16.5q-49 0 -91.5 -18t-73.5 -51t-49 -79.5t-18 -104.5q0 -52 16.5 -97.5t47.5 -79.5t75.5 -53.5t99.5 -19.5q56 0 102.5 14.5t81.5 40.5v-127q-39 -20 -90 -31 t-107 -11q-80 0 -145.5 28t-112.5 77t-72.5 115t-25.5 141zM195 844l42 66l132 -61l128 61l43 -69l-172 -90z" />
<glyph unicode="&#x10d;" horiz-adv-x="441" d="M41 216q0 45 16.5 87.5t47 74.5t75 51.5t100.5 19.5q31 0 62.5 -6t55.5 -17v-107q-20 12 -49 20.5t-58 8.5q-28 0 -52 -9.5t-41 -26.5t-27 -40.5t-10 -51.5q0 -27 9 -50.5t26 -41.5t41 -28.5t54 -10.5q29 0 57 8t50 24v-108q-23 -10 -56.5 -17.5t-69.5 -7.5 q-57 0 -100 19t-72 51t-44 73t-15 85zM76 636l53 65l109 -83l110 84l55 -64l-168 -131z" />
<glyph unicode="&#x10e;" horiz-adv-x="683" d="M82 0v709h187q85 0 154 -23.5t118 -71.5q48 -48 73 -110.5t25 -143.5q0 -161 -100 -261q-99 -99 -288 -99h-169zM205 104h51q65 0 110.5 15.5t75.5 45.5q32 31 49.5 78t17.5 112q0 59 -17 107t-49 80q-35 35 -81.5 49.5t-104.5 14.5h-52v-502zM168 844l42 66l132 -61 l128 61l43 -69l-172 -90z" />
<glyph unicode="&#x10f;" d="M41 217q0 48 16 89.5t45 73t69 49.5t88 18q44 0 80.5 -15.5t61.5 -44.5v361h113v-748h-113v59q-25 -30 -62 -49.5t-89 -19.5q-47 0 -85.5 17.5t-66 48.5t-42.5 72t-15 89zM160 218q0 -30 10 -54t26.5 -41.5t38.5 -27t46 -9.5q28 0 50.5 10.5t39 29t25.5 43t9 52.5 q0 30 -9.5 54t-26 41t-39 26t-47.5 9q-27 0 -49.5 -10.5t-39 -28.5t-25.5 -42.5t-9 -51.5zM565 616q21 18 34 34.5t13 33.5q0 11 -4 19.5t-9.5 16t-9.5 16t-4 20.5q0 24 17.5 40t46.5 16t47 -20.5t18 -50.5q0 -44 -30.5 -84.5t-83.5 -75.5z" />
<glyph unicode="&#x110;" horiz-adv-x="693" d="M29 312v100h64v297h186q177 0 272 -95q48 -48 73 -110.5t25 -143.5t-26 -146.5t-75 -114.5q-99 -99 -287 -99h-168v312h-64zM215 104h52q125 0 186 61q31 31 48.5 78t17.5 112q0 59 -17 107t-49 80q-35 35 -81 49.5t-105 14.5h-52v-194h73v-100h-73v-208z" />
<glyph unicode="&#x111;" horiz-adv-x="583" d="M41 217q0 48 16 89.5t45 73t69 49.5t88 18q44 0 80.5 -15.5t61.5 -44.5v115h-77v87h77v159h113v-159h61v-87h-61v-502h-113v59q-25 -30 -62 -49.5t-89 -19.5q-47 0 -85.5 17.5t-66 48.5t-42.5 72t-15 89zM160 218q0 -30 10 -54t26.5 -41.5t38.5 -27t46 -9.5 q28 0 50.5 10.5t39 29t25.5 43t9 52.5q0 30 -9.5 54t-26 41t-39 26t-47.5 9q-27 0 -49.5 -10.5t-39 -28.5t-25.5 -42.5t-9 -51.5z" />
<glyph unicode="&#x112;" horiz-adv-x="544" d="M82 0v709h387v-113h-263v-176h255v-111h-255v-196h264v-113h-388zM130 780v94h285v-94h-285z" />
<glyph unicode="&#x113;" horiz-adv-x="520" d="M41 217q0 52 17 95t47 74t70.5 48t87.5 17q48 0 87.5 -15.5t68.5 -44.5t45 -71t16 -94q0 -9 -0.5 -18t-0.5 -19h-325q1 -24 10.5 -44.5t25.5 -36t37.5 -24t47.5 -8.5q38 0 68 16.5t53 45.5l75 -53q-38 -49 -88 -73.5t-119 -24.5q-46 0 -86.5 15.5t-71 44.5t-48 72 t-17.5 98zM155 265h209q0 20 -7 38t-20.5 32t-32.5 22.5t-43 8.5q-46 0 -74 -30t-32 -71zM120 556v94h285v-94h-285z" />
<glyph unicode="&#x116;" horiz-adv-x="544" d="M82 0v709h387v-113h-263v-176h255v-111h-255v-196h264v-113h-388zM196 842q0 33 22.5 55.5t55.5 22.5q32 0 55 -22.5t23 -55.5q0 -32 -23 -55t-55 -23q-33 0 -55.5 23t-22.5 55z" />
<glyph unicode="&#x117;" horiz-adv-x="520" d="M41 217q0 52 17 95t47 74t70.5 48t87.5 17q48 0 87.5 -15.5t68.5 -44.5t45 -71t16 -94q0 -9 -0.5 -18t-0.5 -19h-325q1 -24 10.5 -44.5t25.5 -36t37.5 -24t47.5 -8.5q38 0 68 16.5t53 45.5l75 -53q-38 -49 -88 -73.5t-119 -24.5q-46 0 -86.5 15.5t-71 44.5t-48 72 t-17.5 98zM155 265h209q0 20 -7 38t-20.5 32t-32.5 22.5t-43 8.5q-46 0 -74 -30t-32 -71zM182 613q0 33 22.5 55.5t55.5 22.5q32 0 55 -22.5t23 -55.5q0 -32 -23 -55t-55 -23q-33 0 -55.5 23t-22.5 55z" />
<glyph unicode="&#x118;" horiz-adv-x="544" d="M82 0v709h387v-113h-263v-176h255v-111h-255v-196h264v-113h-46q-21 -14 -37.5 -36t-16.5 -45q0 -53 62 -53q8 0 17.5 1t19.5 3l8 -74q-41 -12 -79 -12q-28 0 -52.5 6.5t-42.5 19.5t-28 32t-10 45q0 18 8 35t20 32t26 27t26 19h-263z" />
<glyph unicode="&#x119;" horiz-adv-x="520" d="M41 217q0 52 17 95t47 74t70.5 48t87.5 17q48 0 87.5 -15.5t68.5 -44.5t45 -71t16 -94q0 -9 -0.5 -18t-0.5 -19h-325q1 -24 10.5 -44.5t25.5 -36t37.5 -24t47.5 -8.5q38 0 68 16.5t53 45.5l75 -53q-14 -15 -34.5 -35t-40 -42t-33 -45t-13.5 -44q0 -53 62 -53q8 0 17.5 1 t19.5 3l8 -74q-20 -6 -41.5 -9t-40.5 -3q-57 0 -93.5 26t-36.5 77q0 24 16.5 53.5t43.5 56.5q-19 -8 -53 -8q-42 0 -80 15t-67 44t-46.5 71.5t-17.5 97.5zM155 265h209q0 20 -7 38t-20.5 32t-32.5 22.5t-43 8.5q-46 0 -74 -30t-32 -71z" />
<glyph unicode="&#x11a;" horiz-adv-x="544" d="M82 0v709h387v-113h-263v-176h255v-111h-255v-196h264v-113h-388zM105 844l42 66l132 -61l128 61l43 -69l-172 -90z" />
<glyph unicode="&#x11b;" horiz-adv-x="520" d="M41 217q0 52 17 95t47 74t70.5 48t87.5 17q48 0 87.5 -15.5t68.5 -44.5t45 -71t16 -94q0 -9 -0.5 -18t-0.5 -19h-325q1 -24 10.5 -44.5t25.5 -36t37.5 -24t47.5 -8.5q38 0 68 16.5t53 45.5l75 -53q-38 -49 -88 -73.5t-119 -24.5q-46 0 -86.5 15.5t-71 44.5t-48 72 t-17.5 98zM155 265h209q0 20 -7 38t-20.5 32t-32.5 22.5t-43 8.5q-46 0 -74 -30t-32 -71zM104 636l53 65l109 -83l110 84l55 -64l-168 -131z" />
<glyph unicode="&#x11e;" horiz-adv-x="785" d="M43 356q0 76 27.5 143.5t76.5 117.5t116.5 79t147.5 29q94 0 171.5 -38t131.5 -113l-98 -68q-78 106 -208 106q-56 0 -100 -20.5t-75 -55t-47.5 -80.5t-16.5 -97q0 -54 16.5 -101.5t47.5 -83t75.5 -56.5t99.5 -21q44 0 80.5 12.5t64 35t45.5 53t24 66.5h-192v109h325v-29 q0 -74 -23.5 -139.5t-69 -114.5t-111 -77t-149.5 -28q-80 0 -146.5 28.5t-113.5 79t-73 118t-26 145.5zM234 930h92q0 -38 15 -56.5t50 -18.5q71 0 71 75h92q0 -47 -12.5 -80t-34 -53.5t-51.5 -30t-65 -9.5q-157 0 -157 173z" />
<glyph unicode="&#x11f;" horiz-adv-x="573" d="M41 220q0 49 16.5 90.5t45 72.5t67 48.5t82.5 17.5q45 0 82 -16.5t60 -49.5v55h113v-407q0 -67 -12.5 -110.5t-44.5 -74.5q-32 -32 -75.5 -46t-102.5 -14q-99 0 -152.5 47.5t-56.5 122.5h111q2 -35 30 -59t74 -24q60 0 88 30t28 99v64q-26 -32 -63 -48t-81 -16 q-49 0 -87.5 17t-65.5 47t-41.5 69.5t-14.5 84.5zM157 223q0 -56 34 -93t88 -37q27 0 49 10t37.5 28t24 42t8.5 51q0 25 -8 48.5t-24 40.5t-38.5 27.5t-50.5 10.5q-26 0 -48 -10t-38 -27.5t-25 -40.5t-9 -50zM131 696h92q0 -38 15 -56.5t50 -18.5q71 0 71 75h92 q0 -47 -12.5 -80t-34 -53.5t-51.5 -30t-65 -9.5q-157 0 -157 173z" />
<glyph unicode="&#x120;" horiz-adv-x="785" d="M43 356q0 76 27.5 143.5t76.5 117.5t116.5 79t147.5 29q94 0 171.5 -38t131.5 -113l-98 -68q-78 106 -208 106q-56 0 -100 -20.5t-75 -55t-47.5 -80.5t-16.5 -97q0 -54 16.5 -101.5t47.5 -83t75.5 -56.5t99.5 -21q44 0 80.5 12.5t64 35t45.5 53t24 66.5h-192v109h325v-29 q0 -74 -23.5 -139.5t-69 -114.5t-111 -77t-149.5 -28q-80 0 -146.5 28.5t-113.5 79t-73 118t-26 145.5zM315 842q0 33 22.5 55.5t55.5 22.5q32 0 55 -22.5t23 -55.5q0 -32 -23 -55t-55 -23q-33 0 -55.5 23t-22.5 55z" />
<glyph unicode="&#x121;" horiz-adv-x="573" d="M41 220q0 49 16.5 90.5t45 72.5t67 48.5t82.5 17.5q45 0 82 -16.5t60 -49.5v55h113v-407q0 -67 -12.5 -110.5t-44.5 -74.5q-32 -32 -75.5 -46t-102.5 -14q-99 0 -152.5 47.5t-56.5 122.5h111q2 -35 30 -59t74 -24q60 0 88 30t28 99v64q-26 -32 -63 -48t-81 -16 q-49 0 -87.5 17t-65.5 47t-41.5 69.5t-14.5 84.5zM157 223q0 -56 34 -93t88 -37q27 0 49 10t37.5 28t24 42t8.5 51q0 25 -8 48.5t-24 40.5t-38.5 27.5t-50.5 10.5q-26 0 -48 -10t-38 -27.5t-25 -40.5t-9 -50zM210 613q0 33 22.5 55.5t55.5 22.5q32 0 55 -22.5t23 -55.5 q0 -32 -23 -55t-55 -23q-33 0 -55.5 23t-22.5 55z" />
<glyph unicode="&#x122;" horiz-adv-x="785" d="M43 356q0 76 27.5 143.5t76.5 117.5t116.5 79t147.5 29q94 0 171.5 -38t131.5 -113l-98 -68q-78 106 -208 106q-56 0 -100 -20.5t-75 -55t-47.5 -80.5t-16.5 -97q0 -54 16.5 -101.5t47.5 -83t75.5 -56.5t99.5 -21q44 0 80.5 12.5t64 35t45.5 53t24 66.5h-192v109h325v-29 q0 -74 -23.5 -139.5t-69 -114.5t-111 -77t-149.5 -28q-80 0 -146.5 28.5t-113.5 79t-73 118t-26 145.5zM321 -226q21 18 34 34.5t13 33.5q0 11 -4 19.5t-9 16t-9 16t-4 20.5q0 24 17 39.5t46 15.5t47 -20.5t18 -50.5q0 -44 -30.5 -84t-83.5 -75z" />
<glyph unicode="&#x123;" horiz-adv-x="573" d="M41 220q0 49 16.5 90.5t45 72.5t67 48.5t82.5 17.5q45 0 82 -16.5t60 -49.5v55h113v-407q0 -67 -12.5 -110.5t-44.5 -74.5q-32 -32 -75.5 -46t-102.5 -14q-99 0 -152.5 47.5t-56.5 122.5h111q2 -35 30 -59t74 -24q60 0 88 30t28 99v64q-26 -32 -63 -48t-81 -16 q-49 0 -87.5 17t-65.5 47t-41.5 69.5t-14.5 84.5zM157 223q0 -56 34 -93t88 -37q27 0 49 10t37.5 28t24 42t8.5 51q0 25 -8 48.5t-24 40.5t-38.5 27.5t-50.5 10.5q-26 0 -48 -10t-38 -27.5t-25 -40.5t-9 -50zM373.01 728.986q-20.999 -17.999 -33.498 -34.498 t-12.499 -33.498q0 -10.999 3.99902 -19.499q4 -8.49902 9 -15.999q5 -7.49902 8.99902 -15.999q4 -8.49902 4 -20.498q0 -23.999 -16.999 -39.498t-45.9971 -15.499t-47.4971 20.499t-18.499 50.4971q0 43.9971 30.998 83.9941q30.998 39.998 83.9951 74.9961z" />
<glyph unicode="&#x126;" horiz-adv-x="735" d="M28 524v100h64v85h124v-85h303v85h124v-85h64v-100h-64v-524h-124v315h-303v-315h-124v524h-64zM216 427h303v97h-303v-97z" />
<glyph unicode="&#x127;" horiz-adv-x="540" d="M8 502v87h61v160h113v-160h126v-87h-126v-120q20 26 55.5 46.5t86.5 20.5q32 0 61 -10t49 -30q42 -42 42 -128v-281h-113v257q0 45 -19.5 69t-61.5 24q-41 0 -69 -28q-31 -31 -31 -88v-234h-113v502h-61z" />
<glyph unicode="&#x12a;" horiz-adv-x="288" d="M82 0v709h124v-709h-124zM2 780v94h285v-94h-285z" />
<glyph unicode="&#x12b;" horiz-adv-x="248" d="M67 0v438h114v-438h-114zM-18 556v94h285v-94h-285z" />
<glyph unicode="&#x12e;" horiz-adv-x="288" d="M35 -113q0 18 8 35t20 32t26 27t26 19h-33v709h124v-709h-12q-21 -14 -37.5 -36t-16.5 -45q0 -53 62 -53q8 0 17.5 1t19.5 3l8 -74q-41 -12 -79 -12q-28 0 -52.5 6.5t-42.5 19.5t-28 32t-10 45z" />
<glyph unicode="&#x12f;" horiz-adv-x="248" d="M18 -113q0 18 8 35t20 32t26 27t26 19h-31v438h114v-438h-4q-21 -14 -37.5 -36t-16.5 -45q0 -53 62 -53q8 0 17.5 1t19.5 3l8 -74q-41 -12 -79 -12q-28 0 -52.5 6.5t-42.5 19.5t-28 32t-10 45zM50 611q0 30 22 51.5t52 21.5t51.5 -21.5t21.5 -51.5q0 -31 -21.5 -52.5 t-51.5 -21.5t-52 21.5t-22 52.5z" />
<glyph unicode="&#x130;" horiz-adv-x="288" d="M82 0v709h124v-709h-124zM67 842q0 33 22.5 55.5t55.5 22.5q32 0 55 -22.5t23 -55.5q0 -32 -23 -55t-55 -23q-33 0 -55.5 23t-22.5 55z" />
<glyph unicode="&#x131;" horiz-adv-x="248" d="M67 0v438h114v-438h-114z" />
<glyph unicode="&#x136;" horiz-adv-x="649" d="M82 0v709h124v-316l248 316h149l-271 -332l285 -377h-157l-254 345v-345h-124zM240 -226q21 18 34 34.5t13 33.5q0 11 -4 19.5t-9 16t-9 16t-4 20.5q0 24 17 39.5t46 15.5t47 -20.5t18 -50.5q0 -44 -30.5 -84t-83.5 -75z" />
<glyph unicode="&#x137;" horiz-adv-x="486" d="M66 0v749h113v-493l150 182h143l-179 -201l191 -237h-150l-155 209v-209h-113zM164 -226q21 18 33.5 34.5t12.5 33.5q0 11 -4 19.5t-9 16t-9 16t-4 20.5q0 24 17 39.5t46 15.5t47.5 -20.5t18.5 -50.5q0 -44 -31 -84t-84 -75z" />
<glyph unicode="&#x139;" horiz-adv-x="472" d="M82 0v709h124v-596h240v-113h-364zM139 800l142 120l88 -74l-175 -103z" />
<glyph unicode="&#x13a;" horiz-adv-x="245" d="M66 0v749h113v-749h-113zM46 858l134 149l90 -68l-159 -128z" />
<glyph unicode="&#x13b;" horiz-adv-x="472" d="M82 0v709h124v-596h240v-113h-364zM155 -226q21 18 34 34.5t13 33.5q0 11 -4 19.5t-9 16t-9 16t-4 20.5q0 24 17 39.5t46 15.5t47 -20.5t18 -50.5q0 -44 -30.5 -84t-83.5 -75z" />
<glyph unicode="&#x13c;" horiz-adv-x="245" d="M66 0v749h113v-749h-113zM41 -226q21 18 33.5 34.5t12.5 33.5q0 11 -4 19.5t-9 16t-9 16t-4 20.5q0 24 17 39.5t46 15.5t47.5 -20.5t18.5 -50.5q0 -44 -31 -84t-84 -75z" />
<glyph unicode="&#x13d;" horiz-adv-x="472" d="M82 0v709h124v-596h240v-113h-364zM268 528q21 18 33.5 34.5t12.5 33.5q0 11 -4 19.5t-9 16t-9 16t-4 20.5q0 24 17 40t46 16t47.5 -20.5t18.5 -50.5q0 -44 -31 -84t-84 -75z" />
<glyph unicode="&#x13e;" horiz-adv-x="245" d="M66 0v749h113v-749h-113zM230 616q21 18 34 34.5t13 33.5q0 11 -4 19.5t-9.5 16t-9.5 16t-4 20.5q0 24 17.5 40t46.5 16t47 -20.5t18 -50.5q0 -44 -30.5 -84.5t-83.5 -75.5z" />
<glyph unicode="&#x141;" horiz-adv-x="491" d="M11 340l90 54v315h124v-240l66 40l49 -82l-115 -70v-244h239v-113h-363v283l-41 -25z" />
<glyph unicode="&#x142;" horiz-adv-x="308" d="M-5 337l101 61v351h114v-282l53 32l49 -82l-102 -61v-356h-114v287l-51 -32z" />
<glyph unicode="&#x143;" horiz-adv-x="779" d="M82 0v709h114l293 -392l52 -73l46 -69q-2 61 -3.5 117.5t-1.5 116.5v300h114v-709h-112l-309 412l-43 60l-41 60q2 -50 3 -98t4 -98v-336h-116zM293 800l142 120l88 -74l-175 -103z" />
<glyph unicode="&#x144;" horiz-adv-x="538" d="M66 0v438h112v-58q18 24 51.5 45.5t88.5 21.5q41 0 69 -12t47 -30q22 -22 31.5 -53t9.5 -76v-276h-114v252q0 43 -18 70.5t-62 27.5q-17 0 -35 -6.5t-33 -20t-24.5 -34t-9.5 -49.5v-240h-113zM202 556l134 149l90 -68l-159 -128z" />
<glyph unicode="&#x145;" horiz-adv-x="779" d="M82 0v709h114l293 -392l52 -73l46 -69q-2 61 -3.5 117.5t-1.5 116.5v300h114v-709h-112l-309 412l-43 60l-41 60q2 -50 3 -98t4 -98v-336h-116zM306 -226q21 18 34 34.5t13 33.5q0 11 -4 19.5t-9 16t-9 16t-4 20.5q0 24 17 39.5t46 15.5t47 -20.5t18 -50.5 q0 -44 -30.5 -84t-83.5 -75z" />
<glyph unicode="&#x146;" horiz-adv-x="538" d="M66 0v438h112v-58q18 24 51.5 45.5t88.5 21.5q41 0 69 -12t47 -30q22 -22 31.5 -53t9.5 -76v-276h-114v252q0 43 -18 70.5t-62 27.5q-17 0 -35 -6.5t-33 -20t-24.5 -34t-9.5 -49.5v-240h-113zM187 -226q21 18 33.5 34.5t12.5 33.5q0 11 -4 19.5t-9 16t-9 16t-4 20.5 q0 24 17 39.5t46 15.5t47.5 -20.5t18.5 -50.5q0 -44 -31 -84t-84 -75z" />
<glyph unicode="&#x147;" horiz-adv-x="779" d="M82 0v709h114l293 -392l52 -73l46 -69q-2 61 -3.5 117.5t-1.5 116.5v300h114v-709h-112l-309 412l-43 60l-41 60q2 -50 3 -98t4 -98v-336h-116zM223 844l42 66l132 -61l128 61l43 -69l-172 -90z" />
<glyph unicode="&#x148;" horiz-adv-x="538" d="M66 0v438h112v-58q18 24 51.5 45.5t88.5 21.5q41 0 69 -12t47 -30q22 -22 31.5 -53t9.5 -76v-276h-114v252q0 43 -18 70.5t-62 27.5q-17 0 -35 -6.5t-33 -20t-24.5 -34t-9.5 -49.5v-240h-113zM106 636l53 65l109 -83l110 84l55 -64l-168 -131z" />
<glyph unicode="&#x14c;" horiz-adv-x="826" d="M40 353q0 76 29.5 143.5t80.5 118t119 80t145 29.5q78 0 146 -28.5t118.5 -78.5t79.5 -117.5t29 -145.5q0 -77 -30 -144t-81 -117.5t-119 -79.5t-145 -29q-78 0 -145.5 28.5t-118 78.5t-79.5 117.5t-29 144.5zM167 355q0 -52 19 -98t52 -80.5t78 -54.5t97 -20 q53 0 98 19.5t78 53.5t51.5 80t18.5 99t-18 99.5t-51 81t-78 54t-99 19.5q-53 0 -98 -20t-78 -54.5t-51.5 -80.5t-18.5 -98zM271 780v94h285v-94h-285z" />
<glyph unicode="&#x14d;" horiz-adv-x="561" d="M41 218q0 48 18 90t50 73.5t76 50t96 18.5q51 0 95 -17.5t76 -48t50 -73t18 -92.5q0 -46 -17.5 -88t-49.5 -74t-77 -51t-100 -19q-50 0 -93 17t-74.5 48t-49.5 73.5t-18 92.5zM156 219q0 -28 10 -52t27 -41.5t39.5 -27.5t48.5 -10q27 0 49.5 10.5t39 28.5t25.5 41.5 t9 49.5q0 28 -9.5 52t-26.5 41.5t-40 27.5t-49 10q-27 0 -49.5 -10.5t-39 -28t-25.5 -41t-9 -50.5zM137 556v94h285v-94h-285z" />
<glyph unicode="&#x150;" horiz-adv-x="826" d="M40 353q0 76 29.5 143.5t80.5 118t119 80t145 29.5q78 0 146 -28.5t118.5 -78.5t79.5 -117.5t29 -145.5q0 -77 -30 -144t-81 -117.5t-119 -79.5t-145 -29q-78 0 -145.5 28.5t-118 78.5t-79.5 117.5t-29 144.5zM167 355q0 -52 19 -98t52 -80.5t78 -54.5t97 -20 q53 0 98 19.5t78 53.5t51.5 80t18.5 99t-18 99.5t-51 81t-78 54t-99 19.5q-53 0 -98 -20t-78 -54.5t-51.5 -80.5t-18.5 -98zM258 787l101 163l88 -67l-126 -142zM451 785l117 162l89 -67l-143 -141z" />
<glyph unicode="&#x151;" horiz-adv-x="561" d="M41 218q0 48 18 90t50 73.5t76 50t96 18.5q51 0 95 -17.5t76 -48t50 -73t18 -92.5q0 -46 -17.5 -88t-49.5 -74t-77 -51t-100 -19q-50 0 -93 17t-74.5 48t-49.5 73.5t-18 92.5zM156 219q0 -28 10 -52t27 -41.5t39.5 -27.5t48.5 -10q27 0 49.5 10.5t39 28.5t25.5 41.5 t9 49.5q0 28 -9.5 52t-26.5 41.5t-40 27.5t-49 10q-27 0 -49.5 -10.5t-39 -28t-25.5 -41t-9 -50.5zM121 551l101 163l88 -67l-126 -142zM314 549l117 162l89 -67l-143 -141z" />
<glyph unicode="&#x152;" horiz-adv-x="1122" d="M40 353q0 75 29.5 142.5t80 118t118.5 80t145 29.5q76 0 133.5 -25t105.5 -70v81h383v-112h-262v-177h254v-111h-254v-196h264v-113h-385v85q-49 -47 -110 -73.5t-130 -26.5q-77 0 -145 28.5t-118.5 78t-79.5 116.5t-29 145zM167 356q0 -53 19.5 -99.5t53 -80.5t78 -53.5 t95.5 -19.5q53 0 98 19.5t78 53t51.5 79.5t18.5 99q0 55 -19 101t-52 80t-78 53t-97 19q-50 0 -95 -19t-78.5 -52.5t-53 -79.5t-19.5 -100z" />
<glyph unicode="&#x153;" horiz-adv-x="883" d="M42 218q0 48 18 90t50.5 73.5t76.5 50t96 18.5q54 0 99 -20.5t77 -62.5q27 41 72 62.5t96 21.5q48 0 87.5 -15.5t68.5 -44.5t45 -71t16 -94q0 -9 -0.5 -18t-0.5 -19h-325q3 -48 36.5 -80.5t84.5 -32.5q38 0 68 16.5t53 45.5l75 -53q-38 -49 -87.5 -73.5t-119.5 -24.5 q-52 0 -96.5 20t-75.5 64q-31 -40 -76.5 -62t-102.5 -22q-50 0 -92.5 17t-74.5 48t-50 73.5t-18 92.5zM158 219q0 -28 10 -52t27 -41.5t39.5 -27.5t48.5 -10q27 0 49 10.5t38.5 28.5t25.5 41.5t9 49.5q0 28 -9.5 52t-26.5 41.5t-40 27.5t-49 10q-27 0 -49.5 -10.5t-38.5 -28 t-25 -41t-9 -50.5zM519 265h209q0 20 -7 38t-20.5 32t-32.5 22.5t-43 8.5q-46 0 -74 -30t-32 -71z" />
<glyph unicode="&#x154;" horiz-adv-x="579" d="M82 0v709h199q62 0 110.5 -14.5t79.5 -45.5q29 -30 41.5 -64t12.5 -76q0 -39 -12.5 -72t-35.5 -59t-56 -42.5t-73 -22.5l216 -313h-148l-199 308h-12v-308h-123zM205 398h55q42 0 69 7.5t42 23.5q15 15 21.5 33t6.5 41q0 20 -5.5 38.5t-21.5 34.5q-17 17 -43 24t-61 7 h-63v-209zM193 800l142 120l88 -74l-175 -103z" />
<glyph unicode="&#x155;" horiz-adv-x="347" d="M66 0v438h112v-69q19 35 49 57t77 22q8 0 17 -0.5t15 -2.5l-4 -117q-26 15 -64 15q-39 0 -63.5 -33t-24.5 -99v-211h-114zM128 556l134 149l90 -68l-159 -128z" />
<glyph unicode="&#x156;" horiz-adv-x="579" d="M82 0v709h199q62 0 110.5 -14.5t79.5 -45.5q29 -30 41.5 -64t12.5 -76q0 -39 -12.5 -72t-35.5 -59t-56 -42.5t-73 -22.5l216 -313h-148l-199 308h-12v-308h-123zM205 398h55q42 0 69 7.5t42 23.5q15 15 21.5 33t6.5 41q0 20 -5.5 38.5t-21.5 34.5q-17 17 -43 24t-61 7 h-63v-209zM214 -226q21 18 34 34.5t13 33.5q0 11 -4 19.5t-9 16t-9 16t-4 20.5q0 24 17 39.5t46 15.5t47 -20.5t18 -50.5q0 -44 -30.5 -84t-83.5 -75z" />
<glyph unicode="&#x157;" horiz-adv-x="347" d="M66 0v438h112v-69q19 35 49 57t77 22q8 0 17 -0.5t15 -2.5l-4 -117q-26 15 -64 15q-39 0 -63.5 -33t-24.5 -99v-211h-114zM60 -226q21 18 33.5 34.5t12.5 33.5q0 11 -4 19.5t-9 16t-9 16t-4 20.5q0 24 17 39.5t46 15.5t47.5 -20.5t18.5 -50.5q0 -44 -31 -84t-84 -75z" />
<glyph unicode="&#x158;" horiz-adv-x="579" d="M82 0v709h199q62 0 110.5 -14.5t79.5 -45.5q29 -30 41.5 -64t12.5 -76q0 -39 -12.5 -72t-35.5 -59t-56 -42.5t-73 -22.5l216 -313h-148l-199 308h-12v-308h-123zM205 398h55q42 0 69 7.5t42 23.5q15 15 21.5 33t6.5 41q0 20 -5.5 38.5t-21.5 34.5q-17 17 -43 24t-61 7 h-63v-209zM121 844l42 66l132 -61l128 61l43 -69l-172 -90z" />
<glyph unicode="&#x159;" horiz-adv-x="347" d="M66 0v438h112v-69q19 35 49 57t77 22q8 0 17 -0.5t15 -2.5l-4 -117q-26 15 -64 15q-39 0 -63.5 -33t-24.5 -99v-211h-114zM28 636l53 65l109 -83l110 84l55 -64l-168 -131z" />
<glyph unicode="&#x15a;" horiz-adv-x="531" d="M32 105l88 77q10 -18 23.5 -34t30.5 -29t37 -20.5t44 -7.5q46 0 73.5 28t27.5 70q0 36 -22 59t-54.5 41.5t-71 36.5t-71 43t-54.5 62t-22 93q0 43 17 79.5t46 63.5t68 42t83 15q64 0 115 -27.5t83 -76.5l-84 -73q-19 34 -48 53.5t-64 19.5q-41 0 -66 -25.5t-25 -64.5 q0 -35 22 -57t55 -40t71.5 -35.5t71.5 -42.5t55 -61.5t22 -91.5q0 -48 -18 -88t-49 -68.5t-74 -44.5t-92 -16q-75 0 -130 33t-88 87zM168 800l142 120l88 -74l-175 -103z" />
<glyph unicode="&#x15b;" horiz-adv-x="408" d="M36 77l92 48q11 -21 29.5 -34.5t43.5 -13.5q23 0 38.5 10t15.5 31q0 19 -15 30t-38 20l-49 18q-26 10 -49 25.5t-38 39.5t-15 62q0 28 11 52.5t31.5 43.5t49.5 30t66 11q55 0 92.5 -21t59.5 -66l-91 -41q-11 22 -28 32t-37 10q-19 0 -33 -11t-14 -30q0 -20 15.5 -32 t38.5 -21l50 -18q26 -10 49 -25t38.5 -38.5t15.5 -61.5q0 -30 -12 -55.5t-34 -44t-53 -28.5t-68 -10q-63 0 -101 21.5t-61 66.5zM134 556l134 149l90 -68l-159 -128z" />
<glyph unicode="&#x15e;" horiz-adv-x="531" d="M32 105l88 77q10 -18 23.5 -34t30.5 -29t37 -20.5t44 -7.5q46 0 73.5 28t27.5 70q0 36 -22 59t-54.5 41.5t-71 36.5t-71 43t-54.5 62t-22 93q0 43 17 79.5t46 63.5t68 42t83 15q64 0 115 -27.5t83 -76.5l-84 -73q-19 34 -48 53.5t-64 19.5q-41 0 -66 -25.5t-25 -64.5 q0 -35 22 -57t55 -40t71.5 -35.5t71.5 -42.5t55 -61.5t22 -91.5q0 -48 -18 -88t-49 -68.5t-74 -44.5t-92 -16q-75 0 -130 33t-88 87zM164 -169l101 134l88 -52l-122 -135z" />
<glyph unicode="&#x15f;" horiz-adv-x="408" d="M36 77l92 48q11 -21 29.5 -34.5t43.5 -13.5q23 0 38.5 10t15.5 31q0 19 -15 30t-38 20l-49 18q-26 10 -49 25.5t-38 39.5t-15 62q0 28 11 52.5t31.5 43.5t49.5 30t66 11q55 0 92.5 -21t59.5 -66l-91 -41q-11 22 -28 32t-37 10q-19 0 -33 -11t-14 -30q0 -20 15.5 -32 t38.5 -21l50 -18q26 -10 49 -25t38.5 -38.5t15.5 -61.5q0 -30 -12 -55.5t-34 -44t-53 -28.5t-68 -10q-63 0 -101 21.5t-61 66.5zM104 -169l101 134l88 -52l-122 -135z" />
<glyph unicode="&#x160;" horiz-adv-x="531" d="M32 105l88 77q10 -18 23.5 -34t30.5 -29t37 -20.5t44 -7.5q46 0 73.5 28t27.5 70q0 36 -22 59t-54.5 41.5t-71 36.5t-71 43t-54.5 62t-22 93q0 43 17 79.5t46 63.5t68 42t83 15q64 0 115 -27.5t83 -76.5l-84 -73q-19 34 -48 53.5t-64 19.5q-41 0 -66 -25.5t-25 -64.5 q0 -35 22 -57t55 -40t71.5 -35.5t71.5 -42.5t55 -61.5t22 -91.5q0 -48 -18 -88t-49 -68.5t-74 -44.5t-92 -16q-75 0 -130 33t-88 87zM99 844l42 66l132 -61l128 61l43 -69l-172 -90z" />
<glyph unicode="&#x161;" horiz-adv-x="408" d="M36 77l92 48q11 -21 29.5 -34.5t43.5 -13.5q23 0 38.5 10t15.5 31q0 19 -15 30t-38 20l-49 18q-26 10 -49 25.5t-38 39.5t-15 62q0 28 11 52.5t31.5 43.5t49.5 30t66 11q55 0 92.5 -21t59.5 -66l-91 -41q-11 22 -28 32t-37 10q-19 0 -33 -11t-14 -30q0 -20 15.5 -32 t38.5 -21l50 -18q26 -10 49 -25t38.5 -38.5t15.5 -61.5q0 -30 -12 -55.5t-34 -44t-53 -28.5t-68 -10q-63 0 -101 21.5t-61 66.5zM42 636l53 65l109 -83l110 84l55 -64l-168 -131z" />
<glyph unicode="&#x162;" horiz-adv-x="470" d="M11 597v112h449v-111h-163v-598h-123v597h-163zM134 -169l101 134l88 -52l-122 -135z" />
<glyph unicode="&#x163;" horiz-adv-x="282" d="M15 349v89h64v159h114v-159h85v-89h-85v-349h-114v349h-64zM39 -169l101 134l88 -52l-122 -135z" />
<glyph unicode="&#x164;" horiz-adv-x="470" d="M11 597v112h449v-111h-163v-598h-123v597h-163zM62 844l42 66l132 -61l128 61l43 -69l-172 -90z" />
<glyph unicode="&#x165;" horiz-adv-x="282" d="M15 349v89h64v159h114v-159h85v-89h-85v-349h-114v349h-64zM244 559q21 18 34 34.5t13 33.5q0 11 -4 19.5t-9.5 16t-9.5 16t-4 20.5q0 24 17.5 40t46.5 16t47 -20.5t18 -50.5q0 -44 -30.5 -84.5t-83.5 -75.5z" />
<glyph unicode="&#x16a;" horiz-adv-x="713" d="M80 264v445h124v-435q0 -50 9 -82t33 -56q19 -19 46.5 -30t65.5 -11q36 0 63.5 10.5t46.5 28.5q21 21 32.5 52t11.5 80v443h121v-431q0 -75 -19.5 -128.5t-56.5 -91.5q-38 -38 -90.5 -54.5t-111.5 -16.5q-63 0 -115.5 18t-90.5 56q-32 31 -50.5 79.5t-18.5 123.5z M214 780v94h285v-94h-285z" />
<glyph unicode="&#x16b;" horiz-adv-x="540" d="M63 202v236h114v-229q0 -26 3.5 -48.5t14 -39t29 -26.5t48.5 -10t47.5 10.5t27.5 28t13 39t3 43.5v232h114v-229q0 -54 -10.5 -96t-40.5 -72q-29 -29 -69 -41.5t-88 -12.5q-100 0 -157 57q-26 26 -37.5 64.5t-11.5 93.5zM127 556v94h285v-94h-285z" />
<glyph unicode="&#x16e;" horiz-adv-x="713" d="M80 264v445h124v-435q0 -50 9 -82t33 -56q19 -19 46.5 -30t65.5 -11q36 0 63.5 10.5t46.5 28.5q21 21 32.5 52t11.5 80v443h121v-431q0 -75 -19.5 -128.5t-56.5 -91.5q-38 -38 -90.5 -54.5t-111.5 -16.5q-63 0 -115.5 18t-90.5 56q-32 31 -50.5 79.5t-18.5 123.5z M247 824q0 23 8.5 42.5t23.5 34t35 23t43 8.5t43 -8.5t35 -23t23.5 -34t8.5 -42.5t-9 -42.5t-24 -33.5t-35 -22.5t-42 -8.5q-23 0 -43 8t-35 22.5t-23.5 34t-8.5 42.5zM310 824q0 -20 13.5 -33.5t33.5 -13.5t33.5 13.5t13.5 33.5t-13.5 34t-33.5 14t-33.5 -14t-13.5 -34z " />
<glyph unicode="&#x16f;" horiz-adv-x="540" d="M63 202v236h114v-229q0 -26 3.5 -48.5t14 -39t29 -26.5t48.5 -10t47.5 10.5t27.5 28t13 39t3 43.5v232h114v-229q0 -54 -10.5 -96t-40.5 -72q-29 -29 -69 -41.5t-88 -12.5q-100 0 -157 57q-26 26 -37.5 64.5t-11.5 93.5zM159 614q0 23 8.5 42.5t23.5 34t35 23t43 8.5 t43 -8.5t35 -23t23.5 -34t8.5 -42.5t-9 -42.5t-24 -33.5t-35 -22.5t-42 -8.5q-23 0 -43 8t-35 22.5t-23.5 34t-8.5 42.5zM222 614q0 -20 13.5 -33.5t33.5 -13.5t33.5 13.5t13.5 33.5t-13.5 34t-33.5 14t-33.5 -14t-13.5 -34z" />
<glyph unicode="&#x170;" horiz-adv-x="713" d="M80 264v445h124v-435q0 -50 9 -82t33 -56q19 -19 46.5 -30t65.5 -11q36 0 63.5 10.5t46.5 28.5q21 21 32.5 52t11.5 80v443h121v-431q0 -75 -19.5 -128.5t-56.5 -91.5q-38 -38 -90.5 -54.5t-111.5 -16.5q-63 0 -115.5 18t-90.5 56q-32 31 -50.5 79.5t-18.5 123.5z M202 787l101 163l88 -67l-126 -142zM395 785l117 162l89 -67l-143 -141z" />
<glyph unicode="&#x171;" horiz-adv-x="540" d="M63 202v236h114v-229q0 -26 3.5 -48.5t14 -39t29 -26.5t48.5 -10t47.5 10.5t27.5 28t13 39t3 43.5v232h114v-229q0 -54 -10.5 -96t-40.5 -72q-29 -29 -69 -41.5t-88 -12.5q-100 0 -157 57q-26 26 -37.5 64.5t-11.5 93.5zM116 551l101 163l88 -67l-126 -142zM309 549 l117 162l89 -67l-143 -141z" />
<glyph unicode="&#x172;" horiz-adv-x="713" d="M80 264v445h124v-435q0 -50 9 -82t33 -56q19 -19 46.5 -30t65.5 -11q36 0 63.5 10.5t46.5 28.5q21 21 32.5 52t11.5 80v443h121v-431q0 -75 -20.5 -128.5t-54.5 -91.5q-11 -12 -24 -29.5t-24.5 -37t-19.5 -38.5t-8 -34q0 -53 62 -53q8 0 17.5 1t19.5 3l8 -74 q-41 -12 -79 -12q-28 0 -52.5 6.5t-42.5 19.5t-28 32t-10 45q0 49 60 121q-21 -12 -40.5 -16.5t-41.5 -4.5q-63 0 -115.5 18t-90.5 56q-32 31 -50.5 79.5t-18.5 123.5z" />
<glyph unicode="&#x173;" horiz-adv-x="540" d="M63 202v236h114v-229q0 -26 3.5 -48.5t14 -39t29 -26.5t48.5 -10t47.5 10.5t27.5 28t13 39t3 43.5v232h114v-229q0 -54 -11 -95t-40 -73q-12 -13 -24 -29t-21 -32.5t-15 -32.5t-6 -28q0 -53 62 -53q8 0 17.5 1t19.5 3l8 -74q-41 -12 -79 -12q-28 0 -52.5 6.5t-42.5 19.5 t-28 32t-10 45q0 23 15 53.5t42 62.5q-12 -6 -24.5 -10t-29.5 -4q-42 0 -79.5 13t-66.5 42q-26 26 -37.5 64.5t-11.5 93.5z" />
<glyph unicode="&#x178;" horiz-adv-x="604" d="M9 709h142l154 -288l154 288h137l-233 -388v-321h-124v317zM130 827q0 29 20 49t49 20t49.5 -20t20.5 -49t-20.5 -49.5t-49.5 -20.5t-49 20.5t-20 49.5zM330 827q0 29 20.5 49t49.5 20t49 -20t20 -49t-20 -49.5t-49 -20.5t-49.5 20.5t-20.5 49.5z" />
<glyph unicode="&#x179;" horiz-adv-x="572" d="M3 0l346 600h-302v109h502l-345 -597h345v-112h-546zM189 800l142 120l88 -74l-175 -103z" />
<glyph unicode="&#x17a;" horiz-adv-x="463" d="M17 0l232 347h-205v91h399l-234 -347h221v-91h-413zM166 556l134 149l90 -68l-159 -128z" />
<glyph unicode="&#x17b;" horiz-adv-x="572" d="M3 0l346 600h-302v109h502l-345 -597h345v-112h-546zM207 842q0 33 22.5 55.5t55.5 22.5q32 0 55 -22.5t23 -55.5q0 -32 -23 -55t-55 -23q-33 0 -55.5 23t-22.5 55z" />
<glyph unicode="&#x17c;" horiz-adv-x="463" d="M17 0l232 347h-205v91h399l-234 -347h221v-91h-413zM154 613q0 33 22.5 55.5t55.5 22.5q32 0 55 -22.5t23 -55.5q0 -32 -23 -55t-55 -23q-33 0 -55.5 23t-22.5 55z" />
<glyph unicode="&#x17d;" horiz-adv-x="572" d="M3 0l346 600h-302v109h502l-345 -597h345v-112h-546zM110 844l42 66l132 -61l128 61l43 -69l-172 -90z" />
<glyph unicode="&#x17e;" horiz-adv-x="463" d="M17 0l232 347h-205v91h399l-234 -347h221v-91h-413zM72 636l53 65l109 -83l110 84l55 -64l-168 -131z" />
<glyph unicode="&#x192;" d="M51 -195l15 97q22 -3 44 -3q37 0 52 22.5t23 75.5l51 323h-85l12 78h85l22 141q6 42 17.5 76t31 58t49.5 37t75 13q27 0 49 -2t36 -5l-16 -97q-11 2 -23.5 3t-26.5 1q-20 0 -33 -5.5t-21 -17.5t-12.5 -30.5t-8.5 -44.5l-20 -127h99l-12 -78h-99l-53 -337 q-7 -42 -18.5 -76t-31 -58t-49.5 -37t-74 -13q-51 0 -78 6z" />
<glyph unicode="&#x218;" horiz-adv-x="531" d="M32 105l88 77q10 -18 23.5 -34t30.5 -29t37 -20.5t44 -7.5q46 0 73.5 28t27.5 70q0 36 -22 59t-54.5 41.5t-71 36.5t-71 43t-54.5 62t-22 93q0 43 17 79.5t46 63.5t68 42t83 15q64 0 115 -27.5t83 -76.5l-84 -73q-19 34 -48 53.5t-64 19.5q-41 0 -66 -25.5t-25 -64.5 q0 -35 22 -57t55 -40t71.5 -35.5t71.5 -42.5t55 -61.5t22 -91.5q0 -48 -18 -88t-49 -68.5t-74 -44.5t-92 -16q-75 0 -130 33t-88 87zM184 -226q21 18 34 34.5t13 33.5q0 11 -4 19.5t-9 16t-9 16t-4 20.5q0 24 17 39.5t46 15.5t47 -20.5t18 -50.5q0 -44 -30.5 -84t-83.5 -75z " />
<glyph unicode="&#x219;" horiz-adv-x="408" d="M36 77l92 48q11 -21 29.5 -34.5t43.5 -13.5q23 0 38.5 10t15.5 31q0 19 -15 30t-38 20l-49 18q-26 10 -49 25.5t-38 39.5t-15 62q0 28 11 52.5t31.5 43.5t49.5 30t66 11q55 0 92.5 -21t59.5 -66l-91 -41q-11 22 -28 32t-37 10q-19 0 -33 -11t-14 -30q0 -20 15.5 -32 t38.5 -21l50 -18q26 -10 49 -25t38.5 -38.5t15.5 -61.5q0 -30 -12 -55.5t-34 -44t-53 -28.5t-68 -10q-63 0 -101 21.5t-61 66.5zM123 -226q21 18 33.5 34.5t12.5 33.5q0 11 -4 19.5t-9 16t-9 16t-4 20.5q0 24 17 39.5t46 15.5t47.5 -20.5t18.5 -50.5q0 -44 -31 -84t-84 -75z " />
<glyph unicode="&#x21a;" horiz-adv-x="470" d="M11 597v112h449v-111h-163v-598h-123v597h-163zM154 -226q21 18 34 34.5t13 33.5q0 11 -4 19.5t-9 16t-9 16t-4 20.5q0 24 17 39.5t46 15.5t47 -20.5t18 -50.5q0 -44 -30.5 -84t-83.5 -75z" />
<glyph unicode="&#x21b;" horiz-adv-x="282" d="M15 349v89h64v159h114v-159h85v-89h-85v-349h-114v349h-64zM60 -226q21 18 33.5 34.5t12.5 33.5q0 11 -4 19.5t-9 16t-9 16t-4 20.5q0 24 17 39.5t46 15.5t47.5 -20.5t18.5 -50.5q0 -44 -31 -84t-84 -75z" />
<glyph unicode="&#x2c6;" horiz-adv-x="470" d="M71 576l169 135l159 -132l-54 -65l-109 85l-109 -86z" />
<glyph unicode="&#x2c7;" horiz-adv-x="470" d="M71 636l53 65l109 -83l110 84l55 -64l-168 -131z" />
<glyph unicode="&#x2d8;" horiz-adv-x="470" d="M75 696h92q0 -38 15 -56.5t50 -18.5q71 0 71 75h92q0 -47 -12.5 -80t-34 -53.5t-51.5 -30t-65 -9.5q-157 0 -157 173z" />
<glyph unicode="&#x2d9;" horiz-adv-x="340" d="M92 613q0 33 22.5 55.5t55.5 22.5q32 0 55 -22.5t23 -55.5q0 -32 -23 -55t-55 -23q-33 0 -55.5 23t-22.5 55z" />
<glyph unicode="&#x2da;" horiz-adv-x="470" d="M125 614q0 23 8.5 42.5t23.5 34t35 23t43 8.5t43 -8.5t35 -23t23.5 -34t8.5 -42.5t-9 -42.5t-24 -33.5t-35 -22.5t-42 -8.5q-23 0 -43 8t-35 22.5t-23.5 34t-8.5 42.5zM188 614q0 -20 13.5 -33.5t33.5 -13.5t33.5 13.5t13.5 33.5t-13.5 34t-33.5 14t-33.5 -14t-13.5 -34z " />
<glyph unicode="&#x2db;" horiz-adv-x="470" d="M135 -113q0 18 8 35t20 32t26 27t26 19h79q-21 -14 -37.5 -36t-16.5 -45q0 -53 62 -53q8 0 17.5 1t19.5 3l8 -74q-41 -12 -79 -12q-28 0 -52.5 6.5t-42.5 19.5t-28 32t-10 45z" />
<glyph unicode="&#x2dc;" horiz-adv-x="470" d="M39 538q0 57 31 94.5t85 37.5q25 0 44.5 -8t37 -18t34.5 -18t35 -8q19 0 30 12.5t11 34.5h84q0 -60 -33 -96.5t-87 -36.5q-24 0 -45 8q-20 8 -38 18l-36 18q-16 8 -32 9q-17 0 -28 -13.5t-11 -33.5h-82z" />
<glyph unicode="&#x2dd;" horiz-adv-x="470" d="M35 551l101 163l88 -67l-126 -142zM228 549l117 162l89 -67l-143 -141z" />
<glyph unicode="&#x384;" horiz-adv-x="400" d="M96 556l134 149l90 -68l-159 -128z" />
<glyph unicode="&#x385;" horiz-adv-x="553" d="M44 611q0 28 20 47.5t48 19.5t48 -19.5t20 -47.5q0 -29 -20 -48.5t-48 -19.5t-48 19.5t-20 48.5zM221 767h111l-18 -211h-75zM373 611q0 28 20 47.5t48 19.5t48 -19.5t20 -47.5q0 -29 -20 -48.5t-48 -19.5t-48 19.5t-20 48.5z" />
<glyph unicode="&#x386;" horiz-adv-x="722" d="M30 0l278 709h122l284 -709h-136l-62 165h-294l-61 -165h-131zM261 272h215l-62 166l-13 35l-15 44l-18 53l-17 -53l-16 -43l-12 -36zM25 709h111l-18 -211h-75z" />
<glyph unicode="&#x388;" horiz-adv-x="705" d="M243 0v709h387v-113h-263v-176h255v-111h-255v-196h264v-113h-388zM23 709h111l-18 -211h-75z" />
<glyph unicode="&#x389;" horiz-adv-x="876" d="M242 0v709h124v-282h303v282h124v-709h-124v315h-303v-315h-124zM23 709h111l-18 -211h-75z" />
<glyph unicode="&#x38a;" horiz-adv-x="449" d="M242 0v709h124v-709h-124zM23 709h111l-18 -211h-75z" />
<glyph unicode="&#x38c;" horiz-adv-x="967" d="M181 353q0 76 29.5 143.5t80.5 118t119 80t145 29.5q78 0 146 -28.5t118.5 -78.5t79.5 -117.5t29 -145.5q0 -77 -30 -144t-81 -117.5t-119 -79.5t-145 -29q-78 0 -145.5 28.5t-118 78.5t-79.5 117.5t-29 144.5zM308 355q0 -52 19 -98t52 -80.5t78 -54.5t97 -20 q53 0 98 19.5t78 53.5t51.5 80t18.5 99t-18 99.5t-51 81t-78 54t-99 19.5q-53 0 -98 -20t-78 -54.5t-51.5 -80.5t-18.5 -98zM23 709h111l-18 -211h-75z" />
<glyph unicode="&#x38e;" horiz-adv-x="793" d="M198 709h142l154 -288l154 288h137l-233 -388v-321h-124v317zM23 709h111l-18 -211h-75z" />
<glyph unicode="&#x38f;" horiz-adv-x="962" d="M185 371q0 75 29.5 139.5t79.5 112t116.5 74.5t141.5 27q78 0 144.5 -26.5t116 -74t77.5 -112.5t28 -141q0 -44 -13 -82.5t-34 -71.5t-48.5 -59.5t-55.5 -45.5h134v-111h-268v137q31 12 59 33t50 50t35 65.5t13 80.5q0 51 -17.5 95t-49 77t-75.5 51.5t-97 18.5 q-52 0 -96 -18.5t-75.5 -51t-49 -76.5t-17.5 -94q0 -44 13 -81t34.5 -66t50 -50.5t58.5 -33.5v-137h-267v111h127q-28 19 -54 45.5t-46 59t-32 71.5t-12 84zM23 709h111l-18 -211h-75z" />
<glyph unicode="&#x390;" horiz-adv-x="248" d="M67 0v438h114v-438h-114zM-107 611q0 28 20 47.5t48 19.5t48 -19.5t20 -47.5q0 -29 -20 -48.5t-48 -19.5t-48 19.5t-20 48.5zM70 767h111l-18 -211h-75zM222 611q0 28 20 47.5t48 19.5t48 -19.5t20 -47.5q0 -29 -20 -48.5t-48 -19.5t-48 19.5t-20 48.5z" />
<glyph unicode="&#x391;" horiz-adv-x="701" d="M9 0l278 709h122l284 -709h-136l-62 165h-294l-61 -165h-131zM240 272h215l-62 166l-13 35l-15 44l-18 53l-17 -53l-16 -43l-12 -36z" />
<glyph unicode="&#x392;" horiz-adv-x="603" d="M82 0v709h202q62 0 103.5 -13t73.5 -46q22 -22 34 -52t12 -67q0 -52 -24 -88.5t-65 -59.5q28 -6 52 -21t42 -37t28.5 -51t10.5 -63q0 -89 -57 -146q-30 -30 -80.5 -47.5t-132.5 -17.5h-199zM204 103h88q71 0 103.5 27t32.5 78q0 22 -6.5 42t-20.5 34q-18 18 -45.5 26 t-66.5 8h-85v-215zM204 419h66q56 0 85 28q13 13 21 30.5t8 40.5q0 17 -5 33t-18 29q-14 14 -33 20.5t-51 6.5h-73v-188z" />
<glyph unicode="&#x393;" horiz-adv-x="464" d="M82 0v709h364v-113h-240v-596h-124z" />
<glyph unicode="&#x394;" horiz-adv-x="709" d="M9 0l281 709h124l286 -709h-691zM184 113h335l-123 321l-12 32l-14 38l-12 36l-8 25q-2 -9 -8 -25l-12 -36l-13 -37l-12 -33z" />
<glyph unicode="&#x395;" horiz-adv-x="544" d="M82 0v709h387v-113h-263v-176h255v-111h-255v-196h264v-113h-388z" />
<glyph unicode="&#x396;" horiz-adv-x="572" d="M3 0l346 600h-302v109h502l-345 -597h345v-112h-546z" />
<glyph unicode="&#x397;" horiz-adv-x="715" d="M82 0v709h124v-282h303v282h124v-709h-124v315h-303v-315h-124z" />
<glyph unicode="&#x398;" horiz-adv-x="826" d="M40 353q0 76 29.5 143.5t80.5 118t119 80t145 29.5q78 0 146 -28.5t118.5 -78.5t79.5 -117.5t29 -145.5q0 -77 -30 -144t-81 -117.5t-119 -79.5t-145 -29q-78 0 -145.5 28.5t-118 78.5t-79.5 117.5t-29 144.5zM167 355q0 -52 19 -98t52 -80.5t78 -54.5t97 -20 q53 0 98 19.5t78 53.5t51.5 80t18.5 99t-18 99.5t-51 81t-78 54t-99 19.5q-53 0 -98 -20t-78 -54.5t-51.5 -80.5t-18.5 -98zM230 302v110h360v-110h-360z" />
<glyph unicode="&#x399;" horiz-adv-x="288" d="M82 0v709h124v-709h-124z" />
<glyph unicode="&#x39a;" horiz-adv-x="649" d="M82 0v709h124v-316l248 316h149l-271 -332l285 -377h-157l-254 345v-345h-124z" />
<glyph unicode="&#x39b;" horiz-adv-x="686" d="M11 0l272 709h124l268 -709h-136l-150 418l-23 71l-23 71l-23 -72l-23 -67l-153 -421h-133z" />
<glyph unicode="&#x39c;" horiz-adv-x="906" d="M39 0l100 709h129l138 -386q13 -36 25 -75.5t23 -80.5l22 78l23 70l142 394h124l98 -709h-121l-46 381q-5 35 -8 76.5t-5 83.5q-11 -41 -22.5 -78.5t-22.5 -68.5l-143 -394h-91l-141 391q-11 31 -23 69l-22 78q-2 -42 -5.5 -83.5t-8.5 -79.5l-45 -375h-120z" />
<glyph unicode="&#x39d;" horiz-adv-x="779" d="M82 0v709h114l293 -392l52 -73l46 -69q-2 61 -3.5 117.5t-1.5 116.5v300h114v-709h-112l-309 412l-43 60l-41 60q2 -50 3 -98t4 -98v-336h-116z" />
<glyph unicode="&#x39e;" horiz-adv-x="637" d="M49 0v113h539v-113h-539zM51 595v114h536v-114h-536zM92 308v111h454v-111h-454z" />
<glyph unicode="&#x39f;" horiz-adv-x="826" d="M40 353q0 76 29.5 143.5t80.5 118t119 80t145 29.5q78 0 146 -28.5t118.5 -78.5t79.5 -117.5t29 -145.5q0 -77 -30 -144t-81 -117.5t-119 -79.5t-145 -29q-78 0 -145.5 28.5t-118 78.5t-79.5 117.5t-29 144.5zM167 355q0 -52 19 -98t52 -80.5t78 -54.5t97 -20 q53 0 98 19.5t78 53.5t51.5 80t18.5 99t-18 99.5t-51 81t-78 54t-99 19.5q-53 0 -98 -20t-78 -54.5t-51.5 -80.5t-18.5 -98z" />
<glyph unicode="&#x3a0;" horiz-adv-x="715" d="M82 0v709h551v-709h-124v595h-303v-595h-124z" />
<glyph unicode="&#x3a1;" horiz-adv-x="541" d="M82 0v709h181q66 0 115.5 -14t83.5 -48q55 -55 55 -148q0 -45 -15 -83t-43 -66q-34 -34 -85 -51t-114 -17h-55v-282h-123zM205 387h56q67 0 100 33q29 29 29 74q0 24 -7 44.5t-20 33.5q-15 15 -38 23t-60 8h-60v-216z" />
<glyph unicode="&#x3a3;" horiz-adv-x="610" d="M24 0l217 359l-107 175l-108 175h527v-110h-318l141 -231l-153 -255h337v-113h-536z" />
<glyph unicode="&#x3a4;" horiz-adv-x="470" d="M11 597v112h449v-111h-163v-598h-123v597h-163z" />
<glyph unicode="&#x3a5;" horiz-adv-x="604" d="M9 709h142l154 -288l154 288h137l-233 -388v-321h-124v317z" />
<glyph unicode="&#x3a6;" horiz-adv-x="817" d="M33 350q0 60 19.5 110t58 86.5t94.5 56.5t128 20h13v86h122v-86h30q66 0 119 -19t90 -53.5t57 -83t20 -107.5q0 -61 -20.5 -111t-58.5 -86t-94 -56t-126 -20h-17v-87h-122v87h-26q-67 0 -120 19.5t-90 54t-57 83t-20 106.5zM161 355q0 -81 46 -122.5t123 -41.5h16v328 h-16q-169 0 -169 -164zM468 191h20q87 0 127.5 42.5t40.5 122.5t-45 121.5t-123 41.5h-20v-328z" />
<glyph unicode="&#x3a7;" horiz-adv-x="640" d="M16 0l239 369l-219 340h145l142 -241l144 241h144l-223 -338l235 -371h-143l-162 271l-160 -271h-142z" />
<glyph unicode="&#x3a8;" horiz-adv-x="811" d="M62 448v261h124v-250q0 -53 11 -87.5t29.5 -54.5t42.5 -28t50 -8h23v428h124v-428h24q24 0 48.5 6.5t43.5 25t31 52.5t12 88v256h124v-256q0 -78 -20.5 -131.5t-56 -87t-83 -48t-100.5 -14.5h-23v-172h-124v172h-23q-57 0 -104.5 16t-81 49.5t-52.5 85.5t-19 125z" />
<glyph unicode="&#x3a9;" horiz-adv-x="821" d="M44 371q0 75 29.5 139.5t79.5 112t116.5 74.5t141.5 27q78 0 144.5 -26.5t116 -74t77.5 -112.5t28 -141q0 -44 -13 -82.5t-34 -71.5t-48.5 -59.5t-55.5 -45.5h134v-111h-268v137q31 12 59 33t50 50t35 65.5t13 80.5q0 51 -17.5 95t-49 77t-75.5 51.5t-97 18.5 q-52 0 -96 -18.5t-75.5 -51t-49 -76.5t-17.5 -94q0 -44 13 -81t34.5 -66t50 -50.5t58.5 -33.5v-137h-267v111h127q-28 19 -54 45.5t-46 59t-32 71.5t-12 84z" />
<glyph unicode="&#x3aa;" horiz-adv-x="288" d="M82 0v709h124v-709h-124zM-25 827q0 29 20 49t49 20t49.5 -20t20.5 -49t-20.5 -49.5t-49.5 -20.5t-49 20.5t-20 49.5zM175 827q0 29 20.5 49t49.5 20t49 -20t20 -49t-20 -49.5t-49 -20.5t-49.5 20.5t-20.5 49.5z" />
<glyph unicode="&#x3ab;" horiz-adv-x="604" d="M9 709h142l154 -288l154 288h137l-233 -388v-321h-124v317zM130 827q0 29 20 49t49 20t49.5 -20t20.5 -49t-20.5 -49.5t-49.5 -20.5t-49 20.5t-20 49.5zM330 827q0 29 20.5 49t49.5 20t49 -20t20 -49t-20 -49.5t-49 -20.5t-49.5 20.5t-20.5 49.5z" />
<glyph unicode="&#x3ac;" d="M41 214q0 51 16 94t44.5 74.5t68.5 49.5t88 18q46 0 83.5 -18.5t59.5 -49.5v56h113v-438h-113v54q-25 -30 -62.5 -48t-86.5 -18q-47 0 -86 17t-66.5 47t-43 71.5t-15.5 90.5zM158 218q0 -28 9.5 -53t26 -43.5t39.5 -29.5t50 -11q28 0 51 10.5t39 28.5t24.5 42.5t8.5 52.5 q0 59 -35 97t-91 38q-26 0 -48 -10t-38.5 -27.5t-26 -42t-9.5 -52.5zM228 556l134 149l90 -68l-159 -128z" />
<glyph unicode="&#x3ad;" horiz-adv-x="429" d="M41 124q0 24 9 42t22 31t28.5 21.5t28.5 11.5q-12 4 -25 12t-23.5 20t-17.5 28.5t-7 36.5q0 30 14 52.5t38.5 38.5t58.5 24t73 8q31 0 56 -5t44.5 -12t33.5 -15l20 -11l-39 -73q-4 3 -14.5 7.5t-24.5 9t-32 7.5t-37 3q-29 0 -50 -11t-21 -34q0 -26 19.5 -38t51.5 -12h85 v-81h-92q-37 0 -57 -14t-20 -43q0 -24 22 -36.5t59 -12.5q21 0 40.5 3t35 7.5t27 9t15.5 7.5l38 -79q-7 -4 -21.5 -10.5t-36.5 -13t-51 -11t-64 -4.5q-90 0 -138 36t-48 100zM152 556l134 149l90 -68l-159 -128z" />
<glyph unicode="&#x3ae;" horiz-adv-x="538" d="M66 0v438h112v-58q18 24 51.5 45.5t88.5 21.5q41 0 69 -12t47 -30q22 -22 31.5 -53t9.5 -76v-477h-114v453q0 43 -18 70.5t-62 27.5q-17 0 -35 -6.5t-33 -20t-24.5 -34t-9.5 -49.5v-240h-113zM203 556l134 149l90 -68l-159 -128z" />
<glyph unicode="&#x3af;" horiz-adv-x="248" d="M67 0v438h114v-438h-114zM45 556l134 149l90 -68l-159 -128z" />
<glyph unicode="&#x3b0;" horiz-adv-x="540" d="M63 202v236h114v-229q0 -26 3.5 -48.5t14 -39t29 -26.5t48.5 -10t47.5 10.5t27.5 28t13 39t3 43.5v232h114v-229q0 -54 -10.5 -96t-40.5 -72q-29 -29 -69 -41.5t-88 -12.5q-100 0 -157 57q-26 26 -37.5 64.5t-11.5 93.5zM39 611q0 28 20 47.5t48 19.5t48 -19.5t20 -47.5 q0 -29 -20 -48.5t-48 -19.5t-48 19.5t-20 48.5zM216 767h111l-18 -211h-75zM368 611q0 28 20 47.5t48 19.5t48 -19.5t20 -47.5q0 -29 -20 -48.5t-48 -19.5t-48 19.5t-20 48.5z" />
<glyph unicode="&#x3b1;" d="M41 214q0 51 16 94t44.5 74.5t68.5 49.5t88 18q46 0 83.5 -18.5t59.5 -49.5v56h113v-438h-113v54q-25 -30 -62.5 -48t-86.5 -18q-47 0 -86 17t-66.5 47t-43 71.5t-15.5 90.5zM158 218q0 -28 9.5 -53t26 -43.5t39.5 -29.5t50 -11q28 0 51 10.5t39 28.5t24.5 42.5t8.5 52.5 q0 59 -35 97t-91 38q-26 0 -48 -10t-38.5 -27.5t-26 -42t-9.5 -52.5z" />
<glyph unicode="&#x3b2;" horiz-adv-x="571" d="M66 -201v740q0 43 12 82t37 69t63 48t89 18q50 0 87 -15.5t62 -42t37 -62.5t12 -76q0 -38 -10 -64t-24 -43t-28.5 -25.5t-23.5 -10.5q10 -3 34.5 -12t50 -31t45 -59t19.5 -96q0 -45 -15.5 -87t-43.5 -73.5t-68.5 -50.5t-89.5 -19q-29 0 -52.5 6.5t-40 15t-26.5 17 t-13 12.5v-241h-113zM179 147q3 -6 10.5 -17t20.5 -21.5t32 -18.5t45 -8q28 0 50.5 11t38 29t24 42t8.5 50t-9 50.5t-26 43t-41 30t-54 11.5h-54v89h26q46 0 71.5 28.5t25.5 84.5q0 51 -22.5 79.5t-61.5 28.5q-42 0 -63 -26.5t-21 -69.5v-416z" />
<glyph unicode="&#x3b3;" horiz-adv-x="508" d="M3 438h129l87 -215q10 -24 20 -53.5t18 -57.5q8 28 18.5 57t20.5 54l85 215h124l-97 -222l-98 -219v-198h-113v199z" />
<glyph unicode="&#x3b4;" horiz-adv-x="565" d="M41 217q0 49 19 91.5t50 73t70.5 48t80.5 17.5q15 0 26 -2t16 -4l-156 248v58h314v-94h-161l168 -268q25 -39 40.5 -78t15.5 -86t-17.5 -89.5t-49.5 -74.5t-77.5 -51t-102.5 -19q-50 0 -93 17t-74.5 47.5t-50 73t-18.5 92.5zM155 219q0 -28 10 -52t27.5 -41t41 -27 t49.5 -10q27 0 50 9.5t39.5 27t26 40.5t9.5 50q0 29 -9 54t-26 43.5t-41 29t-53 10.5q-27 0 -50 -10.5t-39.5 -28.5t-25.5 -42.5t-9 -52.5z" />
<glyph unicode="&#x3b5;" horiz-adv-x="429" d="M41 124q0 24 9 42t22 31t28.5 21.5t28.5 11.5q-12 4 -25 12t-23.5 20t-17.5 28.5t-7 36.5q0 30 14 52.5t38.5 38.5t58.5 24t73 8q31 0 56 -5t44.5 -12t33.5 -15l20 -11l-39 -73q-4 3 -14.5 7.5t-24.5 9t-32 7.5t-37 3q-29 0 -50 -11t-21 -34q0 -26 19.5 -38t51.5 -12h85 v-81h-92q-37 0 -57 -14t-20 -43q0 -24 22 -36.5t59 -12.5q21 0 40.5 3t35 7.5t27 9t15.5 7.5l38 -79q-7 -4 -21.5 -10.5t-36.5 -13t-51 -11t-64 -4.5q-90 0 -138 36t-48 100z" />
<glyph unicode="&#x3b6;" horiz-adv-x="453" d="M45 202q0 27 7 54t17.5 52t22.5 46t23 37l182 259h-201v97h345v-70l-226 -327q-17 -23 -33 -57.5t-16 -76.5q0 -44 21 -69t52.5 -40t68.5 -26.5t68.5 -28.5t52.5 -46t21 -79q0 -40 -15.5 -72.5t-38.5 -67.5l-87 52q18 29 26 44.5t8 29.5q0 23 -22 37t-55 26l-72 26 q-39 14 -72 39t-55 63.5t-22 97.5z" />
<glyph unicode="&#x3b7;" horiz-adv-x="538" d="M66 0v438h112v-58q18 24 51.5 45.5t88.5 21.5q41 0 69 -12t47 -30q22 -22 31.5 -53t9.5 -76v-477h-114v453q0 43 -18 70.5t-62 27.5q-17 0 -35 -6.5t-33 -20t-24.5 -34t-9.5 -49.5v-240h-113z" />
<glyph unicode="&#x3b8;" horiz-adv-x="594" d="M50 367q0 80 14.5 151t44.5 124t77 84t113 31q68 0 115 -30t76 -81.5t41.5 -120.5t12.5 -147q0 -80 -15 -151.5t-45.5 -124.5t-78 -84t-113.5 -31q-67 0 -113 30t-74.5 81.5t-41.5 121t-13 147.5zM169 332q2 -52 9 -96.5t22 -77.5t38.5 -51.5t58.5 -18.5q34 0 57 20 t38 54t22 78t9 92h-254zM170 420h252q-2 51 -9.5 94t-22.5 74.5t-38.5 49.5t-58.5 18q-32 0 -54 -19t-37 -51t-22.5 -75t-9.5 -91z" />
<glyph unicode="&#x3b9;" horiz-adv-x="248" d="M67 0v438h114v-438h-114z" />
<glyph unicode="&#x3ba;" horiz-adv-x="487" d="M66 0v438h113v-188l153 188h143l-182 -206l190 -232h-150l-154 203v-203h-113z" />
<glyph unicode="&#x3bb;" horiz-adv-x="534" d="M3 0l213 457l-123 292h123l313 -749h-126l-87 216q-12 26 -22 54l-19 54q-5 -14 -13 -32l-16 -38l-16 -36l-12 -30l-82 -188h-133z" />
<glyph unicode="&#x3bc;" horiz-adv-x="548" d="M66 -201v639h113v-224q0 -54 23 -89.5t73 -35.5q25 0 42.5 11t29 29t17 41t5.5 47v221h113v-438h-109v53q-11 -24 -35.5 -45t-64.5 -21q-39 0 -61.5 19t-32.5 38v-245h-113z" />
<glyph unicode="&#x3bd;" horiz-adv-x="508" d="M3 438h129l87 -215q9 -23 19.5 -53t18.5 -58q8 28 18.5 57t20.5 54l85 215h124l-192 -438h-117z" />
<glyph unicode="&#x3be;" horiz-adv-x="451" d="M45 207q0 51 20 87t45.5 58.5t50.5 34t35 13.5q-10 3 -27.5 14t-34 30.5t-28.5 47.5t-12 66q0 45 17 81.5t46.5 62.5t69 40t83.5 14q46 0 76.5 -9.5t43.5 -14.5v-99q-11 6 -40.5 16.5t-76.5 10.5q-23 0 -42.5 -8.5t-33.5 -23.5t-22 -34.5t-8 -41.5q0 -24 9.5 -45 t25.5 -36t36.5 -24t42.5 -9h90v-91h-101q-33 0 -60 -10t-46.5 -28t-30 -42.5t-10.5 -52.5q0 -44 21 -69t52.5 -40t68 -25.5t68 -27.5t52.5 -46t21 -79q0 -39 -15.5 -72.5t-38.5 -67.5l-87 52q17 27 25.5 43t8.5 32q0 22 -22 36q-23 13 -55 26l-70 28q-38 16 -70.5 41.5 t-54.5 64t-22 97.5z" />
<glyph unicode="&#x3bf;" horiz-adv-x="561" d="M41 218q0 48 18 90t50 73.5t76 50t96 18.5q51 0 95 -17.5t76 -48t50 -73t18 -92.5q0 -46 -17.5 -88t-49.5 -74t-77 -51t-100 -19q-50 0 -93 17t-74.5 48t-49.5 73.5t-18 92.5zM156 219q0 -28 10 -52t27 -41.5t39.5 -27.5t48.5 -10q27 0 49.5 10.5t39 28.5t25.5 41.5 t9 49.5q0 28 -9.5 52t-26.5 41.5t-40 27.5t-49 10q-27 0 -49.5 -10.5t-39 -28t-25.5 -41t-9 -50.5z" />
<glyph unicode="&#x3c0;" horiz-adv-x="597" d="M25 342v96h547v-96h-78v-342h-113v342h-165v-342h-113v342h-78z" />
<glyph unicode="&#x3c1;" horiz-adv-x="576" d="M63 -201v411q0 49 15 93t45 76.5t74 51.5t102 19q52 0 95.5 -17.5t74.5 -48.5t48.5 -73t17.5 -90q0 -46 -15.5 -88t-43.5 -74t-68 -51t-89 -19q-47 0 -83.5 17t-59.5 46v-253h-113zM172 215q0 -59 34 -96t89 -37q28 0 50.5 11t38 29.5t24 42.5t8.5 51t-8.5 51t-24 42.5 t-38.5 29.5t-51 11t-50.5 -10.5t-38.5 -29t-24.5 -43t-8.5 -52.5z" />
<glyph unicode="&#x3c2;" horiz-adv-x="431" d="M41 216q0 45 16.5 87.5t47 74.5t75 51.5t100.5 19.5q31 0 62.5 -6t55.5 -17v-108q-20 13 -48.5 21.5t-57.5 8.5t-53 -9.5t-41 -26.5t-27 -40.5t-10 -51.5q0 -54 29 -85t69 -49q30 -14 59 -25.5t51 -28t35.5 -41t13.5 -64.5t-15.5 -72.5t-38.5 -67.5l-87 52q18 29 26 44.5 t8 29.5q0 16 -10 27t-28.5 20t-44 19t-56.5 25q-26 13 -50 33.5t-42 47t-28.5 59.5t-10.5 72z" />
<glyph unicode="&#x3c3;" horiz-adv-x="571" d="M41 218q0 48 18.5 90t51.5 73.5t78 49.5t97 18q26 0 49 -1.5t46.5 -4t48.5 -4t55 -1.5h46v-94h-30q-22 0 -41 2t-30 4q12 -8 27 -21t28.5 -32t22.5 -43t9 -52q0 -45 -16.5 -84.5t-47.5 -68.5t-75 -45.5t-99 -16.5q-50 0 -93.5 17t-75.5 48t-50.5 73.5t-18.5 92.5z M156 218q0 -27 9.5 -50.5t26.5 -41t40 -28t49 -10.5q27 0 49.5 9t39 25t25.5 37.5t9 47.5q0 27 -10 52t-27 44.5t-39.5 31t-48.5 11.5t-48.5 -10t-39 -27.5t-26 -40.5t-9.5 -50z" />
<glyph unicode="&#x3c4;" horiz-adv-x="397" d="M11 342v96h375v-96h-131v-342h-113v342h-131z" />
<glyph unicode="&#x3c5;" horiz-adv-x="540" d="M63 202v236h114v-229q0 -26 3.5 -48.5t14 -39t29 -26.5t48.5 -10t47.5 10.5t27.5 28t13 39t3 43.5v232h114v-229q0 -54 -10.5 -96t-40.5 -72q-29 -29 -69 -41.5t-88 -12.5q-100 0 -157 57q-26 26 -37.5 64.5t-11.5 93.5z" />
<glyph unicode="&#x3c6;" horiz-adv-x="757" d="M44 212q0 42 12.5 77t31 63.5t39 49.5t37.5 36h107q-17 -18 -36 -42t-35.5 -52t-27.5 -59t-11 -63q0 -29 10 -53.5t28.5 -42.5t45.5 -27t61 -7v144q0 43 12.5 82t37.5 68t62.5 46t87.5 17q55 0 94.5 -17t64.5 -47t36.5 -71.5t11.5 -90.5q0 -53 -19.5 -94t-53 -70t-80 -44 t-100.5 -15h-41v-201h-113v201h-21q-57 0 -102 16t-75.5 44.5t-47 67.5t-16.5 84zM419 92h50q27 0 50 8t40.5 24t27.5 39.5t10 54.5q0 62 -21.5 99.5t-76.5 37.5q-25 0 -40.5 -9.5t-24.5 -25t-12 -35t-3 -39.5v-154z" />
<glyph unicode="&#x3c7;" horiz-adv-x="497" d="M2 0l178 224l-165 214h138l51 -72l46 -70l48 71l50 71h136l-164 -212l175 -226h-138l-55 80l-52 78q-24 -39 -54 -80l-57 -78h-137z" />
<glyph unicode="&#x3c8;" horiz-adv-x="693" d="M63 214v224h114v-219q0 -23 3 -45t12 -39t26 -27.5t46 -10.5h26v461h114v-461h27q28 0 45 11t26 28.5t11.5 38.5t2.5 42v221h114v-217q0 -41 -8 -80.5t-29.5 -70.5t-61 -50.5t-102.5 -19.5h-25v-201h-114v201h-27q-63 0 -102 19t-60.5 50t-29.5 69t-8 76z" />
<glyph unicode="&#x3c9;" horiz-adv-x="758" d="M44 197q0 48 15.5 89.5t35.5 73t39 52t25 26.5h108q-17 -21 -35.5 -48t-33.5 -58t-24.5 -63.5t-9.5 -64.5q0 -24 4 -45.5t14 -38.5t26 -27t40 -10q41 0 58 34.5t17 83.5v147h110v-145q0 -25 4 -46.5t13 -38t24 -26t37 -9.5q24 0 39.5 10.5t25.5 27t14 38t4 43.5 q0 31 -10 64t-25 64.5t-33.5 59t-35.5 48.5h110q6 -6 24.5 -26.5t38.5 -51.5t35.5 -72t15.5 -88q0 -44 -11 -83t-34.5 -68t-61.5 -45.5t-92 -16.5q-55 0 -88.5 26t-48.5 69q-16 -44 -50 -69.5t-88 -25.5t-91 16.5t-60.5 45t-34 67t-10.5 81.5z" />
<glyph unicode="&#x3ca;" horiz-adv-x="248" d="M67 0v438h114v-438h-114zM-43 611q0 29 20 49t49 20t49.5 -20t20.5 -49t-20.5 -49.5t-49.5 -20.5t-49 20.5t-20 49.5zM157 611q0 29 20.5 49t49.5 20t49 -20t20 -49t-20 -49.5t-49 -20.5t-49.5 20.5t-20.5 49.5z" />
<glyph unicode="&#x3cb;" horiz-adv-x="540" d="M63 202v236h114v-229q0 -26 3.5 -48.5t14 -39t29 -26.5t48.5 -10t47.5 10.5t27.5 28t13 39t3 43.5v232h114v-229q0 -54 -10.5 -96t-40.5 -72q-29 -29 -69 -41.5t-88 -12.5q-100 0 -157 57q-26 26 -37.5 64.5t-11.5 93.5zM99 611q0 29 20 49t49 20t49.5 -20t20.5 -49 t-20.5 -49.5t-49.5 -20.5t-49 20.5t-20 49.5zM299 611q0 29 20.5 49t49.5 20t49 -20t20 -49t-20 -49.5t-49 -20.5t-49.5 20.5t-20.5 49.5z" />
<glyph unicode="&#x3cc;" horiz-adv-x="561" d="M41 218q0 48 18 90t50 73.5t76 50t96 18.5q51 0 95 -17.5t76 -48t50 -73t18 -92.5q0 -46 -17.5 -88t-49.5 -74t-77 -51t-100 -19q-50 0 -93 17t-74.5 48t-49.5 73.5t-18 92.5zM156 219q0 -28 10 -52t27 -41.5t39.5 -27.5t48.5 -10q27 0 49.5 10.5t39 28.5t25.5 41.5 t9 49.5q0 28 -9.5 52t-26.5 41.5t-40 27.5t-49 10q-27 0 -49.5 -10.5t-39 -28t-25.5 -41t-9 -50.5zM209 556l134 149l90 -68l-159 -128z" />
<glyph unicode="&#x3cd;" horiz-adv-x="540" d="M63 202v236h114v-229q0 -26 3.5 -48.5t14 -39t29 -26.5t48.5 -10t47.5 10.5t27.5 28t13 39t3 43.5v232h114v-229q0 -54 -10.5 -96t-40.5 -72q-29 -29 -69 -41.5t-88 -12.5q-100 0 -157 57q-26 26 -37.5 64.5t-11.5 93.5zM205 556l134 149l90 -68l-159 -128z" />
<glyph unicode="&#x3ce;" horiz-adv-x="758" d="M44 197q0 48 15.5 89.5t35.5 73t39 52t25 26.5h108q-17 -21 -35.5 -48t-33.5 -58t-24.5 -63.5t-9.5 -64.5q0 -24 4 -45.5t14 -38.5t26 -27t40 -10q41 0 58 34.5t17 83.5v147h110v-145q0 -25 4 -46.5t13 -38t24 -26t37 -9.5q24 0 39.5 10.5t25.5 27t14 38t4 43.5 q0 31 -10 64t-25 64.5t-33.5 59t-35.5 48.5h110q6 -6 24.5 -26.5t38.5 -51.5t35.5 -72t15.5 -88q0 -44 -11 -83t-34.5 -68t-61.5 -45.5t-92 -16.5q-55 0 -88.5 26t-48.5 69q-16 -44 -50 -69.5t-88 -25.5t-91 16.5t-60.5 45t-34 67t-10.5 81.5zM309 556l134 149l90 -68 l-159 -128z" />
<glyph unicode="&#x401;" horiz-adv-x="544" d="M82 0v709h387v-113h-263v-176h255v-111h-255v-196h264v-113h-388zM115 827q0 29 20 49t49 20t49.5 -20t20.5 -49t-20.5 -49.5t-49.5 -20.5t-49 20.5t-20 49.5zM315 827q0 29 20.5 49t49.5 20t49 -20t20 -49t-20 -49.5t-49 -20.5t-49.5 20.5t-20.5 49.5z" />
<glyph unicode="&#x402;" horiz-adv-x="723" d="M10 597v112h484v-112h-180v-179q17 1 36 3q17 2 37.5 3t42.5 1q57 0 103.5 -12t80.5 -38t52.5 -66t18.5 -96q0 -43 -14.5 -82.5t-47.5 -70t-87.5 -49t-134.5 -18.5v103q77 0 116.5 28.5t39.5 85.5q0 48 -32 79.5t-105 31.5q-20 0 -39 -1t-34 -3q-18 -2 -33 -3v-314h-124 v597h-180z" />
<glyph unicode="&#x403;" horiz-adv-x="464" d="M82 0v709h364v-113h-240v-596h-124zM166 800l142 120l88 -74l-175 -103z" />
<glyph unicode="&#x404;" horiz-adv-x="641" d="M40 350q0 81 27 149t75 117t114.5 76.5t145.5 27.5q54 0 100 -10t87 -29v-132q-35 25 -85 42t-103 17q-42 0 -79.5 -13.5t-67 -38.5t-50 -60.5t-29.5 -80.5h334v-110h-335q7 -44 26.5 -81.5t50 -64.5t70.5 -42.5t88 -15.5q56 0 102.5 15t81.5 40v-125q-39 -20 -90 -31.5 t-107 -11.5q-80 0 -146 28.5t-112.5 77.5t-72 115t-25.5 141z" />
<glyph unicode="&#x405;" horiz-adv-x="531" d="M32 105l88 77q10 -18 23.5 -34t30.5 -29t37 -20.5t44 -7.5q46 0 73.5 28t27.5 70q0 36 -22 59t-54.5 41.5t-71 36.5t-71 43t-54.5 62t-22 93q0 43 17 79.5t46 63.5t68 42t83 15q64 0 115 -27.5t83 -76.5l-84 -73q-19 34 -48 53.5t-64 19.5q-41 0 -66 -25.5t-25 -64.5 q0 -35 22 -57t55 -40t71.5 -35.5t71.5 -42.5t55 -61.5t22 -91.5q0 -48 -18 -88t-49 -68.5t-74 -44.5t-92 -16q-75 0 -130 33t-88 87z" />
<glyph unicode="&#x406;" horiz-adv-x="288" d="M82 0v709h124v-709h-124z" />
<glyph unicode="&#x407;" horiz-adv-x="304" d="M6 825q0 27 19.5 46.5t46.5 19.5q28 0 47.5 -19.5t19.5 -46.5q0 -28 -19.5 -47.5t-47.5 -19.5q-27 0 -46.5 19.5t-19.5 47.5zM90 0v709h124v-709h-124zM165 825q0 27 19.5 46.5t47.5 19.5q27 0 46.5 -19.5t19.5 -46.5q0 -28 -19.5 -47.5t-46.5 -19.5q-28 0 -47.5 19.5 t-19.5 47.5z" />
<glyph unicode="&#x408;" horiz-adv-x="434" d="M0 96l91 72q14 -29 35 -47.5t48 -18.5q11 0 20 4t15 10q12 12 17 32t5 56v505h123v-500q0 -64 -12.5 -104.5t-42.5 -70.5q-47 -47 -133 -47q-26 0 -51 8t-46.5 22.5t-39 34.5t-29.5 44z" />
<glyph unicode="&#x409;" horiz-adv-x="954" d="M15 -7v106q4 0 10 -0.5t14 -0.5q38 0 56 22t18 77v512h448v-284h105q123 0 190.5 -52t67.5 -158q0 -48 -17.5 -87.5t-51 -68t-82 -44t-110.5 -15.5h-226v595h-200v-329q0 -72 -7.5 -123.5t-28.5 -85.5t-57.5 -50t-94.5 -16q-11 0 -21 0.5t-13 1.5zM561 104h106 q63 0 96 28t33 79q0 48 -28 78.5t-98 30.5h-109v-216z" />
<glyph unicode="&#x40a;" horiz-adv-x="983" d="M82 0v709h124v-284h257v284h124v-284h107q122 0 190.5 -51t68.5 -159q0 -48 -17.5 -87.5t-50.5 -68t-82 -44t-112 -15.5h-228v317h-257v-317h-124zM587 104h109q63 0 96 29t33 78t-28 79t-98 30h-112v-216z" />
<glyph unicode="&#x40b;" horiz-adv-x="734" d="M10 597v112h485v-112h-181v-177q17 1 37 2q17 1 39 2t47 1q34 0 76 -6t79 -29t62 -68t25 -122v-200h-124v183q0 40 -9 66t-25.5 41t-41 21t-54.5 6q-23 0 -43 -1t-35 -2q-18 -1 -33 -2v-312h-124v597h-180z" />
<glyph unicode="&#x40c;" horiz-adv-x="649" d="M82 0v709h124v-316l248 316h149l-271 -332l285 -377h-157l-254 345v-345h-124zM243 800l142 120l88 -74l-175 -103z" />
<glyph unicode="&#x40e;" horiz-adv-x="626" d="M11 709h141l109 -237q7 -17 16 -37l17 -39l14 -34q6 -16 9 -22l12 27l21 47l26 60l30 65l75 170h135l-331 -709h-137l105 220zM161 922h92q0 -38 15 -56.5t50 -18.5q71 0 71 75h92q0 -47 -12.5 -80t-34 -53.5t-51.5 -30t-65 -9.5q-157 0 -157 173z" />
<glyph unicode="&#x40f;" horiz-adv-x="715" d="M82 0v709h124v-595h303v595h124v-709h-216v-161h-118v161h-217z" />
<glyph unicode="&#x410;" horiz-adv-x="701" d="M9 0l278 709h122l284 -709h-136l-62 165h-294l-61 -165h-131zM240 272h215l-62 166l-13 35l-15 44l-18 53l-17 -53l-16 -43l-12 -36z" />
<glyph unicode="&#x411;" horiz-adv-x="608" d="M82 0v709h415v-114h-291v-170h108q126 0 192 -52.5t66 -157.5q0 -48 -17.5 -87.5t-51 -68t-82 -44t-110.5 -15.5h-229zM206 104h109q63 0 96 28t33 79q0 48 -28 78.5t-98 30.5h-112v-216z" />
<glyph unicode="&#x412;" horiz-adv-x="603" d="M82 0v709h202q62 0 103.5 -13t73.5 -46q22 -22 34 -52t12 -67q0 -52 -24 -88.5t-65 -59.5q28 -6 52 -21t42 -37t28.5 -51t10.5 -63q0 -89 -57 -146q-30 -30 -80.5 -47.5t-132.5 -17.5h-199zM204 103h88q71 0 103.5 27t32.5 78q0 22 -6.5 42t-20.5 34q-18 18 -45.5 26 t-66.5 8h-85v-215zM204 419h66q56 0 85 28q13 13 21 30.5t8 40.5q0 17 -5 33t-18 29q-14 14 -33 20.5t-51 6.5h-73v-188z" />
<glyph unicode="&#x413;" horiz-adv-x="464" d="M82 0v709h364v-113h-240v-596h-124z" />
<glyph unicode="&#x414;" horiz-adv-x="707" d="M7 101q19 3 43 18t45.5 44.5t36 75.5t14.5 111v359h457v-595h84v-243h-119v129h-442v-129h-119v230zM180 114h299v481h-210v-216q0 -67 -8.5 -114t-22 -78.5t-29 -48.5t-29.5 -24z" />
<glyph unicode="&#x415;" horiz-adv-x="544" d="M82 0v709h387v-113h-263v-176h255v-111h-255v-196h264v-113h-388z" />
<glyph unicode="&#x416;" horiz-adv-x="1006" d="M34 709h157l124 -159l124 -158v317h124v-316l248 316h149l-271 -332l285 -377h-157l-254 345v-345h-124v345l-253 -345h-151l283 362z" />
<glyph unicode="&#x417;" horiz-adv-x="572" d="M32 189h127q5 -47 36 -73t82 -26q55 0 87 30.5t32 79.5q0 50 -34.5 81t-104.5 31h-64v103h61q60 0 92 28t32 75q0 44 -28 71t-75 27t-73.5 -24t-29.5 -63h-127q2 41 18.5 76.5t46.5 62t72.5 41.5t97.5 15q51 0 92.5 -16t70.5 -43t45 -63t16 -77q0 -57 -26.5 -96 t-71.5 -59q24 -6 45.5 -22t37.5 -38t25.5 -49t9.5 -55q0 -43 -15 -83t-46 -71t-77 -49.5t-109 -18.5q-51 0 -95 13t-76 39t-51.5 64.5t-22.5 88.5z" />
<glyph unicode="&#x418;" horiz-adv-x="778" d="M82 0v709h123v-288q0 -79 -1 -142.5t-3 -97.5l379 528h116v-709h-124v287q0 79 1 142t3 97l-378 -526h-116z" />
<glyph unicode="&#x419;" horiz-adv-x="778" d="M82 0v709h123v-288q0 -79 -1 -142.5t-3 -97.5l379 528h116v-709h-124v287q0 79 1 142t3 97l-378 -526h-116zM234 922h92q0 -38 15 -56.5t50 -18.5q71 0 71 75h92q0 -47 -12.5 -80t-34 -53.5t-51.5 -30t-65 -9.5q-157 0 -157 173z" />
<glyph unicode="&#x41a;" horiz-adv-x="649" d="M82 0v709h124v-316l248 316h149l-271 -332l285 -377h-157l-254 345v-345h-124z" />
<glyph unicode="&#x41b;" horiz-adv-x="658" d="M15 -7v106q4 0 10 -0.5t14 -0.5q38 0 56 22t18 77v512h463v-709h-124v595h-215v-329q0 -72 -7.5 -123.5t-28.5 -85.5t-57.5 -50t-94.5 -16q-11 0 -21 0.5t-13 1.5z" />
<glyph unicode="&#x41c;" horiz-adv-x="906" d="M39 0l100 709h129l138 -386q13 -36 25 -75.5t23 -80.5l22 78l23 70l142 394h124l98 -709h-121l-46 381q-5 35 -8 76.5t-5 83.5q-11 -41 -22.5 -78.5t-22.5 -68.5l-143 -394h-91l-141 391q-11 31 -23 69l-22 78q-2 -42 -5.5 -83.5t-8.5 -79.5l-45 -375h-120z" />
<glyph unicode="&#x41d;" horiz-adv-x="715" d="M82 0v709h124v-282h303v282h124v-709h-124v315h-303v-315h-124z" />
<glyph unicode="&#x41e;" horiz-adv-x="826" d="M40 353q0 76 29.5 143.5t80.5 118t119 80t145 29.5q78 0 146 -28.5t118.5 -78.5t79.5 -117.5t29 -145.5q0 -77 -30 -144t-81 -117.5t-119 -79.5t-145 -29q-78 0 -145.5 28.5t-118 78.5t-79.5 117.5t-29 144.5zM167 355q0 -52 19 -98t52 -80.5t78 -54.5t97 -20 q53 0 98 19.5t78 53.5t51.5 80t18.5 99t-18 99.5t-51 81t-78 54t-99 19.5q-53 0 -98 -20t-78 -54.5t-51.5 -80.5t-18.5 -98z" />
<glyph unicode="&#x41f;" horiz-adv-x="715" d="M82 0v709h551v-709h-124v595h-303v-595h-124z" />
<glyph unicode="&#x420;" horiz-adv-x="541" d="M82 0v709h181q66 0 115.5 -14t83.5 -48q55 -55 55 -148q0 -45 -15 -83t-43 -66q-34 -34 -85 -51t-114 -17h-55v-282h-123zM205 387h56q67 0 100 33q29 29 29 74q0 24 -7 44.5t-20 33.5q-15 15 -38 23t-60 8h-60v-216z" />
<glyph unicode="&#x421;" horiz-adv-x="645" d="M43 350q0 81 27 148.5t75 116.5t114.5 76.5t145.5 27.5q105 0 187 -38v-134q-35 26 -84.5 42.5t-102.5 16.5q-49 0 -91.5 -18t-73.5 -51t-49 -79.5t-18 -104.5q0 -52 16.5 -97.5t47.5 -79.5t75.5 -53.5t99.5 -19.5q56 0 102.5 14.5t81.5 40.5v-127q-39 -20 -90 -31 t-107 -11q-80 0 -145.5 28t-112.5 77t-72.5 115t-25.5 141z" />
<glyph unicode="&#x422;" horiz-adv-x="470" d="M11 597v112h449v-111h-163v-598h-123v597h-163z" />
<glyph unicode="&#x423;" horiz-adv-x="626" d="M11 709h141l109 -237q7 -17 16 -37l17 -39l14 -34q6 -16 9 -22l12 27l21 47l26 60l30 65l75 170h135l-331 -709h-137l105 220z" />
<glyph unicode="&#x424;" horiz-adv-x="817" d="M33 350q0 60 19.5 110t58 86.5t94.5 56.5t128 20h13v86h122v-86h30q66 0 119 -19t90 -53.5t57 -83t20 -107.5q0 -61 -20.5 -111t-58.5 -86t-94 -56t-126 -20h-17v-87h-122v87h-26q-67 0 -120 19.5t-90 54t-57 83t-20 106.5zM161 355q0 -81 46 -122.5t123 -41.5h16v328 h-16q-169 0 -169 -164zM468 191h20q87 0 127.5 42.5t40.5 122.5t-45 121.5t-123 41.5h-20v-328z" />
<glyph unicode="&#x425;" horiz-adv-x="640" d="M16 0l239 369l-219 340h145l142 -241l144 241h144l-223 -338l235 -371h-143l-162 271l-160 -271h-142z" />
<glyph unicode="&#x426;" horiz-adv-x="737" d="M82 0v709h124v-595h303v595h124v-595h84v-243h-119v129h-516z" />
<glyph unicode="&#x427;" horiz-adv-x="632" d="M55 509v200h124v-183q0 -40 9 -66t25.5 -41t41 -21t54.5 -6q24 0 45.5 0.5t37.5 1.5q18 1 34 3v312h124v-709h-124v289q-16 -2 -36 -3q-17 -1 -40.5 -1.5t-52.5 -0.5q-34 0 -76 6t-79 29t-62 68t-25 122z" />
<glyph unicode="&#x428;" horiz-adv-x="996" d="M82 0v709h124v-595h230v595h124v-595h230v595h124v-709h-832z" />
<glyph unicode="&#x429;" horiz-adv-x="1018" d="M82 0v709h124v-595h230v595h124v-595h230v595h124v-595h84v-243h-118v129h-798z" />
<glyph unicode="&#x42a;" horiz-adv-x="678" d="M11 596v113h271v-284h108q124 0 191 -52t67 -158q0 -47 -17 -86.5t-50 -68t-82 -44.5t-112 -16h-229v596h-147zM282 104h109q64 0 96.5 28.5t32.5 78.5q0 48 -28 78.5t-98 30.5h-112v-216z" />
<glyph unicode="&#x42b;" horiz-adv-x="857" d="M82 0v709h124v-284h108q126 0 192 -52.5t66 -157.5q0 -48 -17.5 -87.5t-51 -68t-82 -44t-110.5 -15.5h-229zM206 104h109q63 0 96 28t33 79q0 48 -28 78.5t-98 30.5h-112v-216zM651 0v709h124v-709h-124z" />
<glyph unicode="&#x42c;" horiz-adv-x="602" d="M82 0v709h124v-284h108q126 0 192 -52.5t66 -157.5q0 -48 -17.5 -87.5t-51 -68t-82 -44t-110.5 -15.5h-229zM206 104h109q63 0 96 28t33 79q0 48 -28 78.5t-98 30.5h-112v-216z" />
<glyph unicode="&#x42d;" horiz-adv-x="641" d="M47 29v127q35 -25 86 -40t106 -15q48 0 87.5 15.5t69 43t48 64.5t24.5 81h-337v110h334q-9 43 -29.5 79t-50.5 61t-68 39t-80 14q-57 0 -104 -15.5t-81 -41.5v128q38 20 85.5 30.5t101.5 10.5q78 0 144.5 -26.5t114.5 -74.5t75.5 -115.5t27.5 -149.5q0 -77 -25.5 -143.5 t-73 -115.5t-114 -77.5t-148.5 -28.5q-55 0 -104 10.5t-89 29.5z" />
<glyph unicode="&#x42e;" horiz-adv-x="1078" d="M82 0v709h124v-292h120q11 64 43 120.5t79.5 97.5t106.5 65t125 24q75 0 140.5 -28.5t114 -78.5t76.5 -117.5t28 -145.5q0 -77 -29.5 -144t-79 -117.5t-115 -79.5t-137.5 -29q-69 0 -130 24.5t-108.5 67.5t-78 101.5t-38.5 127.5h-117v-305h-124zM447 355q0 -52 18 -98 t49.5 -80.5t73.5 -54.5t91 -20q50 0 92.5 19.5t73.5 53.5t48.5 80t17.5 99t-17 99.5t-48 81t-73.5 54t-93.5 19.5q-50 0 -92.5 -20t-73.5 -54.5t-48.5 -80.5t-17.5 -98z" />
<glyph unicode="&#x42f;" horiz-adv-x="579" d="M14 0l108 156l107 155q-40 5 -72.5 21.5t-55.5 42t-35.5 59t-12.5 72.5q0 94 63.5 148.5t181.5 54.5h199v-709h-123v310h-14l-206 -310h-140zM179 502q0 -24 7 -43.5t23 -33t43 -21t66 -7.5h56v209h-68q-36 0 -60 -8.5t-39 -23t-21.5 -33.5t-6.5 -39z" />
<glyph unicode="&#x430;" d="M41 214q0 51 16 94t44.5 74.5t68.5 49.5t88 18q46 0 83.5 -18.5t59.5 -49.5v56h113v-438h-113v54q-25 -30 -62.5 -48t-86.5 -18q-47 0 -86 17t-66.5 47t-43 71.5t-15.5 90.5zM158 218q0 -28 9.5 -53t26 -43.5t39.5 -29.5t50 -11q28 0 51 10.5t39 28.5t24.5 42.5t8.5 52.5 q0 59 -35 97t-91 38q-26 0 -48 -10t-38.5 -27.5t-26 -42t-9.5 -52.5z" />
<glyph unicode="&#x431;" horiz-adv-x="569" d="M42 291q0 49 3 97t11 92.5t22.5 83.5t38.5 70q42 54 104 80.5t132 26.5h119v-115h-111q-53 0 -95.5 -14t-70.5 -51q-14 -18 -23 -43.5t-14 -52.5t-7 -52.5t-2 -44.5q15 23 36 38.5t43.5 25t45.5 13.5t43 4q48 0 87 -18t67 -49.5t43 -73t15 -87.5q0 -51 -19 -93.5t-52 -74 t-78 -49t-96 -17.5q-52 0 -90 15.5t-65 41t-44 58t-26.5 66.5t-13 66t-3.5 57zM166 219q0 -27 9 -50.5t25.5 -41t40 -28t51.5 -10.5q26 0 48 10t38 27.5t25 41t9 50.5t-9.5 51t-26 41.5t-39 28t-49.5 10.5t-49 -10.5t-38.5 -28.5t-25.5 -41.5t-9 -49.5z" />
<glyph unicode="&#x432;" horiz-adv-x="493" d="M66 0v438h218q63 0 103.5 -26.5t40.5 -85.5q0 -32 -15.5 -54t-42.5 -34q34 -7 60.5 -34.5t26.5 -71.5q0 -25 -7.5 -49t-27 -42.5t-53 -29.5t-86.5 -11h-217zM179 84h88q72 0 72 49q0 27 -17 40t-55 13h-88v-102zM179 263h73q25 0 42 12t17 37q0 42 -56 42h-76v-91z" />
<glyph unicode="&#x433;" horiz-adv-x="368" d="M66 0v438h287v-96h-173v-342h-114z" />
<glyph unicode="&#x434;" horiz-adv-x="574" d="M16 84q15 2 33 9.5t33 21.5t25.5 33.5t10.5 45.5v244h352v-341h80v-205h-113v108h-308v-108h-113v192zM184 97h172v246h-125v-122q0 -32 -4.5 -53t-11.5 -35.5t-15.5 -22.5t-15.5 -13z" />
<glyph unicode="&#x435;" horiz-adv-x="520" d="M41 217q0 52 17 95t47 74t70.5 48t87.5 17q48 0 87.5 -15.5t68.5 -44.5t45 -71t16 -94q0 -9 -0.5 -18t-0.5 -19h-325q1 -24 10.5 -44.5t25.5 -36t37.5 -24t47.5 -8.5q38 0 68 16.5t53 45.5l75 -53q-38 -49 -88 -73.5t-119 -24.5q-46 0 -86.5 15.5t-71 44.5t-48 72 t-17.5 98zM155 265h209q0 20 -7 38t-20.5 32t-32.5 22.5t-43 8.5q-46 0 -74 -30t-32 -71z" />
<glyph unicode="&#x436;" horiz-adv-x="729" d="M4 0l190 219l-183 219h149l148 -187v187h113v-188l153 188h143l-182 -206l190 -232h-150l-154 203v-203h-113v203l-154 -203h-150z" />
<glyph unicode="&#x437;" horiz-adv-x="433" d="M19 31l41 82q8 -4 22.5 -9.5t32 -10.5t37 -8.5t38.5 -3.5q37 0 60 12t23 39q0 53 -75 53h-71v80h63q68 0 68 51q0 24 -18.5 34.5t-51.5 10.5q-35 0 -66.5 -10t-49.5 -21l-41 76q28 19 73.5 32t104.5 13q36 0 66.5 -7.5t53.5 -23t36 -39t13 -55.5q0 -18 -6 -33t-15 -26.5 t-20 -19.5t-21 -13q11 -3 24.5 -10.5t25.5 -21t20 -32t8 -42.5q0 -36 -15 -62.5t-40.5 -44t-60 -26t-74.5 -8.5q-61 0 -108.5 13t-76.5 31z" />
<glyph unicode="&#x438;" horiz-adv-x="557" d="M66 0v438h114v-277l207 277h104v-438h-113v276l-208 -276h-104z" />
<glyph unicode="&#x439;" horiz-adv-x="557" d="M66 0v438h114v-277l207 277h104v-438h-113v276l-208 -276h-104zM124 696h92q0 -38 14.5 -62t49.5 -24q36 0 53.5 24t17.5 62h92q0 -47 -12 -81.5t-34 -57t-51.5 -33t-64.5 -10.5q-78 0 -117.5 47t-39.5 135z" />
<glyph unicode="&#x43a;" horiz-adv-x="487" d="M66 0v438h113v-188l153 188h143l-182 -206l190 -232h-150l-154 203v-203h-113z" />
<glyph unicode="&#x43b;" horiz-adv-x="529" d="M18 -6v92h15q60 0 60 71v281h370v-438h-113v342h-144v-158q0 -44 -8 -79.5t-27 -60.5t-49.5 -38.5t-76.5 -13.5q-10 0 -17 1t-10 1z" />
<glyph unicode="&#x43c;" horiz-adv-x="678" d="M34 0l83 438h117l85 -236q9 -25 13 -39l6 -25l7 26q4 14 12 36l86 238h118l83 -438h-119l-23 142q-8 48 -13 86.5t-7 65.5q-7 -26 -19.5 -63.5t-29.5 -82.5l-54 -148h-85l-54 147l-28 81l-20 65q-3 -31 -8 -65l-11 -71l-25 -157h-114z" />
<glyph unicode="&#x43d;" horiz-adv-x="539" d="M66 0v438h113v-163h181v163h113v-438h-113v181h-181v-181h-113z" />
<glyph unicode="&#x43e;" horiz-adv-x="561" d="M41 218q0 48 18 90t50 73.5t76 50t96 18.5q51 0 95 -17.5t76 -48t50 -73t18 -92.5q0 -46 -17.5 -88t-49.5 -74t-77 -51t-100 -19q-50 0 -93 17t-74.5 48t-49.5 73.5t-18 92.5zM156 219q0 -28 10 -52t27 -41.5t39.5 -27.5t48.5 -10q27 0 49.5 10.5t39 28.5t25.5 41.5 t9 49.5q0 28 -9.5 52t-26.5 41.5t-40 27.5t-49 10q-27 0 -49.5 -10.5t-39 -28t-25.5 -41t-9 -50.5z" />
<glyph unicode="&#x43f;" horiz-adv-x="538" d="M66 0v438h406v-438h-113v342h-180v-342h-113z" />
<glyph unicode="&#x440;" d="M66 -201v639h113v-59q24 33 61.5 51.5t88.5 18.5q46 0 84.5 -17.5t66.5 -48t43.5 -72.5t15.5 -90q0 -46 -15.5 -88t-43.5 -74t-68.5 -51t-89.5 -19q-47 0 -83.5 17t-59.5 46v-253h-113zM175 215q0 -59 34 -96t89 -37q28 0 50.5 11t38 29.5t24 42.5t8.5 51t-8.5 51 t-24 42.5t-38.5 29.5t-51 11t-50.5 -10.5t-38.5 -29t-24.5 -43t-8.5 -52.5z" />
<glyph unicode="&#x441;" horiz-adv-x="441" d="M41 216q0 45 16.5 87.5t47 74.5t75 51.5t100.5 19.5q31 0 62.5 -6t55.5 -17v-107q-20 12 -49 20.5t-58 8.5q-28 0 -52 -9.5t-41 -26.5t-27 -40.5t-10 -51.5q0 -27 9 -50.5t26 -41.5t41 -28.5t54 -10.5q29 0 57 8t50 24v-108q-23 -10 -56.5 -17.5t-69.5 -7.5 q-57 0 -100 19t-72 51t-44 73t-15 85z" />
<glyph unicode="&#x442;" horiz-adv-x="397" d="M11 342v96h375v-96h-131v-342h-113v342h-131z" />
<glyph unicode="&#x443;" horiz-adv-x="510" d="M2 438h132l79 -177l20 -44l17 -39l14 -35l22 55l23 54l79 186h120l-290 -639h-120l104 222z" />
<glyph unicode="&#x444;" horiz-adv-x="718" d="M41 213q0 56 18.5 99.5t51.5 73t78 45t98 15.5h14v192h113v-192h14q60 0 106.5 -15.5t78 -44.5t48 -70t16.5 -92q0 -57 -18.5 -100t-51.5 -72.5t-78 -44.5t-97 -15h-18v-193h-113v193h-12q-121 0 -184.5 60t-63.5 161zM158 217q0 -65 37 -96t93 -31h13v257h-17 q-56 0 -91 -31t-35 -99zM414 90h20q57 0 91.5 31.5t34.5 98.5q0 65 -36.5 96t-93.5 31h-16v-257z" />
<glyph unicode="&#x445;" horiz-adv-x="497" d="M2 0l178 224l-165 214h138l51 -72l46 -70l48 71l50 71h136l-164 -212l175 -226h-138l-55 80l-52 78q-24 -39 -54 -80l-57 -78h-137z" />
<glyph unicode="&#x446;" horiz-adv-x="576" d="M66 0v438h113v-341h180v341h113v-341h80v-219h-113v122h-373z" />
<glyph unicode="&#x447;" horiz-adv-x="504" d="M44 316v122h113v-116q0 -38 15 -59.5t59 -21.5q40 0 66 3q15 2 27 4v190h114v-438h-114v153q-14 -3 -31 -5q-14 -2 -34 -3t-43 -1q-38 0 -70 9.5t-54.5 30t-35 53t-12.5 79.5z" />
<glyph unicode="&#x448;" horiz-adv-x="775" d="M66 0v438h113v-341h151v341h114v-341h151v341h114v-438h-643z" />
<glyph unicode="&#x449;" horiz-adv-x="813" d="M66 0v438h113v-341h151v341h114v-341h151v341h114v-341h80v-219h-113v122h-610z" />
<glyph unicode="&#x44a;" horiz-adv-x="531" d="M10 343v95h215v-149q12 0 36.5 0.5t56.5 0.5q89 0 136 -34t47 -109q0 -65 -44 -106t-133 -41h-212v343h-102zM225 86h70q46 0 66.5 15t20.5 44t-17 44t-56 15q-26 0 -49.5 -0.5t-34.5 -0.5v-117z" />
<glyph unicode="&#x44b;" horiz-adv-x="699" d="M66 0v438h113v-149q12 0 36.5 0.5t56.5 0.5q89 0 136 -34t47 -109q0 -65 -44 -106t-133 -41h-212zM179 86h70q46 0 66.5 15t20.5 44t-17 44t-56 15q-26 0 -49.5 -0.5t-34.5 -0.5v-117zM519 0v438h114v-438h-114z" />
<glyph unicode="&#x44c;" horiz-adv-x="485" d="M66 0v438h113v-149q12 0 36.5 0.5t56.5 0.5q89 0 136 -34t47 -109q0 -65 -44 -106t-133 -41h-212zM179 86h70q46 0 66.5 15t20.5 44t-17 44t-56 15q-26 0 -49.5 -0.5t-34.5 -0.5v-117z" />
<glyph unicode="&#x44d;" horiz-adv-x="458" d="M55 12v101q12 -7 43 -19.5t79 -12.5q50 0 81 27.5t39 72.5h-197v80h197q-8 44 -40 70.5t-81 26.5q-43 0 -75 -12.5t-45 -20.5v98q24 11 58 19t71 8q57 0 100.5 -18.5t72.5 -50t43.5 -73.5t14.5 -89q0 -49 -15.5 -91t-45 -73t-72.5 -49t-98 -18q-43 0 -76.5 7.5 t-53.5 16.5z" />
<glyph unicode="&#x44e;" horiz-adv-x="747" d="M66 0v438h113v-163h70q9 37 29.5 69.5t50 55.5t67 36.5t80.5 13.5q50 0 92.5 -17.5t74 -48t49 -73t17.5 -92.5q0 -46 -17 -88t-48.5 -74t-75 -51t-97.5 -19q-44 0 -83 14t-69 39.5t-49.5 61.5t-25.5 79h-65v-181h-113zM357 219q0 -28 9.5 -52t25.5 -41.5t38 -27.5t46 -10 q25 0 46.5 10.5t37 28.5t24.5 41.5t9 49.5q0 28 -9.5 52t-25.5 41.5t-37.5 27.5t-46.5 10q-26 0 -47 -10.5t-37 -28t-24.5 -41t-8.5 -50.5z" />
<glyph unicode="&#x44f;" horiz-adv-x="489" d="M21 0l136 158q-50 11 -80.5 45t-30.5 88q0 30 10 57t32.5 47t58 31.5t86.5 11.5h190v-438h-113v147h-38l-115 -147h-136zM164 293q0 -58 71 -58h75v116h-75q-35 0 -53 -16t-18 -42z" />
<glyph unicode="&#x451;" horiz-adv-x="520" d="M41 217q0 52 17 95t47 74t70.5 48t87.5 17q48 0 87.5 -15.5t68.5 -44.5t45 -71t16 -94q0 -9 -0.5 -18t-0.5 -19h-325q1 -24 10.5 -44.5t25.5 -36t37.5 -24t47.5 -8.5q38 0 68 16.5t53 45.5l75 -53q-38 -49 -88 -73.5t-119 -24.5q-46 0 -86.5 15.5t-71 44.5t-48 72 t-17.5 98zM155 265h209q0 20 -7 38t-20.5 32t-32.5 22.5t-43 8.5q-46 0 -74 -30t-32 -71zM93 611q0 29 20 49t49 20t49.5 -20t20.5 -49t-20.5 -49.5t-49.5 -20.5t-49 20.5t-20 49.5zM293 611q0 29 20.5 49t49.5 20t49 -20t20 -49t-20 -49.5t-49 -20.5t-49.5 20.5t-20.5 49.5 z" />
<glyph unicode="&#x452;" horiz-adv-x="540" d="M8 502v87h61v160h113v-160h126v-87h-126v-120q20 26 55.5 46.5t86.5 20.5q32 0 61 -10t49 -30q42 -42 42 -128v-328q0 -75 -38 -121t-122 -46q-14 0 -22.5 1t-11.5 1v95q6 -2 22 -2q29 0 44 18.5t15 52.5v305q0 45 -19.5 69t-61.5 24q-41 0 -69 -28q-31 -31 -31 -88v-234 h-113v502h-61z" />
<glyph unicode="&#x453;" horiz-adv-x="368" d="M66 0v438h287v-96h-173v-342h-114zM121 556l134 149l90 -68l-159 -128z" />
<glyph unicode="&#x454;" horiz-adv-x="458" d="M41 215q0 47 15.5 89.5t45.5 75t74 51.5t101 19q35 0 68 -7.5t57 -18.5v-99q-12 7 -43 20t-76 13q-49 0 -82 -26t-41 -71h198v-80h-198q8 -44 39 -72t85 -28q22 0 41.5 4t35 9t26.5 10t16 8v-100q-23 -9 -58 -16.5t-75 -7.5q-55 0 -97.5 17.5t-72 48.5t-44.5 72.5 t-15 88.5z" />
<glyph unicode="&#x455;" horiz-adv-x="408" d="M36 77l92 48q11 -21 29.5 -34.5t43.5 -13.5q23 0 38.5 10t15.5 31q0 19 -15 30t-38 20l-49 18q-26 10 -49 25.5t-38 39.5t-15 62q0 28 11 52.5t31.5 43.5t49.5 30t66 11q55 0 92.5 -21t59.5 -66l-91 -41q-11 22 -28 32t-37 10q-19 0 -33 -11t-14 -30q0 -20 15.5 -32 t38.5 -21l50 -18q26 -10 49 -25t38.5 -38.5t15.5 -61.5q0 -30 -12 -55.5t-34 -44t-53 -28.5t-68 -10q-63 0 -101 21.5t-61 66.5z" />
<glyph unicode="&#x456;" horiz-adv-x="248" d="M50 611q0 30 22 51.5t52 21.5t51.5 -21.5t21.5 -51.5q0 -31 -21.5 -52.5t-51.5 -21.5t-52 21.5t-22 52.5zM67 0v438h114v-438h-114z" />
<glyph unicode="&#x457;" horiz-adv-x="290" d="M2 611q0 27 19 46t46 19q28 0 47 -19t19 -46q0 -28 -19 -47t-47 -19q-27 0 -46 19t-19 47zM88 0v438h114v-438h-114zM157 611q0 27 19 46t46 19q28 0 47 -19t19 -46q0 -28 -19 -47t-47 -19q-27 0 -46 19t-19 47z" />
<glyph unicode="&#x458;" horiz-adv-x="248" d="M50 611q0 30 22 51.5t52 21.5t51.5 -21.5t21.5 -51.5q0 -31 -21.5 -52.5t-51.5 -21.5t-52 21.5t-22 52.5zM67 -201v639h114v-639h-114z" />
<glyph unicode="&#x459;" horiz-adv-x="747" d="M18 -6v92h15q60 0 60 71v281h353v-149q12 0 34 0.5t54 0.5q89 0 136 -34t47 -109q0 -65 -44 -106t-133 -41h-207v342h-127v-158q0 -44 -8 -79.5t-27 -60.5t-49.5 -38.5t-76.5 -13.5q-10 0 -17 1t-10 1zM446 86h65q46 0 66.5 15t20.5 44t-17 44t-56 15q-26 0 -47 -0.5 t-32 -0.5v-117z" />
<glyph unicode="&#x45a;" horiz-adv-x="764" d="M66 0v438h113v-156h170v156h114v-149q12 0 34 0.5t54 0.5q89 0 136 -34t47 -109q0 -65 -44 -106t-133 -41h-208v194h-170v-194h-113zM463 86h65q46 0 66.5 15t20.5 44t-17 44t-56 15q-26 0 -47 -0.5t-32 -0.5v-117z" />
<glyph unicode="&#x45b;" horiz-adv-x="540" d="M8 502v87h61v160h113v-160h126v-87h-126v-120q20 26 55.5 46.5t86.5 20.5q32 0 61 -10t49 -30q42 -42 42 -128v-281h-113v257q0 45 -19.5 69t-61.5 24q-41 0 -69 -28q-31 -31 -31 -88v-234h-113v502h-61z" />
<glyph unicode="&#x45c;" horiz-adv-x="487" d="M66 0v438h113v-188l153 188h143l-182 -206l190 -232h-150l-154 203v-203h-113zM177 556l134 149l90 -68l-159 -128z" />
<glyph unicode="&#x45e;" horiz-adv-x="510" d="M2 438h132l79 -177l20 -44l17 -39l14 -35l22 55l23 54l79 186h120l-290 -639h-120l104 222zM103 696h92q0 -38 14.5 -62t49.5 -24q36 0 53.5 24t17.5 62h92q0 -47 -12 -81.5t-34 -57t-51.5 -33t-64.5 -10.5q-78 0 -117.5 47t-39.5 135z" />
<glyph unicode="&#x45f;" horiz-adv-x="538" d="M66 0v438h113v-342h180v342h113v-438h-147v-141h-112v141h-147z" />
<glyph unicode="&#x490;" horiz-adv-x="464" d="M82 0v709h246v152h118v-265h-240v-596h-124z" />
<glyph unicode="&#x491;" horiz-adv-x="368" d="M66 0v438h177v105h109v-201h-173v-342h-113z" />
<glyph unicode="&#x2000;" horiz-adv-x="503" />
<glyph unicode="&#x2001;" horiz-adv-x="1007" />
<glyph unicode="&#x2002;" horiz-adv-x="503" />
<glyph unicode="&#x2003;" horiz-adv-x="1007" />
<glyph unicode="&#x2004;" horiz-adv-x="335" />
<glyph unicode="&#x2005;" horiz-adv-x="251" />
<glyph unicode="&#x2006;" horiz-adv-x="167" />
<glyph unicode="&#x2007;" horiz-adv-x="167" />
<glyph unicode="&#x2008;" horiz-adv-x="125" />
<glyph unicode="&#x2009;" horiz-adv-x="201" />
<glyph unicode="&#x200a;" horiz-adv-x="55" />
<glyph unicode="&#x2010;" horiz-adv-x="361" d="M43 216v96h275v-96h-275z" />
<glyph unicode="&#x2011;" horiz-adv-x="361" d="M43 216v96h275v-96h-275z" />
<glyph unicode="&#x2012;" horiz-adv-x="361" d="M43 216v96h275v-96h-275z" />
<glyph unicode="&#x2013;" horiz-adv-x="549" d="M22 216v96h506v-96h-506z" />
<glyph unicode="&#x2014;" horiz-adv-x="1000" d="M0 217v94h1000v-94h-1000z" />
<glyph unicode="&#x2018;" horiz-adv-x="246" d="M41 519q0 62 39 119t105 106l41 -48q-29 -25 -46 -49.5t-17 -50.5q0 -17 3.5 -29t8 -22.5t8.5 -21t4 -23.5q0 -29 -20 -50t-51 -21t-53 22.5t-22 67.5z" />
<glyph unicode="&#x2019;" horiz-adv-x="246" d="M15 454q29 26 46 50.5t17 50.5q0 16 -4 28t-8.5 22.5t-8 21t-3.5 24.5q0 29 19.5 49.5t51.5 20.5q30 0 52.5 -22.5t22.5 -67.5q0 -61 -39 -118t-105 -106z" />
<glyph unicode="&#x201a;" horiz-adv-x="246" d="M15 -128q29 26 46.5 50.5t17.5 50.5q0 16 -4 28t-8.5 22.5t-8.5 21t-4 24.5q0 29 20 49.5t51 20.5t53.5 -22.5t22.5 -67.5q0 -61 -39.5 -118t-105.5 -106z" />
<glyph unicode="&#x201c;" horiz-adv-x="430" d="M42 523q0 60 35.5 114.5t93.5 102.5l43 -44q-26 -24 -41 -48.5t-15 -50.5q0 -16 3.5 -27.5t8 -21.5t8.5 -20t4 -23q0 -29 -19 -49t-48 -20t-51 22t-22 65zM234 523q0 60 35.5 114.5t92.5 102.5l43 -44q-26 -24 -40.5 -48.5t-14.5 -50.5q0 -16 3.5 -27.5t8 -21.5t8.5 -20 t4 -23q0 -29 -19.5 -49t-48.5 -20t-50.5 22t-21.5 65z" />
<glyph unicode="&#x201d;" horiz-adv-x="430" d="M24 460q26 24 41 49t15 51q0 16 -4 27.5t-8.5 21t-8 19.5t-3.5 23q0 29 19 49t48 20t51 -22t22 -64q0 -60 -35.5 -114.5t-93.5 -102.5zM216 460q26 24 40.5 49t14.5 51q0 16 -4 27.5t-8.5 21t-8 19.5t-3.5 23q0 29 19.5 49t48.5 20t50.5 -22t21.5 -64q0 -60 -35.5 -114.5 t-92.5 -102.5z" />
<glyph unicode="&#x201e;" horiz-adv-x="430" d="M24 -122q26 24 41 49t15 51q0 16 -4 27.5t-8.5 21t-8 19.5t-3.5 23q0 29 19 49t48 20t51 -22t22 -64q0 -60 -35.5 -115t-93.5 -103zM216 -122q26 24 40.5 49t14.5 51q0 16 -4 27.5t-8.5 21t-8 19.5t-3.5 23q0 29 19.5 49t48.5 20t50.5 -22t21.5 -64q0 -60 -35.5 -115 t-92.5 -103z" />
<glyph unicode="&#x2020;" horiz-adv-x="579" d="M32 420v113h200v249h117v-249h198v-114h-198v-526h-117v527h-200z" />
<glyph unicode="&#x2021;" horiz-adv-x="569" d="M32 111v113h200v226h-200v112h200v220h117v-220h198v-113h-198v-225h198v-113h-198v-218h-117v218h-200z" />
<glyph unicode="&#x2022;" horiz-adv-x="339" d="M26 350q0 30 11.5 56t31 45.5t45.5 31t56 11.5t56.5 -11.5t46 -31t31 -45.5t11.5 -56t-11.5 -56.5t-31 -46t-46 -31t-56.5 -11.5t-56 11.5t-45.5 31t-31 46t-11.5 56.5z" />
<glyph unicode="&#x2026;" horiz-adv-x="802" d="M55 63q0 32 22 54t53 22t53.5 -22t22.5 -54q0 -31 -22.5 -53t-53.5 -22t-53 22t-22 53zM318 63q0 32 22 54t53 22q32 0 54 -22t22 -54q0 -31 -22 -53t-54 -22q-31 0 -53 22t-22 53zM581 63q0 32 22 54t53 22q32 0 54 -22t22 -54q0 -31 -22 -53t-54 -22q-31 0 -53 22 t-22 53z" />
<glyph unicode="&#x202f;" horiz-adv-x="201" />
<glyph unicode="&#x2030;" horiz-adv-x="1140" d="M34 509q0 102 39.5 155t112.5 53q69 0 105.5 -53t36.5 -153q0 -103 -39.5 -157t-110.5 -54q-65 0 -104.5 50.5t-39.5 158.5zM121 508q0 -62 14.5 -94.5t46.5 -32.5q26 0 43.5 28t17.5 100q0 63 -14.5 96t-46.5 33q-61 0 -61 -130zM154 2l409 740l69 -38l-409 -740z M462 199q0 102 39 155.5t112 53.5q69 0 105.5 -53.5t36.5 -153.5q0 -103 -39.5 -157t-110.5 -54q-65 0 -104 50.5t-39 158.5zM548 199q0 -63 14.5 -95.5t46.5 -32.5q26 0 43.5 28.5t17.5 99.5q0 63 -14.5 96t-46.5 33q-61 0 -61 -129zM805 199q0 102 39.5 155.5t112.5 53.5 q69 0 105.5 -53.5t36.5 -153.5q0 -103 -39.5 -157t-110.5 -54q-65 0 -104.5 50.5t-39.5 158.5zM892 199q0 -63 14.5 -95.5t46.5 -32.5q26 0 43.5 28.5t17.5 99.5q0 63 -14.5 96t-46.5 33q-61 0 -61 -129z" />
<glyph unicode="&#x2039;" horiz-adv-x="290" d="M25 225l155 223l72 -48l-123 -172l124 -165l-76 -46z" />
<glyph unicode="&#x203a;" horiz-adv-x="290" d="M37 403l76 47l152 -209l-155 -222l-72 47l123 172z" />
<glyph unicode="&#x2044;" horiz-adv-x="142" d="M-154 0l371 739l71 -32l-372 -739z" />
<glyph unicode="&#x205f;" horiz-adv-x="251" />
<glyph unicode="&#x2070;" horiz-adv-x="388" d="M36 509q0 94 42.5 150.5t117.5 56.5q39 0 68 -15t48.5 -42t29.5 -64.5t10 -82.5q0 -41 -10 -78t-30 -65.5t-50.5 -45.5t-72.5 -17q-73 0 -113 54.5t-40 148.5zM129 512q0 -60 16.5 -96.5t48.5 -36.5q29 0 47 33.5t18 95.5q0 60 -15.5 98t-50.5 38q-31 0 -47.5 -37 t-16.5 -95z" />
<glyph unicode="&#x2074;" horiz-adv-x="375" d="M33 384v71l152 254h110v-249h58v-76h-58v-70h-86v70h-176zM121 459h88v152z" />
<glyph unicode="&#x2075;" horiz-adv-x="333" d="M27 350l30 66q18 -16 41 -27.5t49 -11.5q32 0 47 17t15 47q0 29 -16 48.5t-60 19.5q-21 0 -43 -3.5t-40 -9.5l28 213h201v-79h-127l-6 -49h5q2 0 5 0.5t6 0.5q60 0 99 -35.5t39 -95.5q0 -30 -9.5 -56.5t-29 -46t-48.5 -31t-69 -11.5q-38 0 -67 12.5t-50 31.5z" />
<glyph unicode="&#x2076;" horiz-adv-x="349" d="M30 441q0 35 14 71.5t46 83.5q22 30 47 60l45 53h112l-22 -24l-32 -35l-38 -44q-20 -24 -37 -49q15 5 36 5q24 0 45 -8.5t37.5 -23.5t26 -37t9.5 -49q0 -29 -10.5 -54.5t-29.5 -44t-46 -29t-60 -10.5q-69 0 -106 38.5t-37 96.5zM120 435q0 -26 14 -41.5t42 -15.5 q26 0 40 16t14 43q0 25 -14 41t-40 16t-41 -16t-15 -43z" />
<glyph unicode="&#x2077;" horiz-adv-x="319" d="M23 631v78h277v-39l-162 -356h-101l151 317h-165z" />
<glyph unicode="&#x2078;" horiz-adv-x="360" d="M35 425q0 38 19.5 61.5t40.5 33.5q-18 11 -32 34.5t-14 49.5q0 48 36 80t96 32q54 0 91 -29t37 -80q0 -31 -12 -52.5t-32 -32.5q22 -8 41 -31t19 -63q0 -27 -11.5 -49.5t-31 -38.5t-46.5 -25t-58 -9q-29 0 -55 7.5t-45.5 22t-31 37t-11.5 52.5zM123 429q0 -22 15 -37 t42 -15q25 0 40.5 14.5t15.5 37.5t-16 38.5t-41 15.5t-40.5 -15.5t-15.5 -38.5zM134 600q0 -18 11.5 -31.5t34.5 -13.5q22 0 34 12.5t12 32.5q0 18 -12.5 31.5t-34.5 13.5q-23 0 -34 -13t-11 -32z" />
<glyph unicode="&#x2079;" horiz-adv-x="349" d="M30 578q0 29 10.5 54.5t29.5 44t46 29t60 10.5q69 0 106 -38.5t37 -96.5q0 -35 -14 -71.5t-46 -83.5q-22 -31 -47 -60l-45 -52h-112q7 9 21 24l32 35l36 43l40 49q-15 -5 -36 -5q-24 0 -45 8.5t-37.5 23.5t-26 37t-9.5 49zM119 585q0 -25 14 -41t40 -16t41 16t15 43 q0 26 -14 41.5t-42 15.5q-26 0 -40 -16t-14 -43z" />
<glyph unicode="&#x207b;" horiz-adv-x="400" d="M52 470v75h295v-75h-295z" />
<glyph unicode="&#x207d;" horiz-adv-x="218" d="M50 507q0 130 73 267l68 -22q-30 -61 -47 -122t-17 -121q0 -62 16.5 -122.5t46.5 -116.5l-68 -24q-40 69 -56 134t-16 127z" />
<glyph unicode="&#x207e;" horiz-adv-x="219" d="M27 268q30 57 47.5 118.5t17.5 124.5q0 61 -17.5 123t-46.5 116l68 24q35 -61 54 -126.5t19 -134.5q0 -72 -19.5 -137.5t-54.5 -129.5z" />
<glyph unicode="&#x2080;" horiz-adv-x="388" d="M36 15q0 94 42.5 150.5t117.5 56.5q39 0 68 -15t48.5 -42t29.5 -64.5t10 -82.5q0 -41 -10 -78t-30 -65.5t-50.5 -45.5t-72.5 -17q-73 0 -113 54.5t-40 148.5zM129 18q0 -60 16.5 -96.5t48.5 -36.5q29 0 47 33.5t18 95.5q0 60 -15.5 98t-50.5 38q-31 0 -47.5 -37 t-16.5 -95z" />
<glyph unicode="&#x2081;" horiz-adv-x="235" d="M18 134v81h167v-395h-91v314h-76z" />
<glyph unicode="&#x2082;" horiz-adv-x="368" d="M32 63q-2 73 37.5 115.5t110.5 42.5q37 0 64.5 -11t45.5 -29.5t26.5 -42.5t8.5 -49q0 -27 -10 -51.5t-28 -47t-43.5 -44.5t-56.5 -45h145v-81h-293v45l107 99q24 22 41 39t27.5 30.5t15.5 25.5t5 26q0 26 -14.5 42.5t-43.5 16.5q-35 0 -47.5 -24t-10.5 -57h-87z" />
<glyph unicode="&#x2083;" horiz-adv-x="354" d="M32 -55h86q2 -62 57 -62q27 0 41.5 15.5t14.5 37.5q0 23 -15.5 39t-54.5 16h-21v64h18q34 0 48.5 14.5t14.5 34.5q0 21 -13 33.5t-34 12.5q-24 0 -37 -14t-11 -41h-84q1 57 35.5 92t99.5 35q63 0 97.5 -33.5t34.5 -81.5q0 -54 -47 -79q26 -9 43 -35t17 -54 q0 -24 -9.5 -47t-28 -41t-46 -28.5t-64.5 -10.5q-63 0 -101.5 36t-40.5 97z" />
<glyph unicode="&#x2084;" horiz-adv-x="375" d="M33 -39l152 254h110v-249h58v-76h-58v-70h-86v70h-176v71zM121 -35h88v152z" />
<glyph unicode="&#x2085;" horiz-adv-x="333" d="M27 -144l30 66q18 -16 41 -27.5t49 -11.5q32 0 47 17t15 47q0 29 -16 48.5t-60 19.5q-21 0 -43 -3.5t-40 -9.5l28 213h201v-79h-127l-6 -49h5q2 0 5 0.5t6 0.5q60 0 99 -35.5t39 -95.5q0 -30 -9.5 -56.5t-29 -46t-48.5 -31t-69 -11.5q-38 0 -67 12.5t-50 31.5z" />
<glyph unicode="&#x2086;" horiz-adv-x="349" d="M30 -53q0 35 14 71.5t46 83.5q22 30 47 60l45 53h112l-22 -24l-32 -35l-38 -44q-20 -24 -37 -49q15 5 36 5q24 0 45 -8.5t37.5 -23.5t26 -37t9.5 -49q0 -29 -10.5 -54.5t-29.5 -44t-46 -29t-60 -10.5q-69 0 -106 38.5t-37 96.5zM120 -59q0 -26 14 -41.5t42 -15.5 q26 0 40 16t14 43q0 25 -14 41t-40 16t-41 -16t-15 -43z" />
<glyph unicode="&#x2087;" horiz-adv-x="319" d="M23 137v78h277v-39l-162 -356h-101l151 317h-165z" />
<glyph unicode="&#x2088;" horiz-adv-x="360" d="M35 -69q0 38 19.5 61.5t40.5 33.5q-18 11 -32 34.5t-14 49.5q0 48 36 80t96 32q54 0 91 -29t37 -80q0 -31 -12 -52.5t-32 -32.5q22 -8 41 -31t19 -63q0 -27 -11.5 -49.5t-31 -38.5t-46.5 -25t-58 -9q-29 0 -55 7.5t-45.5 22t-31 37t-11.5 52.5zM123 -65q0 -22 15 -37 t42 -15q25 0 40.5 14.5t15.5 37.5t-16 38.5t-41 15.5t-40.5 -15.5t-15.5 -38.5zM134 106q0 -18 11.5 -31.5t34.5 -13.5q22 0 34 12.5t12 32.5q0 18 -12.5 31.5t-34.5 13.5q-23 0 -34 -13t-11 -32z" />
<glyph unicode="&#x2089;" horiz-adv-x="349" d="M30 84q0 29 10.5 54.5t29.5 44t46 29t60 10.5q69 0 106 -38.5t37 -96.5q0 -35 -14 -71.5t-46 -83.5q-22 -31 -47 -60l-45 -52h-112q7 9 21 24l32 35l36 43l40 49q-15 -5 -36 -5q-24 0 -45 8.5t-37.5 23.5t-26 37t-9.5 49zM119 91q0 -25 14 -41t40 -16t41 16t15 43 q0 26 -14 41.5t-42 15.5q-26 0 -40 -16t-14 -43z" />
<glyph unicode="&#x208d;" horiz-adv-x="218" d="M50 13q0 130 73 267l68 -22q-30 -61 -47 -122t-17 -121q0 -62 16.5 -122.5t46.5 -116.5l-68 -24q-40 69 -56 134t-16 127z" />
<glyph unicode="&#x208e;" horiz-adv-x="219" d="M27 -226q30 57 47.5 118.5t17.5 124.5q0 61 -17.5 123t-46.5 116l68 24q35 -61 54 -126.5t19 -134.5q0 -72 -19.5 -137.5t-54.5 -129.5z" />
<glyph unicode="&#x20ac;" d="M45 229v84h76q-1 9 -1 18v19v20q0 10 1 21h-76v83h86q23 115 91.5 181.5t175.5 66.5q34 0 68 -7t65 -19v-115q-30 16 -62.5 25.5t-66.5 9.5q-54 0 -90 -36.5t-52 -105.5h175v-83h-185q-1 -9 -1 -18v-18v-21q0 -10 1 -21h185v-84h-173q16 -66 51.5 -101t91.5 -35 q66 0 130 35v-114q-34 -14 -68 -20.5t-78 -6.5q-108 0 -172.5 63.5t-86.5 178.5h-85z" />
<glyph unicode="&#x2116;" horiz-adv-x="1152" d="M82 0v709h113l218 -339l55 -87q24 -39 48 -83q-2 63 -3 120.5t-1 120.5v268h119v-709h-113l-218 337l-55 87l-48 83q2 -63 3 -120.5t1 -120.5v-266h-119zM721 532q0 39 15 74t41.5 60.5t62.5 40.5t78 15t78 -14.5t63 -39.5t42 -60t15 -75q0 -38 -14.5 -72.5t-41 -60.5 t-63.5 -41.5t-82 -15.5q-41 0 -76.5 14t-61.5 39.5t-41 60t-15 75.5zM731 192v96h376v-96h-376zM824 532q0 -21 7.5 -39t20.5 -31.5t30 -21t37 -7.5q41 0 67 29.5t26 69.5q0 21 -7.5 39t-20 31.5t-30 21.5t-37.5 8q-42 0 -67.5 -29.5t-25.5 -70.5z" />
<glyph unicode="&#x2122;" horiz-adv-x="839" d="M23 624v85h274v-85h-88v-266h-97v266h-89zM313 358l44 351h128l71 -233l72 233h127l47 -351h-105l-22 237l-75 -237h-103l-72 237l-21 -237h-91z" />
<glyph unicode="&#x2126;" horiz-adv-x="821" d="M44 371q0 75 29.5 139.5t79.5 112t116.5 74.5t141.5 27q78 0 144.5 -26.5t116 -74t77.5 -112.5t28 -141q0 -44 -13 -82.5t-34 -71.5t-48.5 -59.5t-55.5 -45.5h134v-111h-268v137q31 12 59 33t50 50t35 65.5t13 80.5q0 51 -17.5 95t-49 77t-75.5 51.5t-97 18.5 q-52 0 -96 -18.5t-75.5 -51t-49 -76.5t-17.5 -94q0 -44 13 -81t34.5 -66t50 -50.5t58.5 -33.5v-137h-267v111h127q-28 19 -54 45.5t-46 59t-32 71.5t-12 84z" />
<glyph unicode="&#x2190;" horiz-adv-x="1000" d="M45 301l426 426l84 -84l-300 -286h745v-112h-745l300 -286l-84 -84z" />
<glyph unicode="&#x2191;" horiz-adv-x="1000" d="M74 330l426 426l426 -426l-84 -84l-286 300v-745h-112v745l-286 -300z" />
<glyph unicode="&#x2192;" horiz-adv-x="1000" d="M0 245v112h745l-300 286l84 84l426 -426l-426 -426l-84 84l300 286h-745z" />
<glyph unicode="&#x2193;" horiz-adv-x="1000" d="M74 272l84 84l286 -300v745h112v-745l286 300l84 -84l-426 -426z" />
<glyph unicode="&#x2196;" horiz-adv-x="1000" d="M178 20v603h603v-119l-415 10l527 -527l-79 -79l-527 527l10 -415h-119z" />
<glyph unicode="&#x2197;" horiz-adv-x="1000" d="M107 -13l527 527l-415 -10v119h603v-603h-119l10 415l-527 -527z" />
<glyph unicode="&#x2198;" horiz-adv-x="1000" d="M107 615l79 79l527 -527l-10 415h119v-603h-603v119l415 -10z" />
<glyph unicode="&#x2199;" horiz-adv-x="1000" d="M178 -21v603h119l-10 -415l527 527l79 -79l-527 -527l415 10v-119h-603z" />
<glyph unicode="&#x2202;" horiz-adv-x="564" d="M41 216q0 48 17 90.5t46 74t68.5 49.5t84.5 18q33 0 65.5 -9.5t57.5 -32.5q-13 45 -37.5 86t-61 74t-84 56.5t-105.5 34.5l25 93q99 -18 174.5 -68.5t126.5 -118.5t77 -146.5t26 -151.5q0 -62 -16.5 -113t-48 -88t-78 -57t-106.5 -20q-49 0 -91 17.5t-73 48t-49 72.5 t-18 91zM155 220q0 -29 9.5 -53.5t26 -42.5t38.5 -28t48 -10q56 0 91.5 38.5t35.5 102.5q0 56 -34 91.5t-91 35.5q-26 0 -49 -10t-39.5 -28t-26 -42.5t-9.5 -53.5z" />
<glyph unicode="&#x2206;" horiz-adv-x="709" d="M9 0l281 709h124l286 -709h-691zM184 113h335l-123 321l-12 32l-14 38l-12 36l-8 25q-2 -9 -8 -25l-12 -36l-13 -37l-12 -33z" />
<glyph unicode="&#x220f;" horiz-adv-x="851" d="M16 597v112h819v-112h-94v-798h-124v798h-384v-798h-124v798h-93z" />
<glyph unicode="&#x2211;" horiz-adv-x="710" d="M61 -105l245 374l-243 342v98h600v-112h-451l232 -326l-240 -360h466v-112h-609v96z" />
<glyph unicode="&#x2212;" horiz-adv-x="675" d="M46 235v105h583v-105h-583z" />
<glyph unicode="&#x221a;" horiz-adv-x="627" d="M23 438h129l85 -210q5 -12 11 -30l12 -34q6 -17 10.5 -31t6.5 -21q1 7 6.5 24.5t12.5 37.5l14 40l12 34l204 552h122l-311 -800h-121z" />
<glyph unicode="&#x221e;" horiz-adv-x="717" d="M23 286q0 34 13 62.5t35 49t52 31.5t63 11q49 0 91.5 -26.5t80.5 -64.5q36 38 79 64t93 26q34 0 64 -11t52 -31t35 -48t13 -62q0 -35 -13 -64t-35 -49.5t-51.5 -31.5t-63.5 -11q-49 0 -91.5 26t-80.5 65q-38 -39 -80.5 -64.5t-91.5 -25.5q-34 0 -63.5 11t-52 31.5 t-35.5 48.5t-13 63zM129 286q0 -26 19 -44t46 -18q31 0 55.5 17t50.5 43q-27 26 -52 45t-54 19q-27 0 -46 -18t-19 -44zM417 287q26 -26 51.5 -45t55.5 -19q26 0 45 18.5t19 45.5q0 26 -19 44t-45 18q-32 0 -56.5 -18t-50.5 -44z" />
<glyph unicode="&#x222b;" horiz-adv-x="320" d="M-2 -126q31 0 51.5 4.5t32.5 15.5t17 30.5t5 48.5v625q0 57 9 98.5t30 68t56 39t87 12.5h34v-89q-58 0 -81.5 -21t-23.5 -77v-627q0 -57 -9 -98.5t-30 -67.5t-56 -38.5t-87 -12.5h-35v89z" />
<glyph unicode="&#x2248;" horiz-adv-x="675" d="M32 195q16 13 38 26t46 23t49.5 16.5t49.5 6.5q34 0 68 -10t66 -22t61.5 -22t55.5 -10q34 0 68 15.5t57 33.5l53 -80q-17 -13 -38.5 -26t-45.5 -23t-49.5 -16.5t-49.5 -6.5q-34 0 -67.5 10t-65.5 22l-62 22q-30 10 -56 10q-33 0 -67.5 -15.5t-57.5 -33.5zM32 396 q16 13 38 26t46 23t49.5 16.5t49.5 6.5q34 0 68 -10t66 -22t61.5 -22t55.5 -10q34 0 68 15.5t57 33.5l53 -80q-17 -13 -38.5 -26t-45.5 -23t-49.5 -16.5t-49.5 -6.5q-34 0 -67.5 10t-65.5 22l-62 22q-30 10 -56 10q-33 0 -67.5 -15.5t-57.5 -33.5z" />
<glyph unicode="&#x2260;" horiz-adv-x="675" d="M41 135v105h221l43 99h-264v104h309l54 125h101l-55 -125h183v-104h-228l-43 -99h271v-105h-317l-57 -131h-100l57 131h-175z" />
<glyph unicode="&#x2264;" horiz-adv-x="675" d="M60 0v105h555v-105h-555zM60 359v111l555 203v-116l-433 -141l433 -138v-121z" />
<glyph unicode="&#x2265;" horiz-adv-x="675" d="M60 0v105h555v-105h-555zM60 157v116l433 141l-433 138v121l555 -202v-111z" />
<glyph unicode="&#x25ca;" horiz-adv-x="659" d="M38 354l291 376l292 -376l-292 -376zM176 354l153 -199l154 199l-154 199z" />
<glyph unicode="&#x25cb;" horiz-adv-x="1000" d="M0 260q0 69 18 133t50.5 119.5t78 101t101 78t119.5 50.5t133 18q103 0 194.5 -39.5t159 -107t107 -159t39.5 -194.5q0 -69 -18 -133t-50.5 -119.5t-78 -101t-101 -78t-119.5 -50.5t-133 -18t-133 18t-119.5 50.5t-101 78t-78 101t-50.5 119.5t-18 133zM112 260 q0 -80 30.5 -151t83 -123.5t123.5 -83t151 -30.5t151 30.5t123.5 83t83 123.5t30.5 151t-30.5 151t-83 123.5t-123.5 83t-151 30.5t-151 -30.5t-123.5 -83t-83 -123.5t-30.5 -151z" />
<glyph unicode="&#x25cf;" horiz-adv-x="1000" d="M0 260q0 69 18 133t50.5 119.5t78 101t101 78t119.5 50.5t133 18q103 0 194.5 -39.5t159 -107t107 -159t39.5 -194.5q0 -69 -18 -133t-50.5 -119.5t-78 -101t-101 -78t-119.5 -50.5t-133 -18t-133 18t-119.5 50.5t-101 78t-78 101t-50.5 119.5t-18 133z" />
<glyph unicode="&#x25dc;" horiz-adv-x="500" d="M0 260v14q0 101 37.5 187t103.5 149t156 98.5t195 35.5h8v-98h-9q-80 0 -148 -29t-117.5 -79.5t-77 -119t-27.5 -148.5v-10h-121z" />
<glyph unicode="&#x25dd;" horiz-adv-x="500" d="M0 646v98h8q105 0 195 -35.5t156 -98.5t103.5 -149t37.5 -187v-14h-121v10q0 80 -27.5 148.5t-77 119t-117.5 79.5t-148 29h-9z" />
<glyph unicode="&#x25de;" horiz-adv-x="500" d="M0 -126h9q80 0 148 29t117.5 79.5t77 119t27.5 148.5v10h121v-14q0 -101 -37.5 -187t-103.5 -149t-156 -98.5t-195 -35.5h-8v98z" />
<glyph unicode="&#x25df;" horiz-adv-x="500" d="M0 246v14h121v-10q0 -80 27.5 -148.5t77 -119t117.5 -79.5t148 -29h9v-98h-8q-105 0 -195 35.5t-156 98.5t-103.5 149t-37.5 187z" />
<glyph horiz-adv-x="500" d="M173 -226q21 18 34 34.5t13 33.5q0 11 -4 19.5t-9 16t-9 16t-4 20.5q0 24 17 39.5t46 15.5t47 -20.5t18 -50.5q0 -44 -30.5 -84t-83.5 -75z" />
<glyph horiz-adv-x="500" d="M57 787l101 163l88 -67l-126 -142zM250 785l117 162l89 -67l-143 -141z" />
<glyph horiz-adv-x="500" d="M172 842q0 33 22.5 55.5t55.5 22.5q32 0 55 -22.5t23 -55.5q0 -32 -23 -55t-55 -23q-33 0 -55.5 23t-22.5 55z" />
<glyph horiz-adv-x="500" d="M90 930h92q0 -38 15 -56.5t50 -18.5q71 0 71 75h92q0 -47 -12.5 -80t-34 -53.5t-51.5 -30t-65 -9.5q-157 0 -157 173z" />
<glyph horiz-adv-x="500" d="M107 780v94h285v-94h-285z" />
<glyph horiz-adv-x="500" d="M153 -169l101 134l88 -52l-122 -135z" />
<glyph horiz-adv-x="500" d="M140 824q0 23 8.5 42.5t23.5 34t35 23t43 8.5t43 -8.5t35 -23t23.5 -34t8.5 -42.5t-9 -42.5t-24 -33.5t-35 -22.5t-42 -8.5q-23 0 -43 8t-35 22.5t-23.5 34t-8.5 42.5zM203 824q0 -20 13.5 -33.5t33.5 -13.5t33.5 13.5t13.5 33.5t-13.5 34t-33.5 14t-33.5 -14t-13.5 -34z " />
<glyph horiz-adv-x="500" d="M54 765q0 57 31 94.5t85 37.5q25 0 44.5 -8t37.5 -18t34.5 -18t35.5 -8q18 0 29 12.5t11 34.5h84q0 -60 -33 -96.5t-87 -36.5q-24 0 -44 9q-22 8 -40 18l-34 18q-16 8 -33 8t-28 -13.5t-11 -33.5h-82z" />
<glyph horiz-adv-x="500" d="M78 814l172 91l172 -89l-43 -70l-129 61l-130 -61z" />
<glyph horiz-adv-x="500" d="M135 800l142 120l88 -74l-175 -103z" />
<glyph horiz-adv-x="470" d="M156 -226q21 18 33.5 34.5t12.5 33.5q0 11 -4 19.5t-9 16t-9 16t-4 20.5q0 24 17 39.5t46 15.5t47.5 -20.5t18.5 -50.5q0 -44 -31 -84t-84 -75z" />
<glyph horiz-adv-x="500" d="M81 827q0 29 20 49t49 20t49.5 -20t20.5 -49t-20.5 -49.5t-49.5 -20.5t-49 20.5t-20 49.5zM281 827q0 29 20.5 49t49.5 20t49 -20t20 -49t-20 -49.5t-49 -20.5t-49.5 20.5t-20.5 49.5z" />
<glyph horiz-adv-x="500" d="M173 528q21 18 33.5 34.5t12.5 33.5q0 11 -4 19.5t-9 16t-9 16t-4 20.5q0 24 17 40t46 16t47.5 -20.5t18.5 -50.5q0 -44 -31 -84t-84 -75z" />
<glyph horiz-adv-x="388" d="M36 509q0 94 42.5 150.5t117.5 56.5q39 0 68 -15t48.5 -42t29.5 -64.5t10 -82.5q0 -41 -10 -78t-30 -65.5t-50.5 -45.5t-72.5 -17q-73 0 -113 54.5t-40 148.5zM129 512q0 -60 16.5 -96.5t48.5 -36.5q29 0 47 33.5t18 95.5q0 60 -15.5 98t-50.5 38q-31 0 -47.5 -37 t-16.5 -95z" />
<glyph horiz-adv-x="388" d="M36 195q0 94 42.5 150.5t117.5 56.5q39 0 68 -15t48.5 -42t29.5 -64.5t10 -82.5q0 -41 -10 -78t-30 -65.5t-50.5 -45.5t-72.5 -17q-73 0 -113 54.5t-40 148.5zM129 198q0 -60 16.5 -96.5t48.5 -36.5q29 0 47 33.5t18 95.5q0 60 -15.5 98t-50.5 38q-31 0 -47.5 -37 t-16.5 -95z" />
<glyph horiz-adv-x="622" d="M45 351q0 84 19 152.5t54 117t85.5 75t112.5 26.5q64 0 112.5 -27t81.5 -75.5t50 -115.5t17 -148q0 -72 -17 -139t-51 -118t-85.5 -82t-120.5 -31q-61 0 -109 25.5t-81 73t-50.5 115t-17.5 151.5zM170 355q0 -59 9 -107t27 -82.5t44.5 -53.5t61.5 -19q61 0 100.5 64.5 t39.5 191.5q0 59 -8.5 108t-26 84.5t-44.5 55.5t-64 20q-33 0 -59 -19t-44 -53.5t-27 -83t-9 -106.5z" />
<glyph horiz-adv-x="603" d="M11 709h142l152 -285l152 285h137l-232 -386h159v-83h-160v-78h160v-84h-160v-78h-120v78h-167v84h167v78h-167v83h164z" />
<glyph horiz-adv-x="368" d="M32 557q-2 73 37.5 115.5t110.5 42.5q37 0 64.5 -11t45.5 -29.5t26.5 -42.5t8.5 -49q0 -27 -10 -51.5t-28 -47t-43.5 -44.5t-56.5 -45h145v-81h-293v45l107 99q24 22 41 39t27.5 30.5t15.5 25.5t5 26q0 26 -14.5 42.5t-43.5 16.5q-35 0 -47.5 -24t-10.5 -57h-87z" />
<glyph horiz-adv-x="368" d="M32 243q-2 73 37.5 115.5t110.5 42.5q37 0 64.5 -11t45.5 -29.5t26.5 -42.5t8.5 -49q0 -27 -10 -51.5t-28 -47t-43.5 -44.5t-56.5 -45h145v-81h-293v45l107 99q24 22 41 39t27.5 30.5t15.5 25.5t5 26q0 26 -14.5 42.5t-43.5 16.5q-35 0 -47.5 -24t-10.5 -57h-87z" />
<glyph horiz-adv-x="579" d="M43 460q-3 127 60.5 195t176.5 68q60 0 104 -18.5t73.5 -48.5t43.5 -68.5t14 -79.5q0 -78 -40.5 -146t-115.5 -143q-5 -9 -21 -25l-34 -34l-34 -32l-22 -21q6 1 17 1h23q12 0 24 1h17h200v-109h-474v50l192 211q38 42 64.5 74.5t43.5 60.5t25 53.5t8 52.5q0 48 -29 80 t-84 32q-34 0 -56 -13t-35 -35t-17.5 -49.5t-2.5 -56.5h-121z" />
<glyph horiz-adv-x="354" d="M32 439h86q2 -62 57 -62q27 0 41.5 15.5t14.5 37.5q0 23 -15.5 39t-54.5 16h-21v64h18q34 0 48.5 14.5t14.5 34.5q0 21 -13 33.5t-34 12.5q-24 0 -37 -14t-11 -41h-84q1 57 35.5 92t99.5 35q63 0 97.5 -33.5t34.5 -81.5q0 -54 -47 -79q26 -9 43 -35t17 -54 q0 -24 -9.5 -47t-28 -41t-46 -28.5t-64.5 -10.5q-63 0 -101.5 36t-40.5 97z" />
<glyph horiz-adv-x="354" d="M32 125h86q2 -62 57 -62q27 0 41.5 15.5t14.5 37.5q0 23 -15.5 39t-54.5 16h-21v64h18q34 0 48.5 14.5t14.5 34.5q0 21 -13 33.5t-34 12.5q-24 0 -37 -14t-11 -41h-84q1 57 35.5 92t99.5 35q63 0 97.5 -33.5t34.5 -81.5q0 -54 -47 -79q26 -9 43 -35t17 -54 q0 -24 -9.5 -47t-28 -41t-46 -28.5t-64.5 -10.5q-63 0 -101.5 36t-40.5 97z" />
<glyph horiz-adv-x="500" d="M77 844l42 66l132 -61l128 61l43 -69l-172 -90z" />
<glyph horiz-adv-x="500" d="M134 847l88 74l144 -120l-56 -56z" />
<glyph horiz-adv-x="349" d="M30 441q0 35 14 71.5t46 83.5q22 30 47 60l45 53h112l-22 -24l-32 -35l-38 -44q-20 -24 -37 -49q15 5 36 5q24 0 45 -8.5t37.5 -23.5t26 -37t9.5 -49q0 -29 -10.5 -54.5t-29.5 -44t-46 -29t-60 -10.5q-69 0 -106 38.5t-37 96.5zM120 435q0 -26 14 -41.5t42 -15.5 q26 0 40 16t14 43q0 25 -14 41t-40 16t-41 -16t-15 -43z" />
<glyph horiz-adv-x="349" d="M30 127q0 35 14 71.5t46 83.5q22 30 47 60l45 53h112l-22 -24l-32 -35l-38 -44q-20 -24 -37 -49q15 5 36 5q24 0 45 -8.5t37.5 -23.5t26 -37t9.5 -49q0 -29 -10.5 -54.5t-29.5 -44t-46 -29t-60 -10.5q-69 0 -106 38.5t-37 96.5zM120 121q0 -26 14 -41.5t42 -15.5 q26 0 40 16t14 43q0 25 -14 41t-40 16t-41 -16t-15 -43z" />
<glyph horiz-adv-x="560" d="M40 217q0 63 26 129.5t82 151.5q38 57 79.5 113.5t76.5 97.5h147l-33 -39l-38 -46l-38 -47l-34 -43l-50 -68l-43 -63q26 14 50 20.5t52 6.5q42 0 79.5 -15t65.5 -42.5t44.5 -65.5t16.5 -84q0 -50 -18.5 -93t-51.5 -75t-78 -50t-97 -18q-54 0 -97.5 17.5t-75 48.5 t-48.5 73t-17 91zM163 215q0 -26 9 -48t25.5 -38.5t38.5 -26t48 -9.5q24 0 45.5 9.5t37.5 26.5t25.5 39.5t9.5 49.5q0 24 -9.5 46t-25.5 38t-38 25.5t-47 9.5t-46.5 -9.5t-37.5 -26t-25.5 -38.5t-9.5 -48z" />
<glyph horiz-adv-x="319" d="M23 631v78h277v-39l-162 -356h-101l151 317h-165z" />
<glyph horiz-adv-x="319" d="M23 317v78h277v-39l-162 -356h-101l151 317h-165z" />
<glyph horiz-adv-x="504" d="M26 601v108h461v-47l-290 -662h-136l273 601h-308z" />
<glyph horiz-adv-x="206" d="M51 358q0 23 14.5 37.5t37.5 14.5t37.5 -14.5t14.5 -37.5q0 -22 -14.5 -37t-37.5 -15t-37.5 15t-14.5 37z" />
<glyph horiz-adv-x="206" d="M51 358q0 23 14.5 37.5t37.5 14.5t37.5 -14.5t14.5 -37.5q0 -22 -14.5 -37t-37.5 -15t-37.5 15t-14.5 37z" />
<glyph horiz-adv-x="206" d="M51 -136q0 23 14.5 37.5t37.5 14.5t37.5 -14.5t14.5 -37.5q0 -22 -14.5 -37t-37.5 -15t-37.5 15t-14.5 37z" />
<glyph horiz-adv-x="206" d="M51 44q0 23 14.5 37.5t37.5 14.5t37.5 -14.5t14.5 -37.5q0 -22 -14.5 -37t-37.5 -15t-37.5 15t-14.5 37z" />
<glyph horiz-adv-x="236" d="M37 371q0 34 23.5 57t56.5 23t56.5 -23t23.5 -57q0 -33 -23.5 -56.5t-56.5 -23.5t-56.5 23.5t-23.5 56.5z" />
<glyph horiz-adv-x="219" d="M27 268q30 57 47.5 118.5t17.5 124.5q0 61 -17.5 123t-46.5 116l68 24q35 -61 54 -126.5t19 -134.5q0 -72 -19.5 -137.5t-54.5 -129.5z" />
<glyph horiz-adv-x="219" d="M27 -46q30 57 47.5 118.5t17.5 124.5q0 61 -17.5 123t-46.5 116l68 24q35 -61 54 -126.5t19 -134.5q0 -72 -19.5 -137.5t-54.5 -129.5z" />
<glyph horiz-adv-x="288" d="M22 -90q51 105 79.5 216t28.5 229q0 115 -28 229t-79 209l88 34q57 -106 87.5 -220.5t30.5 -247.5q0 -136 -31.5 -252t-88.5 -228z" />
<glyph horiz-adv-x="218" d="M50 507q0 130 73 267l68 -22q-30 -61 -47 -122t-17 -121q0 -62 16.5 -122.5t46.5 -116.5l-68 -24q-40 69 -56 134t-16 127z" />
<glyph horiz-adv-x="218" d="M50 193q0 130 73 267l68 -22q-30 -61 -47 -122t-17 -121q0 -62 16.5 -122.5t46.5 -116.5l-68 -24q-40 69 -56 134t-16 127z" />
<glyph horiz-adv-x="288" d="M61 347q0 129 30 247t89 233l87 -31q-51 -106 -79 -218t-28 -227q0 -116 27.5 -227t78.5 -211l-88 -34q-64 120 -90.5 236t-26.5 232z" />
<glyph horiz-adv-x="235" d="M18 628v81h167v-395h-91v314h-76z" />
<glyph horiz-adv-x="565" d="M40 84q55 31 84 67t29 83q0 22 -6 43.5t-15 42.5h-88v78h55q-14 33 -22 64t-8 61q0 38 14.5 74t43 64t71 45t99.5 17q89 0 144 -39.5t81 -111.5l-108 -45q-30 100 -122 100q-44 0 -71 -27t-27 -74q0 -33 10 -61.5t27 -66.5h157v-78h-128q13 -37 13 -72q0 -31 -12 -61.5 t-37 -53.5q25 -1 43 -7t35.5 -13t36.5 -12.5t45 -5.5q33 0 57.5 10.5t45.5 27.5l53 -94q-25 -17 -65 -34.5t-95 -17.5q-32 0 -57 7t-47.5 15t-44.5 15t-47 7q-28 0 -54.5 -10t-46.5 -27z" />
<glyph horiz-adv-x="553" d="M42 211h118q0 -55 28.5 -88t83.5 -33t83 33.5t28 78.5q0 50 -32 81.5t-98 31.5h-34v103h31q56 0 86 27.5t30 74.5q0 44 -26 72t-70 28q-49 0 -73 -31t-22 -79h-117q-1 44 12.5 83t41.5 68t69 46t94 17q49 0 89 -15.5t68 -42t43 -62.5t15 -77q0 -57 -26 -96t-71 -59 q24 -6 45.5 -21.5t37.5 -37.5t25.5 -49t9.5 -56q0 -41 -15 -81t-45 -71t-74.5 -50t-104.5 -19q-47 0 -88.5 14.5t-73 43t-50 70.5t-18.5 96z" />
<glyph horiz-adv-x="470" d="M156 616q21 18 34 34.5t13 33.5q0 11 -4 19.5t-9.5 16t-9.5 16t-4 20.5q0 24 17.5 40t46.5 16t47 -20.5t18 -50.5q0 -44 -30.5 -84.5t-83.5 -75.5z" />
<glyph horiz-adv-x="349" d="M30 264q0 29 10.5 54.5t29.5 44t46 29t60 10.5q69 0 106 -38.5t37 -96.5q0 -35 -14 -71.5t-46 -83.5q-22 -31 -47 -60l-45 -52h-112q7 9 21 24l32 35l36 43l40 49q-15 -5 -36 -5q-24 0 -45 8.5t-37.5 23.5t-26 37t-9.5 49zM119 271q0 -25 14 -41t40 -16t41 16t15 43 q0 26 -14 41.5t-42 15.5q-26 0 -40 -16t-14 -43z" />
<glyph horiz-adv-x="560" d="M38 488q0 51 19 93.5t52 74t77 49t94 17.5q56 0 100.5 -18t75.5 -49t47.5 -73.5t16.5 -90.5q0 -39 -7 -74.5t-22.5 -72.5t-40 -77.5t-58.5 -87.5l-30 -40l-40 -55l-39 -53q-18 -24 -25 -31h-148l32 38l34 43l34 43l33 42q29 36 55 72l47 69q-20 -13 -45 -20.5t-53 -7.5 q-43 0 -81 15t-66.5 43t-45 66t-16.5 85zM158 492q0 -24 9 -46t25 -38.5t38 -26t48 -9.5q25 0 47 9.5t38 26t25 39.5t9 49q0 25 -9.5 47t-25.5 38t-38.5 25.5t-47.5 9.5q-24 0 -45.5 -9.5t-37.5 -26t-25.5 -39t-9.5 -49.5z" />
<glyph horiz-adv-x="400" d="M52 470v75h295v-75h-295z" />
<glyph horiz-adv-x="400" d="M52 -24v75h295v-75h-295z" />
<glyph horiz-adv-x="400" d="M52 156v75h295v-75h-295z" />
<glyph horiz-adv-x="675" d="M46 318v105h583v-105h-583z" />
<glyph horiz-adv-x="252" d="M39 472v71h174v-71h-174z" />
<glyph horiz-adv-x="252" d="M39 472v71h174v-71h-174z" />
<glyph horiz-adv-x="252" d="M39 -22v71h174v-71h-174z" />
<glyph horiz-adv-x="252" d="M39 158v71h174v-71h-174z" />
<glyph horiz-adv-x="361" d="M43 322v96h275v-96h-275z" />
<glyph horiz-adv-x="375" d="M33 384v71l152 254h110v-249h58v-76h-58v-70h-86v70h-176zM121 459h88v152z" />
<glyph horiz-adv-x="375" d="M33 70v71l152 254h110v-249h58v-76h-58v-70h-86v70h-176zM121 145h88v152z" />
<glyph horiz-adv-x="564" d="M32 157v98l292 454h131v-447h88v-105h-88v-157h-122v157h-301zM152 261h182v165v31q0 20 0.5 42t1.5 41t2 28q-4 -7 -10 -19l-14 -25l-14 -24q-6 -12 -10 -18z" />
<glyph horiz-adv-x="450" d="M-19 -195l15 97q22 -3 44 -3q37 0 52 22.5t23 75.5l51 323h-85l12 78h85l22 141q6 42 17.5 76t31 58t49.5 37t75 13q27 0 49 -2t36 -5l-16 -97q-11 2 -23.5 3t-26.5 1q-20 0 -33 -5.5t-21 -17.5t-12.5 -30.5t-8.5 -44.5l-20 -127h99l-12 -78h-99l-53 -337 q-7 -42 -18.5 -76t-31 -58t-49.5 -37t-74 -13q-51 0 -78 6z" />
<glyph horiz-adv-x="349" d="M30 578q0 29 10.5 54.5t29.5 44t46 29t60 10.5q69 0 106 -38.5t37 -96.5q0 -35 -14 -71.5t-46 -83.5q-22 -31 -47 -60l-45 -52h-112q7 9 21 24l32 35l36 43l40 49q-15 -5 -36 -5q-24 0 -45 8.5t-37.5 23.5t-26 37t-9.5 49zM119 585q0 -25 14 -41t40 -16t41 16t15 43 q0 26 -14 41.5t-42 15.5q-26 0 -40 -16t-14 -43z" />
<glyph horiz-adv-x="333" d="M27 350l30 66q18 -16 41 -27.5t49 -11.5q32 0 47 17t15 47q0 29 -16 48.5t-60 19.5q-21 0 -43 -3.5t-40 -9.5l28 213h201v-79h-127l-6 -49h5q2 0 5 0.5t6 0.5q60 0 99 -35.5t39 -95.5q0 -30 -9.5 -56.5t-29 -46t-48.5 -31t-69 -11.5q-38 0 -67 12.5t-50 31.5z" />
<glyph horiz-adv-x="333" d="M27 36l30 66q18 -16 41 -27.5t49 -11.5q32 0 47 17t15 47q0 29 -16 48.5t-60 19.5q-21 0 -43 -3.5t-40 -9.5l28 213h201v-79h-127l-6 -49h5q2 0 5 0.5t6 0.5q60 0 99 -35.5t39 -95.5q0 -30 -9.5 -56.5t-29 -46t-48.5 -31t-69 -11.5q-38 0 -67 12.5t-50 31.5z" />
<glyph horiz-adv-x="528" d="M34 57l43 104q30 -32 67.5 -50t82.5 -18q27 0 50.5 9.5t41.5 27.5t28.5 43.5t10.5 56.5q0 28 -10.5 53t-30.5 44t-49 30.5t-67 11.5q-32 0 -64 -5.5t-61 -15.5l47 361h322v-109h-226l-15 -139q18 3 42 3q49 0 92 -16t75.5 -45t51 -71t18.5 -94t-18.5 -98t-52.5 -80 t-82.5 -53.5t-108.5 -19.5q-57 0 -104.5 19t-82.5 51z" />
<glyph horiz-adv-x="382" d="M44 597v112h252v-709h-121v597h-131z" />
<glyph horiz-adv-x="235" d="M18 314v81h167v-395h-91v314h-76z" />
<glyph horiz-adv-x="549" d="M22 322v96h506v-96h-506z" />
<glyph horiz-adv-x="1000" d="M0 334v74h1000v-74h-1000z" />
<glyph horiz-adv-x="360" d="M35 425q0 38 19.5 61.5t40.5 33.5q-18 11 -32 34.5t-14 49.5q0 48 36 80t96 32q54 0 91 -29t37 -80q0 -31 -12 -52.5t-32 -32.5q22 -8 41 -31t19 -63q0 -27 -11.5 -49.5t-31 -38.5t-46.5 -25t-58 -9q-29 0 -55 7.5t-45.5 22t-31 37t-11.5 52.5zM123 429q0 -22 15 -37 t42 -15q25 0 40.5 14.5t15.5 37.5t-16 38.5t-41 15.5t-40.5 -15.5t-15.5 -38.5zM134 600q0 -18 11.5 -31.5t34.5 -13.5q22 0 34 12.5t12 32.5q0 18 -12.5 31.5t-34.5 13.5q-23 0 -34 -13t-11 -32z" />
<glyph horiz-adv-x="360" d="M35 111q0 38 19.5 61.5t40.5 33.5q-18 11 -32 34.5t-14 49.5q0 48 36 80t96 32q54 0 91 -29t37 -80q0 -31 -12 -52.5t-32 -32.5q22 -8 41 -31t19 -63q0 -27 -11.5 -49.5t-31 -38.5t-46.5 -25t-58 -9q-29 0 -55 7.5t-45.5 22t-31 37t-11.5 52.5zM123 115q0 -22 15 -37 t42 -15q25 0 40.5 14.5t15.5 37.5t-16 38.5t-41 15.5t-40.5 -15.5t-15.5 -38.5zM134 286q0 -18 11.5 -31.5t34.5 -13.5q22 0 34 12.5t12 32.5q0 18 -12.5 31.5t-34.5 13.5q-23 0 -34 -13t-11 -32z" />
<glyph horiz-adv-x="573" d="M53 202q0 56 30.5 103.5t87.5 69.5q-47 23 -72 64t-25 88q0 40 15.5 76t44 63t69 43t89.5 16q44 0 82.5 -14t67.5 -39t45.5 -60.5t16.5 -77.5q0 -53 -26 -92.5t-73 -61.5q25 -9 46.5 -25.5t37.5 -39t25 -49.5t9 -57q0 -44 -17.5 -84t-49 -70.5t-75 -48.5t-95.5 -18 q-48 0 -90.5 15t-74 43t-50 67.5t-18.5 88.5zM175 207q0 -24 8.5 -44.5t23.5 -36.5t36 -25t46 -9q24 0 44.5 9t35.5 24.5t24 36.5t9 45t-9 44.5t-24.5 36t-36 24.5t-44.5 9t-44.5 -9t-35.5 -24.5t-24 -36t-9 -44.5zM187 525q0 -21 8 -39t21.5 -32t32 -22t40.5 -8 q21 0 39.5 7.5t32.5 21t22 32t8 39.5t-8 39t-22.5 32t-33.5 22t-40 8q-43 0 -71.5 -29t-28.5 -71z" />
<glyph horiz-adv-x="488" d="M29 109l78 71q20 -34 51.5 -57.5t69.5 -31.5v214q-35 16 -67 34t-56.5 43t-39 59t-14.5 81q0 34 12.5 66.5t36 59t56 44.5t72.5 24v89h59v-89q58 -5 100 -29t73 -66l-74 -70q-41 55 -99 66v-211q36 -16 69 -33.5t58.5 -41.5t40.5 -57t15 -79q0 -39 -13 -73.5t-37 -61.5 t-58 -45t-75 -24v-111h-59v109q-65 5 -116 36.5t-83 83.5zM165 528q0 -33 17.5 -55t47.5 -39v181q-32 -9 -48.5 -33.5t-16.5 -53.5zM285 92q33 8 51 33t18 57q0 35 -18.5 57t-50.5 39v-186z" />
<glyph horiz-adv-x="206" d="M24 257q20 16 31 29.5t11 23.5q0 5 -2 9.5t-5 10t-5 13t-2 18.5q0 22 14 35.5t37 13.5t37.5 -14.5t14.5 -45.5q0 -39 -25.5 -72t-67.5 -61z" />
<glyph horiz-adv-x="206" d="M24 257q20 16 31 29.5t11 23.5q0 5 -2 9.5t-5 10t-5 13t-2 18.5q0 22 14 35.5t37 13.5t37.5 -14.5t14.5 -45.5q0 -39 -25.5 -72t-67.5 -61z" />
<glyph horiz-adv-x="206" d="M24 -237q20 16 31 29.5t11 23.5q0 5 -2 9.5t-5 10t-5 13t-2 18.5q0 22 14 35.5t37 13.5t37.5 -14.5t14.5 -45.5q0 -39 -25.5 -72t-67.5 -61z" />
<glyph horiz-adv-x="206" d="M24 -57q20 16 31 29.5t11 23.5q0 5 -2 9.5t-5 10t-5 13t-2 18.5q0 22 14 35.5t37 13.5t37.5 -14.5t14.5 -45.5q0 -39 -25.5 -72t-67.5 -61z" />
<glyph horiz-adv-x="491" d="M46 349q0 45 15 87.5t44 76t71.5 55t96.5 26.5v115h62v-116q25 -3 47.5 -9t42.5 -14v-107q-18 9 -41 17t-49 11v-280q27 4 50 13t42 20v-106q-42 -20 -92 -26v-112h-62v110q-52 3 -94 23t-71.5 52t-45.5 74t-16 90zM168 353q0 -51 28.5 -89t76.5 -49v272 q-48 -11 -76.5 -47t-28.5 -87z" />
<glyph horiz-adv-x="345" d="M34 -22h114v753h-113v87h217v-929h-218v89z" />
<glyph horiz-adv-x="345" d="M92 -111v929h217v-87h-112v-753h113v-89h-218z" />
<glyph horiz-adv-x="379" d="M32 -33q59 0 83.5 26t24.5 84v71q0 50 3.5 84t14 56.5t29 36t47.5 22.5q-29 9 -47 23t-29 34.5t-15 49t-4 68.5v100q0 31 -5 52t-17.5 33.5t-33 17.5t-51.5 5v87h41q95 0 135.5 -43t40.5 -137v-113q0 -69 16.5 -101.5t70.5 -32.5v-85q-26 0 -43 -7t-27 -23t-13.5 -42 t-3.5 -63v-80q0 -57 -10 -95.5t-31.5 -62t-54.5 -34t-78 -10.5h-43v79z" />
<glyph horiz-adv-x="470" d="M75 696h92q0 -38 14.5 -62t49.5 -24q36 0 53.5 24t17.5 62h92q0 -47 -12 -81.5t-34 -57t-51.5 -33t-64.5 -10.5q-78 0 -117.5 47t-39.5 135z" />
<glyph horiz-adv-x="500" d="M90 922h92q0 -38 15 -56.5t50 -18.5q71 0 71 75h92q0 -47 -12.5 -80t-34 -53.5t-51.5 -30t-65 -9.5q-157 0 -157 173z" />
<glyph horiz-adv-x="379" d="M40 323v84q27 0 44 7t26.5 22.5t13.5 40.5t4 60v96q0 97 43 141t137 44h36v-79q-57 0 -82.5 -24.5t-25.5 -80.5v-81q0 -47 -4 -79t-14.5 -53.5t-28.5 -34.5t-47 -22q29 -9 47.5 -23t29 -36t14.5 -52.5t4 -73.5v-90q0 -32 4.5 -54t16.5 -35t33 -18.5t53 -5.5v-87h-47 q-47 0 -79 10t-52 33t-29 60.5t-9 93.5v97q0 73 -17 106.5t-71 33.5z" />
<glyph horiz-adv-x="630" d="M24 219v89h84q-1 11 -1.5 21t-0.5 21t0.5 22.5t1.5 22.5h-84v88h99q14 54 40.5 97.5t65 74.5t87.5 47.5t109 16.5q35 0 70.5 -4.5t69.5 -15.5v-122q-32 14 -68.5 22t-71.5 8q-69 0 -109.5 -34t-59.5 -90h186v-88h-203q-1 -11 -1 -21v-21v-23q0 -12 2 -22h202v-89h-183 q20 -53 61.5 -85t110.5 -32q38 0 71 7t67 22v-119q-36 -13 -72 -18t-78 -5q-126 0 -200 61.5t-99 168.5h-96z" />
<glyph horiz-adv-x="157" d="M23 709h111l-18 -211h-75z" />
</font>
</defs>
</svg>
