<?xml version="1.0" encoding="utf-8"?>
<!-- Generator: Adobe Illustrator 18.0.0, SVG Export Plug-In . SVG Version: 6.00 Build 0)  -->
<!DOCTYPE svg PUBLIC "-//W3C//DTD SVG 1.1//EN" "http://www.w3.org/Graphics/SVG/1.1/DTD/svg11.dtd">
<svg version="1.1" id="Layer_1" xmlns="http://www.w3.org/2000/svg" xmlns:xlink="http://www.w3.org/1999/xlink" x="0px" y="0px"
	 width="28.3px" height="40px" viewBox="0 0 28.3 40" enable-background="new 0 0 28.3 40" xml:space="preserve">
<image display="none" overflow="visible" width="1000" height="1000" xlink:href="2EE4DB61.jpg"  transform="matrix(1 0 0 1 -2126.2749 -828.3978)">
</image>
<path fill="#006EAC" d="M26.4,7.1C23.9,2.7,19.2,0,14.2,0C9.1,0,4.4,2.7,1.9,7.1C0.6,9.3,0,11.7,0,14.2C0,27,11.8,40,14.2,40
	c2.2,0,14.1-13,14.2-25.7C28.4,11.8,27.7,9.3,26.4,7.1z M8.7,3.6c1,2.3,3.1,6.9,4.6,10.2H15c1.5-3.3,3.6-7.9,4.6-10.2
	c1.9,1,3.4,2.4,4.5,4.2c-1.5,3.3-4.7,10.4-6,13.3c0,0,0,0,0,0c0,0,0,0,0,0c-0.6-1.2-2.2-4.9-3-6.7h-1.9c-0.8,1.8-2.5,5.5-3,6.7
	c0,0,0,0,0,0c0,0,0,0,0,0c-1.3-3-4.4-10-5.9-13.3C5.3,6.1,6.8,4.6,8.7,3.6z M10.9,2.8c1-0.3,2.1-0.5,3.3-0.5c1.1,0,2.2,0.2,3.3,0.5
	c-1.1,2.5-3,6.7-3.3,7.4C13.8,9.5,12,5.2,10.9,2.8z M2.4,14c0-1.2,0.2-2.3,0.5-3.3c1.9,4.4,3.9,8.7,6.2,13.9
	C5.1,22.7,2.4,18.7,2.4,14z M12.6,21.5c0.6-1.4,1-2.1,1.5-3.3c0.5,1.2,0.9,2,1.5,3.3c0.5,1.1,1.2,2.7,1.7,3.9
	c-1,0.3-2.1,0.5-3.2,0.5c-1.1,0-2.2-0.2-3.2-0.5C11.4,24.2,12.1,22.6,12.6,21.5z M25.4,10.6c0.3,1.1,0.5,2.2,0.5,3.4
	c0,4.7-2.8,8.7-6.7,10.6C21.5,19.4,23.5,15,25.4,10.6z"/>
</svg>
