<?xml version="1.0" encoding="utf-8"?>
<!-- Generator: Adobe Illustrator 18.0.0, SVG Export Plug-In . SVG Version: 6.00 Build 0)  -->
<!DOCTYPE svg PUBLIC "-//W3C//DTD SVG 1.1//EN" "http://www.w3.org/Graphics/SVG/1.1/DTD/svg11.dtd">
<svg version="1.1" id="Layer_1" xmlns="http://www.w3.org/2000/svg" xmlns:xlink="http://www.w3.org/1999/xlink" x="0px" y="0px"
	 width="64px" height="25px" viewBox="0 0 64 25" enable-background="new 0 0 64 25" xml:space="preserve">
<path fill="#FFFFFF" d="M51,2.5c-0.9,0.4-1.9,0.7-2.9,0.8c1.1-0.7,1.9-1.7,2.3-2.9c-1,0.6-2.1,1-3.3,1.3c-0.9-1-2.3-1.7-3.7-1.7
	c-2.8,0-5.1,2.4-5.1,5.3c0,0.4,0,0.8,0.1,1.2C34,6.3,30.3,4.2,27.7,1C27.3,1.8,27,2.7,27,3.6C27,5.5,28,7.1,29.3,8
	c-0.8,0-1.6-0.3-2.3-0.7v0.1c0,2.6,1.8,4.7,4.1,5.2c-0.4,0.1-0.9,0.2-1.4,0.2c-0.3,0-0.7,0-1-0.1c0.7,2.1,2.5,3.6,4.8,3.7
	c-1.8,1.4-4,2.3-6.4,2.3c-0.4,0-0.8,0-1.2-0.1c2.3,1.5,5,2.4,7.9,2.4c9.4,0,14.6-8.1,14.6-15.1c0-0.2,0-0.5,0-0.7
	C49.4,4.5,50.3,3.5,51,2.5"/>
<path fill="#FFFFFF" d="M52,8.3h2.6V5.8c0-1.1,0-2.8,0.8-3.9c0.8-1.1,2-1.9,4-1.9C62.6,0,64,0.5,64,0.5l-0.6,3.8
	c0,0-1.1-0.3-2.1-0.3c-1,0-1.9,0.4-1.9,1.4v2.9h4.1L63.2,12h-3.8v13h-4.8V12H52V8.3z"/>
<path fill="#FFFFFF" d="M17.4,8.5l-8.2,4.7V3.9L17.4,8.5z M25,12.8V4.2c0,0,0-4.2-4.3-4.2H4.3C4.3,0,0,0,0,4.2v8.7
	c0,0,0,4.2,4.3,4.2h16.4C20.7,17,25,17,25,12.8"/>
</svg>
