<?xml version="1.0" encoding="utf-8"?>
<!-- Generator: Adobe Illustrator 18.0.0, SVG Export Plug-In . SVG Version: 6.00 Build 0)  -->
<!DOCTYPE svg PUBLIC "-//W3C//DTD SVG 1.1//EN" "http://www.w3.org/Graphics/SVG/1.1/DTD/svg11.dtd">
<svg version="1.1" id="Layer_1" xmlns="http://www.w3.org/2000/svg" xmlns:xlink="http://www.w3.org/1999/xlink" x="0px" y="0px"
	 width="257px" height="116px" viewBox="0 -0.1 257 116" enable-background="new 0 -0.1 257 116" xml:space="preserve">
<path fill="#FFFFFF" d="M39.4,17.4V12c0-1.2-0.6-2.9-3.1-4.6c0,0-3.4-7.5-9.4-7.5H13.1c-6,0-9.4,7.5-9.4,7.5
	C1.2,9.1,0.6,10.9,0.6,12v5.4c-0.3,0-0.6,0.3-0.6,0.7v3.4c0,0.3,0.2,0.5,0.4,0.6v3.1c0,0.4,0.3,0.7,0.7,0.7h4.6
	c0.4,0,0.7-0.3,0.7-0.7v-3.1c1.9-0.6,3.8-1.1,5.6-1.4h16c1.9,0.3,3.8,0.8,5.6,1.4v3.1c0,0.4,0.3,0.7,0.7,0.7h4.6
	c0.4,0,0.7-0.3,0.7-0.7v-3.1c0.3-0.1,0.4-0.3,0.4-0.6v-3.4C40,17.8,39.7,17.5,39.4,17.4z M10,17.7H5.1c-0.7,0-1.3-0.6-1.3-1.4V15
	c0-0.8,0.6-1.4,1.3-1.4c0.1,0,0.2,0,0.2,0l5.6,2c0.3,0.1,0.4,0.4,0.4,0.6C11.3,17.1,10.7,17.7,10,17.7z M24.6,17.4
	c0,0.3-0.2,0.5-0.5,0.5h-8.2c-0.3,0-0.5-0.2-0.5-0.5v-1.2c0-0.3,0.2-0.5,0.5-0.5h8.2c0.3,0,0.5,0.2,0.5,0.5V17.4L24.6,17.4z
	 M7.2,7.6c1.3-2.4,3.6-5.4,6.7-5.4h12.2c3,0,5.3,3,6.7,5.4H7.2z M36.3,16.4c0,0.8-0.6,1.4-1.3,1.4h-5c-0.7,0-1.3-0.6-1.3-1.4
	c0-0.3,0.2-0.5,0.4-0.6l5.6-2c0.1,0,0.1,0,0.2,0c0.7,0,1.3,0.6,1.3,1.4L36.3,16.4L36.3,16.4z"/>
<g>
	<g id="check-circle-outline">
		<path fill="#FFFFFF" d="M49.3,11.2l-2,2l6.3,6.3l14-14l-2-2l-12,12L49.3,11.2z M66.2,13.9c0,6.2-5,11.2-11.2,11.2
			s-11.2-5-11.2-11.2S48.8,2.7,55,2.7c1.1,0,2.1,0.1,3.1,0.4l2.2-2.2c-1.7-0.6-3.5-1-5.3-1c-7.7,0-14,6.3-14,14s6.3,14,14,14
			s14-6.3,14-14H66.2z"/>
	</g>
</g>
<g>
	<path fill="#FFFFFF" d="M87.9,11.4c0.6-0.4,1.2-0.5,1.9-0.5l6.3-6.5L92,0.2l-6.4,6.5c0.1,0.7-0.1,1.4-0.5,1.9L87.9,11.4z"/>
	<polygon fill="#FFFFFF" points="79.7,15.8 75,20.5 74.7,20.3 73.3,21.4 71,25.2 71.6,25.8 75.3,23.4 76.4,22 76.1,21.7 80.8,16.9 	
		"/>
	<path fill="#FFFFFF" d="M81.4,7.3c0.5-2,0.1-4.2-1.5-5.7c-1.5-1.5-3.7-2-5.6-1.5l3.3,3.3l-0.9,3.3l-3.2,0.9l-3.3-3.3
		c-0.5,2,0,4.1,1.5,5.7c1.6,1.6,3.9,2.1,5.9,1.4L91.1,25c0.5,0.5,1.2,0.8,1.9,0.8c0.7,0,1.4-0.3,1.9-0.8c1.1-1.1,1.1-2.8,0-3.9
		L81.4,7.3z M93.3,24.5c-0.6,0-1-0.5-1-1.1s0.5-1.1,1-1.1c0.6,0,1,0.5,1,1.1S93.8,24.5,93.3,24.5z"/>
</g>
<g>
	<path fill="#FFFFFF" d="M122.1,4.2c1-1,1-2.6,0-3.5c-1-1-2.6-1-3.5,0c-0.6,0.6-0.8,1.5-0.7,2.2l-1.4-1.4c-0.2-0.2-0.6-0.2-0.8,0
		l-6.1,6.1c-0.2,0.2-0.2,0.6,0,0.8l2.4,2.4l-4.2-0.9c-0.5-0.1-1,0.2-1.1,0.7c-0.1,0.3,0,0.6,0.2,0.8c0.2,0.1,0.3,0.2,0.5,0.3
		l6.9,1.4l0.1,0.1c0.2,0.2,0.6,0.2,0.8,0l6.1-6.1c0.3-0.2,0.3-0.6,0.1-0.8l-1.5-1.4C120.7,5.1,121.5,4.8,122.1,4.2z M119.5,3.3
		c-0.5-0.5-0.5-1.4,0-1.9s1.3-0.5,1.9,0c0.5,0.5,0.5,1.4,0,1.9S120,3.8,119.5,3.3z"/>
	<path fill="#FFFFFF" d="M112.2,14.3l-7.2-1.5c-0.5-0.1-1,0.2-1.1,0.7c-0.1,0.3,0,0.6,0.2,0.8c0.1,0.1,0.2,0.2,0.5,0.3l7.2,1.5
		c0.5,0.1,1-0.2,1.1-0.7S112.7,14.4,112.2,14.3z"/>
	<path fill="#FFFFFF" d="M109.3,17.2l-7.1-1.5l-0.1-0.1c-0.2-0.2-0.6-0.2-0.8,0l-2.7,2.7c-0.2,0.2-0.2,0.6,0,0.8l1.2,1.2
		c-0.7,0-1.5,0.3-2,0.8c-1.1,1.1-1.1,2.8,0,3.9s2.8,1.1,3.9,0c0.6-0.6,0.8-1.3,0.8-2l1.2,1.2c0.2,0.2,0.6,0.2,0.8,0l2.7-2.7
		c0.2-0.2,0.2-0.6,0-0.8l-2.6-2.6l4.3,0.9c0.5,0.1,1-0.2,1.1-0.7C110.1,17.8,109.8,17.3,109.3,17.2z M100.7,24.1
		c-0.6,0.6-1.5,0.6-2,0c-0.6-0.6-0.6-1.5,0-2c0.6-0.6,1.5-0.6,2,0C101.3,22.7,101.3,23.6,100.7,24.1z"/>
</g>
<g>
	<path fill="#FFFFFF" d="M138.3,13.3c-0.7-0.6-1.9-1.1-3.3-1.5l-1.2-0.3v-5l0.1,0.1c0,0,0.1,0,0.1,0.1c1,0.5,1.5,1.3,1.6,2.5h3.9
		c-0.1-2.1-0.8-3.7-2.3-4.9c-0.9-0.7-2.1-1.2-3.3-1.5v-2.9h-3.6v2.7c-1.7,0.2-3,0.8-4,1.7c-1.3,1.2-1.9,2.7-1.9,4.5
		c0,2,0.7,3.4,2,4.4c0.7,0.5,2,1,3.9,1.5v5.5c-0.7-0.2-1.2-0.5-1.6-1c-0.4-0.5-0.7-1.2-0.8-2H124c0,2.1,0.7,3.7,2.2,4.9
		c1,0.8,2.4,1.4,4,1.6v2.2h3.6v-2c1.7-0.2,3.1-0.8,4.2-1.7c1.3-1.2,2-2.8,2-4.7C140,15.7,139.4,14.3,138.3,13.3L138.3,13.3z
		 M130.2,10.7c-0.6-0.2-1-0.3-1.2-0.5c-0.6-0.4-1-0.9-1-1.6c0-0.8,0.3-1.4,1-1.8c0.3-0.2,0.7-0.4,1.2-0.5V10.7z M134.4,20.2
		c-0.2,0.1-0.4,0.1-0.6,0.2v-4.7c0.6,0.2,1.1,0.4,1.5,0.6c0.6,0.4,0.9,0.9,0.9,1.6C136.1,19,135.5,19.7,134.4,20.2L134.4,20.2z"/>
</g>
<path fill="#FFFFFF" d="M29.7,54.7v-3.9c0-0.9-0.4-2.1-2.3-3.4c0,0-2.6-5.5-7.1-5.5H10c-4.5,0-7,5.5-7,5.5c-1.9,1.2-2.3,2.6-2.3,3.4
	v3.9c-0.2,0-0.5,0.2-0.5,0.5v2.5c0,0.2,0.2,0.4,0.3,0.4v2.3c0,0.3,0.2,0.5,0.5,0.5h3.4c0.3,0,0.5-0.2,0.5-0.5v-2.3
	c1.4-0.4,2.8-0.8,4.2-1h12c1.4,0.2,2.8,0.6,4.2,1v2.3c0,0.3,0.2,0.5,0.5,0.5h3.4c0.3,0,0.5-0.2,0.5-0.5v-2.3
	c0.2-0.1,0.3-0.2,0.3-0.4v-2.5C30.1,55,29.9,54.8,29.7,54.7z M7.6,54.9H4c-0.5,0-1-0.4-1-1v-1c0-0.6,0.5-1,1-1c0.1,0,0.2,0,0.2,0
	l4.2,1.5c0.2,0.1,0.3,0.3,0.3,0.4C8.6,54.5,8.2,54.9,7.6,54.9z M18.6,54.7c0,0.2-0.1,0.4-0.4,0.4h-6.1c-0.2,0-0.4-0.1-0.4-0.4v-0.9
	c0-0.2,0.1-0.4,0.4-0.4h6.1c0.2,0,0.4,0.1,0.4,0.4V54.7L18.6,54.7z M5.5,47.5c1-1.8,2.7-3.9,5-3.9h9.1c2.3,0,4,2.2,5,3.9H5.5z
	 M27.4,54c0,0.6-0.4,1-1,1h-3.8c-0.5,0-1-0.4-1-1c0-0.2,0.1-0.4,0.3-0.4l4.2-1.5c0.1,0,0.1,0,0.1,0c0.5,0,1,0.4,1,1L27.4,54L27.4,54
	z"/>
<g>
	<g id="check-circle-outline_1_">
		<path fill="#FFFFFF" d="M38.5,52l-1.8,1.8l5.6,5.6l12.5-12.5L53,45.1L42.4,55.8L38.5,52z M53.6,54.4c0,5.5-4.5,10-10,10
			s-10-4.5-10-10s4.5-10,10-10c1,0,1.9,0.1,2.8,0.4l2-2c-1.5-0.5-3.1-0.9-4.7-0.9c-6.9,0-12.5,5.6-12.5,12.5s5.6,12.5,12.5,12.5
			s12.5-5.6,12.5-12.5H53.6z"/>
	</g>
</g>
<g>
	<path fill="#FFFFFF" d="M73.6,52.5c0.6-0.4,1.1-0.5,1.7-0.5l5.8-6l-3.8-3.9l-5.9,6c0.1,0.6-0.1,1.3-0.5,1.8L73.6,52.5z"/>
	<polygon fill="#FFFFFF" points="66,56.6 61.7,61 61.4,60.8 60.2,61.8 58,65.3 58.6,65.9 62,63.7 63,62.4 62.7,62.1 67.1,57.6 	"/>
	<path fill="#FFFFFF" d="M67.6,48.7c0.5-1.9,0.1-3.9-1.4-5.3C64.8,42,62.8,41.5,61,42l3,3.1l-0.8,3.1L60.3,49l-3-3.1
		c-0.5,1.9,0,3.8,1.4,5.3c1.5,1.5,3.6,1.9,5.4,1.3l12.4,12.6c0.5,0.5,1.1,0.7,1.7,0.7s1.3-0.3,1.7-0.7c1-1,1-2.6,0-3.6L67.6,48.7z
		 M78.6,64.7c-0.6,0-0.9-0.5-0.9-1c0-0.6,0.5-1,0.9-1c0.6,0,0.9,0.5,0.9,1S79,64.7,78.6,64.7z"/>
</g>
<g>
	<path fill="#FFFFFF" d="M105.4,45.8c0.9-0.9,0.9-2.4,0-3.2c-0.9-0.9-2.4-0.9-3.2,0c-0.6,0.6-0.7,1.4-0.6,2l-1.3-1.3
		c-0.2-0.2-0.6-0.2-0.7,0L93.8,49c-0.2,0.2-0.2,0.6,0,0.7l2.2,2.2l-3.9-0.8c-0.5-0.1-0.9,0.2-1,0.6c-0.1,0.3,0,0.6,0.2,0.7
		c0.2,0.1,0.3,0.2,0.5,0.3l6.4,1.3l0.1,0.1c0.2,0.2,0.6,0.2,0.7,0l5.7-5.7c0.3-0.2,0.3-0.6,0.1-0.7l-1.4-1.3
		C104.1,46.7,104.9,46.4,105.4,45.8z M103,45c-0.5-0.5-0.5-1.3,0-1.8s1.2-0.5,1.8,0c0.5,0.5,0.5,1.3,0,1.8S103.5,45.5,103,45z"/>
	<path fill="#FFFFFF" d="M96.3,55.2l-6.7-1.4c-0.5-0.1-0.9,0.2-1,0.6c-0.1,0.3,0,0.6,0.2,0.7c0.1,0.1,0.2,0.2,0.5,0.3l6.7,1.4
		c0.5,0.1,0.9-0.2,1-0.6S96.7,55.3,96.3,55.2z"/>
	<path fill="#FFFFFF" d="M93.6,57.9L87,56.5l-0.1-0.1c-0.2-0.2-0.6-0.2-0.7,0l-2.5,2.5c-0.2,0.2-0.2,0.6,0,0.7l1.1,1.1
		c-0.6,0-1.4,0.3-1.9,0.7c-1,1-1,2.6,0,3.6s2.6,1,3.6,0c0.6-0.6,0.7-1.2,0.7-1.9l1.1,1.1c0.2,0.2,0.6,0.2,0.7,0l2.5-2.5
		c0.2-0.2,0.2-0.6,0-0.7l-2.4-2.4l4,0.8c0.5,0.1,0.9-0.2,1-0.6C94.3,58.5,94,58,93.6,57.9z M85.6,64.3c-0.6,0.6-1.4,0.6-1.9,0
		c-0.6-0.6-0.6-1.4,0-1.9c0.6-0.6,1.4-0.6,1.9,0S86.1,63.8,85.6,64.3z"/>
</g>
<path fill="#006EAC" d="M29.7,103.7v-3.9c0-0.9-0.4-2.1-2.3-3.4c0,0-2.6-5.5-7.1-5.5H10c-4.5,0-7,5.5-7,5.5
	c-1.9,1.2-2.3,2.6-2.3,3.4v3.9c-0.2,0-0.5,0.2-0.5,0.5v2.5c0,0.2,0.2,0.4,0.3,0.4v2.3c0,0.3,0.2,0.5,0.5,0.5h3.4
	c0.3,0,0.5-0.2,0.5-0.5v-2.3c1.4-0.4,2.8-0.8,4.2-1h12c1.4,0.2,2.8,0.6,4.2,1v2.3c0,0.3,0.2,0.5,0.5,0.5h3.4c0.3,0,0.5-0.2,0.5-0.5
	v-2.3c0.2-0.1,0.3-0.2,0.3-0.4v-2.5C30.1,104,29.9,103.8,29.7,103.7z M7.6,103.9H4c-0.5,0-1-0.4-1-1v-1c0-0.6,0.5-1,1-1
	c0.1,0,0.2,0,0.2,0l4.2,1.5c0.2,0.1,0.3,0.3,0.3,0.4C8.6,103.5,8.2,103.9,7.6,103.9z M18.6,103.7c0,0.2-0.1,0.4-0.4,0.4h-6.1
	c-0.2,0-0.4-0.1-0.4-0.4v-0.9c0-0.2,0.1-0.4,0.4-0.4h6.1c0.2,0,0.4,0.1,0.4,0.4V103.7L18.6,103.7z M5.5,96.5c1-1.8,2.7-3.9,5-3.9
	h9.1c2.3,0,4,2.2,5,3.9H5.5z M27.4,103c0,0.6-0.4,1-1,1h-3.8c-0.5,0-1-0.4-1-1c0-0.2,0.1-0.4,0.3-0.4l4.2-1.5c0.1,0,0.1,0,0.1,0
	c0.5,0,1,0.4,1,1L27.4,103L27.4,103z"/>
<g>
	<g id="check-circle-outline_2_">
		<path fill="#006EAC" d="M38.5,101l-1.8,1.8l5.6,5.6l12.5-12.5L53,94.1l-10.6,10.7L38.5,101z M53.6,103.4c0,5.5-4.5,10-10,10
			s-10-4.5-10-10s4.5-10,10-10c1,0,1.9,0.1,2.8,0.4l2-2c-1.5-0.5-3.1-0.9-4.7-0.9c-6.9,0-12.5,5.6-12.5,12.5s5.6,12.5,12.5,12.5
			s12.5-5.6,12.5-12.5H53.6z"/>
	</g>
</g>
<g>
	<path fill="#006EAC" d="M79.4,94.8c0.9-0.9,0.9-2.4,0-3.2c-0.9-0.9-2.4-0.9-3.2,0c-0.6,0.6-0.7,1.4-0.6,2l-1.3-1.3
		c-0.2-0.2-0.6-0.2-0.7,0L67.8,98c-0.2,0.2-0.2,0.6,0,0.7l2.2,2.2l-3.9-0.8c-0.5-0.1-0.9,0.2-1,0.6c-0.1,0.3,0,0.6,0.2,0.7
		s0.3,0.2,0.5,0.3l6.4,1.3l0.1,0.1c0.2,0.2,0.6,0.2,0.7,0l5.7-5.7c0.3-0.2,0.3-0.6,0.1-0.7l-1.4-1.3C78.1,95.7,78.9,95.4,79.4,94.8z
		 M77,94c-0.5-0.5-0.5-1.3,0-1.8s1.2-0.5,1.8,0c0.5,0.5,0.5,1.3,0,1.8S77.5,94.5,77,94z"/>
	<path fill="#006EAC" d="M70.3,104.2l-6.7-1.4c-0.5-0.1-0.9,0.2-1,0.6c-0.1,0.3,0,0.6,0.2,0.7c0.1,0.1,0.2,0.2,0.5,0.3l6.7,1.4
		c0.5,0.1,0.9-0.2,1-0.6C71.1,104.8,70.7,104.3,70.3,104.2z"/>
	<path fill="#006EAC" d="M67.6,106.9l-6.6-1.4l-0.1-0.1c-0.2-0.2-0.6-0.2-0.7,0l-2.5,2.5c-0.2,0.2-0.2,0.6,0,0.7l1.1,1.1
		c-0.6,0-1.4,0.3-1.9,0.7c-1,1-1,2.6,0,3.6s2.6,1,3.6,0c0.6-0.6,0.7-1.2,0.7-1.9l1.1,1.1c0.2,0.2,0.6,0.2,0.7,0l2.5-2.5
		c0.2-0.2,0.2-0.6,0-0.7l-2.4-2.4l4,0.8c0.5,0.1,0.9-0.2,1-0.6C68.3,107.5,68,107,67.6,106.9z M59.6,113.3c-0.6,0.6-1.4,0.6-1.9,0
		c-0.6-0.6-0.6-1.4,0-1.9c0.6-0.6,1.4-0.6,1.9,0S60.1,112.8,59.6,113.3z"/>
</g>
<g>
	<path fill="#FFFFFF" d="M120.5,54.8c-0.7-0.6-1.8-1.1-3.1-1.4l-1.1-0.3v-4.8l0.1,0.1c0,0,0.1,0,0.1,0.1c0.9,0.5,1.4,1.3,1.5,2.4
		h3.7c-0.1-2-0.8-3.6-2.2-4.7c-0.8-0.7-2-1.2-3.1-1.4V42H113v2.6c-1.6,0.2-2.8,0.8-3.8,1.6c-1.2,1.2-1.8,2.6-1.8,4.3
		c0,1.9,0.7,3.3,1.9,4.2c0.7,0.5,1.9,1,3.7,1.4v5.3c-0.7-0.2-1.1-0.5-1.5-1s-0.7-1.2-0.8-1.9H107c0,2,0.7,3.6,2.1,4.7
		c0.9,0.8,2.2,1.3,3.8,1.5v2.1h3.4V65c1.6-0.2,2.9-0.8,3.9-1.6c1.2-1.2,1.9-2.7,1.9-4.5C122.1,57.1,121.6,55.7,120.5,54.8
		L120.5,54.8z M112.9,52.3c-0.6-0.2-0.9-0.3-1.1-0.5c-0.6-0.4-0.9-0.9-0.9-1.5c0-0.8,0.3-1.3,0.9-1.7c0.3-0.2,0.7-0.4,1.1-0.5V52.3z
		 M116.9,61.4c-0.2,0.1-0.4,0.1-0.6,0.2v-4.5c0.6,0.2,1,0.4,1.4,0.6c0.6,0.4,0.8,0.9,0.8,1.5C118.5,60.3,117.9,60.9,116.9,61.4
		L116.9,61.4z"/>
</g>
<g>
	<path fill="#FFFFFF" d="M156.6,13.8l-2.9-2.9c0.8-1.1,1.3-2.5,1.3-4c0-3.9-3.1-7-7-7s-7,3.1-7,7s3.1,7,7,7c1.5,0,2.9-0.5,4-1.3
		l2.9,2.9c0.5,0.5,1.3,0.5,1.7,0C157.1,15.1,157.1,14.3,156.6,13.8L156.6,13.8z M148,11.9c-2.8,0-5-2.2-5-5s2.2-5,5-5s5,2.2,5,5
		S150.8,11.9,148,11.9L148,11.9z"/>
</g>
<g>
	<path fill="#B7B7B7" d="M173.6,13.8l-2.9-2.9c0.8-1.1,1.3-2.5,1.3-4c0-3.9-3.1-7-7-7s-7,3.1-7,7s3.1,7,7,7c1.5,0,2.9-0.5,4-1.3
		l2.9,2.9c0.5,0.5,1.3,0.5,1.7,0C174.1,15.1,174.1,14.3,173.6,13.8L173.6,13.8z M165,11.9c-2.8,0-5-2.2-5-5s2.2-5,5-5s5,2.2,5,5
		S167.8,11.9,165,11.9L165,11.9z"/>
</g>
<g>
	<path fill="#FFFFFF" d="M194.5,17.3l-3.6-3.6c1-1.4,1.6-3.1,1.6-5c0-4.9-3.9-8.8-8.8-8.8c-4.9,0-8.8,3.9-8.8,8.8s3.9,8.8,8.8,8.8
		c1.9,0,3.6-0.6,5-1.6l3.6,3.6c0.6,0.6,1.6,0.6,2.1,0C195.1,18.9,195.1,17.9,194.5,17.3L194.5,17.3z M183.7,14.9
		c-3.5,0-6.3-2.8-6.3-6.3s2.8-6.3,6.3-6.3s6.3,2.8,6.3,6.3S187.2,14.9,183.7,14.9L183.7,14.9z"/>
</g>
<polygon fill="#FFFFFF" points="148.8,16.9 141,24.9 148.8,32.9 151,30.6 145.4,24.9 151,19.1 "/>
<polygon fill="#FFFFFF" points="154.2,32.9 162,24.9 154.2,16.9 152,19.1 157.6,24.9 152,30.6 "/>
<polygon fill="#006EAC" points="165,30.9 172,23.9 165,16.9 163,18.8 168.1,23.9 163,28.9 "/>
<polygon fill="#006EAC" points="150.6,43.9 156,38.9 150.6,33.9 149,35.3 153,38.9 149,42.5 "/>
<g>
	<rect x="196" y="-0.1" fill="#FFFFFF" width="25" height="3.1"/>
	<rect x="196" y="16.8" fill="#FFFFFF" width="25" height="3.1"/>
	<rect x="196" y="8.4" fill="#FFFFFF" width="25" height="3.1"/>
</g>
<g id="_x33__41_">
	<g>
		<path fill="#A0A0A0" d="M173.6,28.4h6.3c0.3,0,0.6-0.3,0.6-0.6c0-0.3-0.3-0.6-0.6-0.6h-4.8c1.4-3,4.4-5,7.9-5c4.4,0,8,3.3,8.7,7.5
			h1.3c-0.6-4.9-4.8-8.8-9.9-8.8c-3.8,0-7,2.1-8.8,5.2v-4.5c0-0.3-0.3-0.6-0.6-0.6s-0.6,0.3-0.6,0.6v6.3
			C173,28.4,173.6,28.4,173.6,28.4z M192.4,33.4h-6.3c-0.3,0-0.6,0.3-0.6,0.6s0.3,0.6,0.6,0.6h4.8c-1.4,3-4.4,5-7.9,5
			c-4.4,0-8-3.3-8.7-7.5H173c0.6,4.9,4.8,8.8,9.9,8.8c3.8,0,7-2.1,8.8-5.2v4.5c0,0.3,0.3,0.6,0.6,0.6s0.6-0.3,0.6-0.6v-6.3
			C193,33.4,192.4,33.4,192.4,33.4z"/>
	</g>
</g>
<polygon fill="#006EAC" points="14,40.9 21,33.9 14,26.9 12,28.9 17,33.9 12,38.9 "/>
<polygon fill="#FFFFFF" points="24,40.9 31,33.9 24,26.9 22,28.9 27,33.9 22,38.9 "/>
<g id="_x31_0">
	<g>
		<path fill="#FFFFFF" d="M7.9,27c-0.1-0.1-0.3-0.1-0.5,0L4,31l-3.4-4c-0.1-0.1-0.3-0.1-0.5,0c-0.1,0.1-0.1,0.4,0,0.5l3.6,4.3
			c0.1,0.1,0.2,0.1,0.3,0.1c0.1,0,0.2,0,0.3-0.1l3.6-4.3C8,27.4,8,27.1,7.9,27z"/>
	</g>
</g>
<g>
	<path fill="#FF001F" d="M205,20.9c-5,0-9,4-9,9s4,9,9,9s9-4,9-9S210,20.9,205,20.9L205,20.9z M206.9,34.8c-0.5,0.2-0.8,0.3-1.1,0.4
		c-0.3,0.1-0.6,0.1-1,0.1c-0.6,0-1-0.1-1.3-0.4c-0.3-0.3-0.5-0.6-0.5-1c0-0.2,0-0.3,0-0.5s0.1-0.4,0.1-0.6l0.6-2
		c0.1-0.2,0.1-0.4,0.1-0.6s0.1-0.3,0.1-0.5c0-0.3-0.1-0.4-0.2-0.5c-0.1-0.1-0.3-0.2-0.6-0.2c-0.1,0-0.3,0-0.5,0.1
		c-0.2,0-0.3,0.1-0.4,0.1l0.2-0.6c0.4-0.2,0.7-0.3,1.1-0.4c0.3-0.1,0.7-0.2,1-0.2c0.6,0,1,0.1,1.3,0.4s0.5,0.6,0.5,1
		c0,0.1,0,0.2,0,0.5c0,0.2-0.1,0.4-0.1,0.6l-0.6,2c0,0.2-0.1,0.4-0.1,0.6c0,0.2-0.1,0.4-0.1,0.5c0,0.3,0.1,0.5,0.2,0.6
		c0.1,0.1,0.3,0.1,0.6,0.1c0.1,0,0.3,0,0.5-0.1c0.2,0,0.3-0.1,0.4-0.1L206.9,34.8z M206.8,26.6c-0.3,0.2-0.6,0.4-1,0.4
		s-0.7-0.1-1-0.4c-0.3-0.2-0.4-0.6-0.4-0.9c0-0.4,0.1-0.7,0.4-0.9c0.3-0.2,0.6-0.4,1-0.4s0.7,0.1,1,0.4s0.4,0.6,0.4,0.9
		S207,26.3,206.8,26.6L206.8,26.6z"/>
</g>
<g>
	<rect x="222" y="-0.1" fill="#FFFFFF" width="35" height="6"/>
	<rect x="222" y="21.9" fill="#FFFFFF" width="35" height="6"/>
	<rect x="222" y="10.9" fill="#FFFFFF" width="35" height="6"/>
</g>
<path fill="#FFFFFF" d="M127,46.4c0,3.5,2.1,6.5,5.1,7.8l-4.7-10.5C127.1,44.6,127,45.5,127,46.4z M123.4,46.4
	c0,6.7,5.5,12.2,12.2,12.2c6.7,0,12.2-5.5,12.2-12.2c0-6.7-5.5-12.2-12.2-12.2C128.9,34.2,123.4,39.7,123.4,46.4z M135.6,56.8
	c-5.7,0-10.4-4.7-10.4-10.4S129.9,36,135.6,36c5.7,0,10.4,4.7,10.4,10.4S141.3,56.8,135.6,56.8z M133.1,38.2l2.5,5.7l2.5-5.7
	c-0.8-0.2-1.6-0.4-2.5-0.4C134.7,37.8,133.9,37.9,133.1,38.2z M138.1,54.6l-2.5-5.7l-2.5,5.7c0.8,0.2,1.6,0.4,2.5,0.4
	C136.5,55,137.3,54.9,138.1,54.6z M143.8,43.8l-4.7,10.5c3-1.3,5.1-4.4,5.1-7.8C144.2,45.5,144.1,44.6,143.8,43.8z M128.6,41.4
	l4,9.1l1.7-3.8h2.5l1.7,3.8l4-9.1c-0.7-1-1.6-1.8-2.6-2.4l-3.2,7.1h-2.5l-3.2-7.1C130.2,39.6,129.3,40.4,128.6,41.4z M135.6,33.9
	c6.9,0,12.5,5.6,12.5,12.5c0,6.9-5.6,12.5-12.5,12.5c-6.9,0-12.5-5.6-12.5-12.5C123.1,39.5,128.7,33.9,135.6,33.9z"/>
<g>
	<g>
		<path fill="#FFFFFF" d="M114.3,81.4c-0.9,0.9-2.3,1.5-5.1,1.5H104v-16h5c2.1,0,3.2,0.2,4.4,1.4c0.6,0.6,1,1.6,1,2.7
			c0,1.5-0.6,2.5-1.7,3.1c1.7,0.3,3,1.8,3,3.9C115.6,79.3,115.2,80.5,114.3,81.4z M110.6,70.2c-0.4-0.4-0.8-0.5-1.7-0.5h-1.6v3.4
			h1.5c0.8,0,1.2-0.1,1.6-0.5c0.3-0.3,0.6-0.8,0.6-1.4C111,70.9,110.9,70.5,110.6,70.2z M111.7,76.5c-0.5-0.5-1.2-0.6-2.2-0.6h-2.2
			v4.2h2.1c1.9,0,2.8-0.7,2.8-2.1C112.2,77.5,112.1,76.9,111.7,76.5z"/>
	</g>
	<g>
		<g>
			<g>
				<g>
					<path fill="#FFFFFF" d="M126.6,80.7c-1.6,1.6-3.7,2.2-6.2,2.2h-4.3v-16h4.5c2.6,0,4.7,0.7,6.1,2.1c1.5,1.5,2.3,3.3,2.3,5.7
						C129,77.4,128,79.3,126.6,80.7z M124.1,71c-1-1.1-2.4-1.3-3.8-1.3h-0.8v10.4h1c1.5,0,2.6-0.4,3.5-1.2c0.7-0.7,1.4-2,1.4-4.1
						C125.4,73.2,124.9,71.8,124.1,71z"/>
				</g>
			</g>
		</g>
	</g>
</g>
<g>
	<path fill="#FFFFFF" d="M100.8,86.9c0.6,0,1-0.2,1.5-0.6l-7.1-7.2c-0.2,0.1-0.3,0.2-0.5,0.4c-0.5,0.4-1,0.7-1.3,0.9
		c-0.3,0.2-0.8,0.4-1.3,0.7c-0.5,0.2-1.1,0.3-1.5,0.3h0c-0.5,0-1-0.1-1.5-0.3c-0.5-0.2-1-0.5-1.3-0.7c-0.3-0.2-0.8-0.5-1.3-0.9
		c-0.1-0.1-0.3-0.2-0.5-0.4l-7.1,7.2c0.4,0.4,0.9,0.6,1.5,0.6H100.8z M100.8,86.9"/>
	<path fill="#FFFFFF" d="M79.4,74.6c-0.5-0.4-1-0.8-1.4-1.2v11l6.2-6.4C83,77.1,81.4,76,79.4,74.6L79.4,74.6z M79.4,74.6"/>
	<path fill="#FFFFFF" d="M101.6,74.6c-1.9,1.3-3.5,2.4-4.8,3.4l6.2,6.4v-11C102.6,73.8,102.1,74.2,101.6,74.6L101.6,74.6z
		 M101.6,74.6"/>
	<path fill="#FFFFFF" d="M100.8,66.9H80.2c-0.7,0-1.3,0.2-1.7,0.7c-0.4,0.5-0.6,1.1-0.6,1.8c0,0.6,0.3,1.2,0.8,1.9
		c0.5,0.7,1.1,1.2,1.6,1.6c0.3,0.2,1.3,0.9,2.9,2c0.9,0.6,1.6,1.1,2.2,1.6c0.5,0.4,1,0.7,1.4,1c0,0,0.1,0.1,0.2,0.2
		c0.1,0.1,0.2,0.2,0.4,0.3c0.3,0.2,0.6,0.4,0.8,0.5c0.2,0.1,0.4,0.3,0.7,0.5c0.3,0.2,0.6,0.3,0.8,0.4c0.3,0.1,0.5,0.1,0.7,0.1h0
		c0.2,0,0.4,0,0.7-0.1c0.3-0.1,0.5-0.2,0.8-0.4c0.3-0.2,0.5-0.3,0.7-0.5c0.2-0.1,0.5-0.3,0.8-0.5c0.2-0.1,0.3-0.2,0.4-0.3
		c0.1-0.1,0.2-0.1,0.2-0.2c0.3-0.2,0.8-0.5,1.4-1c1.2-0.8,2.9-2,5.1-3.6c0.7-0.5,1.2-1.1,1.7-1.7c0.5-0.7,0.7-1.4,0.7-2.1
		c0-0.6-0.2-1.2-0.7-1.6C101.9,67.1,101.4,66.9,100.8,66.9L100.8,66.9z M100.8,66.9"/>
</g>
<g>
	<path fill="#FFFFFF" d="M51,75.2v-3.9c0-0.5-0.4-1-1-1h-6.9v-2.6c0-0.4-0.3-0.8-0.8-0.8h-7.6c-0.4,0-0.8,0.3-0.8,0.8v2.6H27
		c-0.5,0-1,0.4-1,1v3.9H51z M35.6,68.6h5.7v1.7h-5.7V68.6z M35.6,68.6"/>
	<path fill="#FFFFFF" d="M48.2,77.4v1.8c0,0.2-0.2,0.4-0.4,0.4h-4.1c-0.2,0-0.4-0.2-0.4-0.4v-1.8h-9.5v1.8c0,0.2-0.2,0.4-0.4,0.4
		h-4.1c-0.2,0-0.4-0.2-0.4-0.4v-1.8H26v11.5c0,0.5,0.4,1,1,1H50c0.5,0,1-0.4,1-1V77.4H48.2z M48.2,77.4"/>
</g>
<g>
	<path fill="#FFFFFF" d="M15.3,76.8c-0.3-0.3-0.6-0.5-1.1-0.7c-0.4-0.2-0.8-0.3-1.2-0.3c-0.5-0.1-1.1-0.2-1.4-0.5
		c0,0-0.1-0.1-0.1-0.1c-0.1-0.2-0.2-0.4-0.2-0.6c0-0.3,0.1-0.5,0.2-0.6c0.1-0.1,0.3-0.3,0.6-0.3c0.1,0,0.3-0.1,0.4-0.1
		c0.4,0,0.7,0.1,0.9,0.3c0.1,0.2,0.2,0.4,0.3,0.7c0,0.2,0.2,0.4,0.4,0.4c0,0,0,0,0.1,0l1.5-0.2c0.2,0,0.4-0.3,0.4-0.5
		c-0.1-0.9-0.5-1.5-1.1-2.1c-0.3-0.3-0.7-0.5-1.2-0.6V71c0-0.2-0.2-0.4-0.5-0.4h-1.5c-0.3,0-0.5,0.2-0.5,0.4v0.7
		c-0.5,0.1-0.9,0.4-1.3,0.6C9.3,72.9,9,73.7,9,74.7c0,0.3,0,0.5,0.1,0.8c0.1,0.2,0.2,0.5,0.3,0.7c0.3,0.4,0.6,0.8,1.1,1.1
		c0.7,0.4,1.3,0.5,2,0.7c0.5,0.1,1,0.3,1.2,0.6c0.1,0.1,0.2,0.4,0.2,0.6c0,0.3-0.1,0.6-0.3,0.9c-0.2,0.2-0.5,0.4-0.8,0.4
		c-0.1,0-0.2,0-0.2,0c-0.4,0-0.9-0.2-1.1-0.5c-0.1-0.1-0.3-0.4-0.4-1.1c0-0.2-0.2-0.4-0.4-0.4c0,0-0.1,0-0.1,0l-1.4,0.2
		c-0.2,0-0.4,0.2-0.4,0.5c0,0.7,0.2,1.3,0.6,1.8c0.3,0.5,0.7,0.9,1.2,1.1c0.3,0.1,0.5,0.2,0.8,0.3v0.6c0,0.2,0.2,0.4,0.5,0.4h1.5
		c0.3,0,0.5-0.2,0.5-0.4v-0.5c0.6-0.2,1.2-0.5,1.6-0.9c0.6-0.6,0.9-1.4,0.9-2.4c0-0.4-0.1-0.8-0.2-1.2
		C15.9,77.4,15.6,77.1,15.3,76.8z"/>
	<path fill="#FFFFFF" d="M24.9,75.5c-0.2-1.7-0.7-3.3-1.4-4.7l1.1-1c0.4-0.4,0.2-1-0.3-1.1l-6.2-1.8c-0.5-0.1-1,0.3-0.9,0.8l1.5,6.1
		c0.1,0.5,0.8,0.7,1.1,0.3l0.9-0.8c0.3,0.8,0.5,1.7,0.6,2.6c0.2,1.6-0.1,3.3-0.7,4.8c-0.5,1.3-1.3,2.5-2.4,3.4
		c-0.3,0.2-0.3,0.6,0,0.9l1.4,1.6c0.3,0.3,0.7,0.3,1,0c1.4-1.3,2.5-2.9,3.3-4.7C24.8,80,25.2,77.7,24.9,75.5z"/>
	<path fill="#FFFFFF" d="M6.3,80c-0.1-0.5-0.8-0.7-1.1-0.3l-0.9,0.8c-0.3-0.8-0.5-1.7-0.6-2.6c-0.2-1.6,0.1-3.3,0.7-4.8
		c0.5-1.3,1.3-2.5,2.4-3.4c0.3-0.2,0.3-0.6,0-0.9l-1.4-1.6c-0.3-0.3-0.7-0.3-1,0C2.9,68.4,1.7,70,1,71.8c-0.9,2-1.2,4.3-0.9,6.5
		c0.2,1.7,0.7,3.3,1.4,4.7l-1.1,1c-0.4,0.4-0.2,1,0.3,1.1l6.2,1.8c0.5,0.1,1-0.3,0.9-0.8L6.3,80z"/>
</g>
<g>
	<path fill="#FFFFFF" d="M64.5,70.9l-8.9,7.4c0,0,0,0,0,0c0,0,0,0,0,0v7.5c0,0.3,0.1,0.5,0.3,0.7c0.2,0.2,0.4,0.3,0.7,0.3h6v-6h4v6
		h6c0.3,0,0.5-0.1,0.7-0.3c0.2-0.2,0.3-0.4,0.3-0.7v-7.5c0,0,0-0.1,0-0.1L64.5,70.9z"/>
	<path fill="#FFFFFF" d="M76.8,76.6l-3.4-2.8v-6.4c0-0.1,0-0.3-0.1-0.4c-0.1-0.1-0.2-0.1-0.4-0.1h-3c-0.1,0-0.3,0-0.4,0.1
		c-0.1,0.1-0.1,0.2-0.1,0.4v3l-3.8-3.2c-0.3-0.3-0.7-0.4-1.2-0.4c-0.5,0-0.8,0.1-1.2,0.4l-11.2,9.3C52.1,76.7,52,76.8,52,77
		c0,0.1,0,0.3,0.1,0.4l1,1.2c0.1,0.1,0.2,0.2,0.3,0.2c0.1,0,0.2,0,0.4-0.1l10.7-9l10.7,9c0.1,0.1,0.2,0.1,0.3,0.1h0
		c0.1,0,0.2-0.1,0.3-0.2l1-1.2C77,77.2,77,77.1,77,77C77,76.8,76.9,76.7,76.8,76.6z"/>
</g>
<g>
	<path fill="#FFFFFF" d="M149.7,77.8l-3.7-1.7l-1.6-0.7c0.7-0.4,1.2-1,1.6-1.9c0.3-0.7,0.4-1.4,0.4-2.1c0-0.4,0-0.8-0.1-1.2
		c-0.2-0.9-0.7-1.7-1.4-2.3c-0.7-0.6-1.5-0.9-2.4-0.9c-0.9,0-1.7,0.3-2.3,0.9c-0.7,0.6-1.1,1.4-1.4,2.3c-0.1,0.2-0.1,0.4-0.1,0.6
		c0,0.2-0.1,0.4-0.1,0.7c0,0.8,0.2,1.5,0.5,2.2c0.4,0.8,0.9,1.4,1.6,1.8l-1.5,0.7l-3.8,1.7c-0.4,0.2-0.6,0.5-0.6,0.9v4.1
		c0,0.3,0.1,0.5,0.2,0.7c0.2,0.2,0.4,0.3,0.6,0.3h13.5c0.3,0,0.5-0.1,0.6-0.3c0.2-0.2,0.2-0.4,0.2-0.7v-4.1
		C150.3,78.3,150.1,78,149.7,77.8z"/>
	<path fill="#FFFFFF" d="M137.8,75.3c0.2-0.1,0.4-0.3,0.6-0.5c-0.3-0.5-0.6-1-0.8-1.6c-0.2-0.6-0.3-1.2-0.3-1.8
		c0-0.8,0.2-1.6,0.5-2.4c-0.2-0.1-0.5-0.3-0.7-0.4c-0.3-0.1-0.5-0.1-0.8-0.1c-0.4,0-0.8,0.1-1.2,0.3c-0.4,0.2-0.7,0.4-1,0.8
		c-0.3,0.3-0.5,0.7-0.7,1.2c-0.2,0.4-0.2,0.9-0.2,1.4c0,0.7,0.2,1.3,0.5,1.9c0.3,0.6,0.7,1,1.2,1.3l-4.3,2c-0.3,0.1-0.4,0.4-0.4,0.8
		v3.3c0,0.2,0.1,0.4,0.2,0.6c0.1,0.2,0.3,0.2,0.5,0.2h2.8v-3.5c0-0.5,0.1-0.9,0.3-1.2c0.2-0.4,0.5-0.6,1-0.8L137.8,75.3z"/>
	<path fill="#FFFFFF" d="M154.7,77.4l-4.2-2c0.5-0.3,0.9-0.7,1.2-1.3c0.3-0.6,0.5-1.2,0.5-1.9c0-0.5-0.1-1-0.2-1.4
		c-0.2-0.4-0.4-0.8-0.7-1.2c-0.3-0.3-0.6-0.6-1-0.8c-0.4-0.2-0.8-0.3-1.2-0.3c-0.3,0-0.6,0-0.9,0.1c-0.3,0.1-0.5,0.2-0.8,0.4
		c0.1,0.4,0.3,0.7,0.3,1.1c0.1,0.4,0.1,0.8,0.1,1.2c0,0.6-0.1,1.2-0.3,1.8c-0.2,0.6-0.4,1.1-0.7,1.6c0.2,0.3,0.5,0.5,0.7,0.6
		l2.7,1.3c0.4,0.2,0.7,0.5,0.9,0.8c0.2,0.4,0.3,0.8,0.3,1.2v3.5h2.9c0.2,0,0.4-0.1,0.5-0.2c0.1-0.2,0.2-0.3,0.2-0.6v-3.3
		C155.2,77.8,155,77.5,154.7,77.4z"/>
</g>
</svg>
